<?xml version="1.0" standalone="no"?>
<!DOCTYPE svg PUBLIC "-//W3C//DTD SVG 20010904//EN"
 "http://www.w3.org/TR/2001/REC-SVG-20010904/DTD/svg10.dtd">
<svg version="1.0" xmlns="http://www.w3.org/2000/svg"
 width="1000.000000pt" height="1000.000000pt" viewBox="0 0 1000.000000 1000.000000"
 preserveAspectRatio="xMidYMid meet">
<metadata>
Created by potrace 1.14, written by Peter Selinger 2001-2017
</metadata>
<g transform="translate(0.000000,1000.000000) scale(0.100000,-0.100000)"
fill="#000000" stroke="none">
<path d="M5822 8988 c-7 -7 -12 -26 -12 -42 -1 -17 -7 -49 -15 -71 -13 -36
-23 -101 -40 -259 -10 -93 -17 -61 -11 54 6 135 8 156 19 166 12 12 8 34 -6
34 -17 0 -60 -40 -52 -48 4 -4 11 1 16 11 15 27 29 11 19 -23 -13 -46 -20 -53
-38 -38 -14 11 -15 10 -9 -6 5 -12 3 -23 -5 -28 -9 -5 -6 -8 10 -8 16 0 21 -4
15 -12 -7 -13 -12 -30 -17 -58 -1 -9 -5 -21 -10 -28 -4 -7 -5 -21 -1 -31 3
-12 0 -21 -9 -24 -10 -4 -13 -1 -10 7 6 17 -42 50 -51 35 -4 -6 -4 -13 -1 -16
3 -3 2 -11 -3 -17 -5 -6 -12 -36 -15 -66 -2 -30 -6 -57 -7 -60 -1 -3 -1 -8 0
-12 0 -5 -3 -8 -9 -8 -5 0 -10 12 -11 28 l0 27 -11 -25 c-5 -14 -14 -33 -20
-44 -7 -13 -6 -16 2 -11 7 4 5 -3 -4 -16 -8 -14 -18 -51 -22 -84 -4 -33 -13
-69 -20 -80 -8 -11 -14 -38 -14 -61 0 -22 -3 -44 -7 -48 -4 -4 -8 -13 -8 -19
-2 -27 -18 -67 -27 -67 -6 0 -7 -7 -4 -15 3 -9 -2 -34 -10 -55 -13 -32 -14
-43 -4 -55 7 -8 9 -15 4 -15 -5 0 -2 -5 6 -10 8 -5 10 -10 4 -10 -7 0 -9 -11
-6 -25 6 -32 -15 -33 -28 -2 -13 32 -12 7 2 -52 11 -48 10 -53 -11 -72 -25
-24 -23 -45 5 -41 18 2 18 2 2 -8 -10 -6 -18 -19 -18 -30 0 -10 -6 -21 -12
-23 -8 -4 -7 -6 4 -6 12 -1 16 -10 16 -36 0 -35 -12 -47 -21 -22 -4 8 -8 8
-14 2 -4 -5 -14 -11 -22 -13 -12 -3 -12 0 -1 13 22 27 4 27 -25 1 -24 -23 -26
-29 -17 -56 6 -16 7 -30 2 -30 -14 0 -41 31 -34 41 6 11 -4 49 -15 49 -15 0
-3 -92 16 -113 28 -31 19 -61 -15 -53 -15 4 -22 3 -17 -1 6 -4 11 -18 13 -31
2 -21 0 -22 -13 -8 -9 8 -22 13 -29 10 -8 -3 -17 -1 -21 5 -3 6 1 11 10 11 9
0 14 4 10 10 -3 5 -12 7 -19 4 -8 -3 -16 2 -19 13 -4 16 -5 16 -11 1 -4 -9 -1
-32 9 -52 9 -19 13 -40 9 -47 -4 -8 -3 -9 4 -5 7 4 12 3 12 -2 0 -5 -10 -12
-22 -16 -19 -5 -21 -8 -8 -16 19 -13 33 -13 25 0 -3 6 -1 10 4 10 15 0 14 -30
-1 -30 -7 0 -2 -9 12 -20 26 -20 26 -20 -21 -24 -13 -1 -36 62 -34 92 1 12 -2
19 -7 16 -4 -3 -11 2 -14 10 -5 13 -9 12 -27 -5 -18 -17 -19 -21 -7 -29 8 -5
11 -12 7 -16 -4 -4 -2 -13 3 -19 8 -9 6 -14 -5 -18 -11 -5 -13 -12 -6 -29 4
-13 6 -29 3 -37 -3 -8 0 -11 7 -7 7 5 9 1 4 -10 -5 -13 -3 -15 7 -9 9 5 11 4
6 -3 -4 -7 -16 -12 -28 -12 -16 0 -18 -3 -9 -13 6 -8 13 -24 15 -38 3 -13 5
-25 7 -26 1 -2 2 -6 3 -10 1 -5 5 -13 9 -19 4 -7 0 -17 -8 -24 -16 -13 -19 -8
-15 24 1 11 -3 15 -9 12 -6 -4 -9 -1 -5 7 3 8 -1 21 -8 28 -7 8 -15 28 -16 44
-5 36 -4 36 -22 25 -10 -6 -11 -12 -4 -22 17 -21 16 -71 0 -65 -8 3 -22 -3
-31 -13 -15 -17 -15 -20 0 -44 10 -14 14 -26 10 -26 -4 0 -2 -6 4 -14 10 -11
8 -15 -5 -18 -17 -3 -17 -4 0 -20 20 -20 14 -23 -15 -8 -20 11 -28 -3 -9 -15
6 -3 10 -12 10 -18 0 -7 -4 -6 -10 3 -9 13 -10 13 -10 0 0 -10 -3 -11 -8 -4
-10 16 -49 27 -56 15 -4 -5 2 -12 12 -15 25 -8 47 -55 32 -70 -7 -7 -10 -5
-10 8 0 16 -1 16 -17 1 -9 -10 -12 -20 -7 -23 6 -4 18 -24 28 -46 13 -28 15
-41 7 -49 -16 -16 -33 10 -28 40 3 15 -3 28 -19 38 -28 18 -38 19 -28 3 4 -6
8 -21 10 -32 1 -12 5 -29 9 -38 5 -12 3 -18 -6 -18 -7 0 -22 8 -33 18 -21 17
-21 17 -2 -5 11 -13 25 -23 32 -23 8 0 11 -6 8 -15 -4 -8 -1 -15 5 -15 6 0 11
5 11 12 0 6 2 9 6 6 3 -3 -2 -21 -11 -39 -8 -19 -13 -26 -11 -17 6 22 -21 32
-32 11 -8 -13 -12 -12 -27 8 -14 19 -16 20 -10 4 4 -11 11 -34 15 -52 10 -44
-14 -52 -37 -13 -19 32 -40 41 -28 13 4 -10 9 -27 12 -38 3 -11 7 -27 10 -35
4 -8 5 -22 4 -29 -2 -13 0 -13 13 -2 14 12 16 11 10 -3 -9 -23 -23 -20 -36 9
-6 14 -16 25 -21 25 -5 0 -5 -5 1 -13 6 -7 13 -29 15 -48 2 -20 7 -41 11 -47
5 -8 1 -10 -10 -5 -14 5 -16 2 -12 -21 4 -20 2 -24 -5 -17 -14 14 -30 14 -21
0 3 -6 1 -15 -6 -19 -7 -4 -9 -13 -5 -20 6 -9 9 -9 16 1 6 11 9 9 15 -5 4 -11
2 -21 -7 -27 -13 -8 -6 -13 13 -10 4 0 12 -8 18 -18 7 -15 6 -20 -6 -25 -12
-4 -15 -2 -10 9 3 9 0 15 -8 15 -8 0 -20 14 -28 30 -7 17 -17 30 -21 30 -11 0
2 -41 19 -61 18 -20 18 -29 -2 -29 -8 0 -13 3 -11 8 7 11 -30 45 -37 34 -3 -6
1 -13 10 -16 8 -3 12 -11 8 -17 -3 -6 -1 -15 6 -19 9 -6 7 -13 -10 -30 -21
-21 -22 -37 -4 -84 3 -9 1 -16 -6 -16 -6 0 -9 4 -6 9 9 14 -18 20 -35 7 -9 -6
-14 -17 -12 -23 7 -21 -15 -15 -27 7 -6 11 -17 17 -24 14 -8 -3 -19 3 -26 15
-6 12 -15 21 -21 21 -11 0 0 -52 13 -61 15 -10 37 -58 29 -64 -11 -6 -21 5
-21 24 0 21 -45 42 -59 28 -6 -6 -11 -17 -11 -24 0 -20 -17 -15 -35 10 l-17
22 7 -25 c4 -14 10 -32 13 -40 3 -9 -1 -8 -10 4 -15 19 -15 19 -20 -1 -3 -11
1 -34 8 -52 7 -17 14 -35 14 -39 1 -4 8 -14 15 -22 8 -9 16 -30 20 -48 3 -18
13 -41 23 -51 36 -40 44 -52 38 -58 -9 -9 -86 81 -81 95 3 7 0 10 -5 7 -6 -4
-8 -22 -4 -43 6 -36 6 -37 -11 -14 -16 21 -43 32 -30 12 12 -20 -17 -10 -36
13 -11 12 -4 -9 16 -47 20 -38 33 -71 31 -74 -3 -3 -8 3 -12 12 -3 9 -11 16
-17 16 -6 0 -19 8 -29 17 -23 21 -58 27 -58 11 0 -11 27 -76 55 -130 8 -15 10
-30 5 -33 -4 -3 -11 2 -14 11 -4 9 -9 14 -12 11 -3 -3 -17 6 -31 21 -20 23
-22 23 -14 5 6 -12 16 -25 21 -28 13 -8 13 -45 0 -45 -5 0 -14 9 -20 20 -6 11
-17 20 -25 20 -8 0 -15 6 -15 14 0 7 -7 19 -15 26 -20 16 5 -44 64 -158 12
-23 19 -48 15 -54 -5 -7 -3 -8 5 -3 9 5 12 2 9 -11 -2 -11 5 -26 16 -35 11 -9
16 -21 12 -28 -6 -8 -15 -4 -32 16 -13 15 -24 32 -24 36 0 4 -9 17 -20 29 -26
28 -26 14 1 -23 18 -25 19 -32 7 -47 -11 -15 -11 -15 2 -5 12 9 18 5 31 -27
17 -38 17 -38 -11 -59 -23 -16 -29 -18 -34 -6 -3 9 0 12 10 8 10 -4 14 2 14
22 0 15 -4 24 -10 20 -5 -3 -10 -1 -10 5 0 6 -5 16 -10 23 -6 7 -19 23 -29 37
l-20 25 6 -25 c3 -14 11 -29 17 -35 18 -15 27 -43 16 -50 -6 -4 -10 0 -10 7 0
7 -14 28 -30 47 -17 18 -30 29 -30 24 0 -6 7 -16 15 -23 8 -7 15 -20 15 -29 0
-9 5 -22 12 -29 6 -6 8 -15 3 -19 -4 -5 -10 -3 -12 3 -2 6 -10 20 -18 30 -8
10 -4 -7 10 -39 29 -67 30 -71 10 -63 -13 5 -13 2 1 -25 12 -24 13 -33 3 -45
-10 -12 -9 -21 5 -45 20 -34 16 -48 -7 -25 -13 14 -15 13 -20 -4 -3 -11 -2
-18 3 -15 4 3 11 -2 14 -11 3 -8 2 -12 -4 -9 -6 3 -7 -1 -4 -9 3 -9 10 -14 14
-11 4 3 10 -2 13 -10 4 -9 1 -12 -9 -8 -18 7 -18 -7 1 -34 8 -11 16 -36 19
-56 2 -19 11 -48 20 -65 10 -19 12 -32 5 -34 -6 -2 -4 -17 6 -40 8 -21 15 -45
15 -55 -1 -16 -2 -16 -13 2 -21 35 -40 30 -21 -6 23 -44 27 -78 12 -97 -8 -10
-9 -13 -1 -9 6 4 14 3 18 -3 3 -6 -3 -10 -15 -10 -17 0 -21 4 -16 17 4 9 2 19
-4 23 -12 8 -29 67 -75 270 -20 85 -51 218 -70 295 -40 165 -59 259 -75 375
-7 47 -18 125 -26 174 -8 49 -15 106 -15 125 -1 20 -3 28 -6 18 -3 -11 -11
-16 -19 -13 -7 3 -17 -2 -22 -11 -8 -13 -10 -12 -15 6 -3 11 -1 23 4 26 4 3 6
12 3 19 -3 8 -1 17 5 21 6 3 11 13 11 22 0 12 -3 13 -14 3 -8 -6 -17 -19 -19
-28 -2 -9 -3 -8 -1 3 1 11 7 36 12 56 9 36 1 69 -18 69 -15 0 -12 -28 3 -33 9
-3 9 -8 1 -18 -12 -16 -37 -93 -37 -114 0 -8 -4 -16 -9 -16 -19 -3 -24 -5 -35
-12 -9 -6 -13 -2 -13 12 0 11 5 23 10 26 6 3 10 16 10 29 0 12 4 26 9 32 5 5
11 27 13 49 3 22 3 32 1 23 -2 -9 -13 -20 -24 -23 -11 -4 -25 -18 -31 -31 -6
-13 -19 -24 -30 -24 -10 0 -18 -3 -19 -7 -3 -31 -11 -59 -19 -67 -13 -13 -1
55 11 69 5 5 9 27 8 50 -1 32 -2 35 -8 16 -4 -14 -13 -27 -20 -29 -10 -3 -11
3 -6 29 4 19 10 39 14 44 3 6 6 12 6 15 5 30 20 80 31 100 7 14 19 45 26 70
15 57 23 79 35 102 2 4 -3 5 -11 2 -9 -3 -16 -12 -16 -20 0 -8 -5 -14 -11 -14
-5 0 -19 -20 -30 -45 -28 -63 -41 -65 -23 -3 9 29 18 56 21 61 8 13 -5 8 -21
-9 -14 -13 -16 -13 -16 -1 0 9 -3 23 -7 33 -4 12 -3 15 5 10 8 -5 10 -2 6 8
-3 9 -1 16 5 16 6 0 11 5 11 11 0 5 -4 7 -10 4 -13 -8 -13 11 1 37 6 11 9 22
6 24 -2 3 -16 -17 -29 -43 -14 -26 -35 -52 -47 -58 -11 -5 -21 -16 -21 -24 0
-9 4 -10 13 -5 7 5 2 -1 -11 -12 -16 -15 -20 -24 -13 -29 9 -5 9 -10 0 -21 -6
-8 -8 -14 -5 -14 4 0 2 -9 -4 -19 -6 -12 -17 -17 -28 -14 -12 3 -22 -4 -30
-21 -13 -29 -38 -36 -27 -8 5 14 4 15 -7 4 -10 -10 -10 -17 0 -32 14 -22 4
-31 -26 -23 -24 6 -26 22 -12 93 5 27 5 49 -1 54 -6 6 -9 4 -10 -7 -2 -25 -4
-31 -12 -44 -5 -7 -6 -17 -3 -22 3 -5 -1 -14 -10 -21 -12 -11 -12 -15 -2 -21
10 -6 8 -12 -7 -24 -11 -9 -14 -13 -6 -9 9 5 12 3 7 -4 -4 -7 -13 -12 -21 -12
-10 0 -12 -11 -8 -41 4 -29 2 -44 -8 -50 -10 -6 -10 -9 -1 -9 6 0 12 -7 12
-15 0 -14 -2 -14 -23 0 -13 8 -27 12 -32 8 -7 -7 -1 19 13 56 4 10 1 12 -9 6
-8 -5 -5 1 5 13 11 13 14 22 7 22 -6 0 -10 12 -9 30 1 17 6 30 10 30 4 0 8 5
8 11 0 16 -25 5 -26 -12 -2 -34 -17 -70 -28 -66 -7 3 -13 -4 -13 -14 -1 -11 2
-17 7 -14 5 3 11 1 15 -5 3 -5 1 -10 -5 -10 -6 0 -8 -5 -4 -11 8 -13 -15 -89
-28 -89 -4 0 -8 -5 -8 -11 0 -5 4 -8 9 -5 5 3 11 -7 13 -23 3 -21 1 -28 -9
-24 -7 3 -13 9 -13 14 0 22 -25 6 -26 -16 -1 -14 -12 -34 -25 -44 -13 -11 -20
-23 -16 -27 4 -5 11 -3 16 4 6 9 13 9 34 -1 33 -15 33 -19 5 -32 -13 -6 -22
-17 -20 -24 1 -7 -2 -10 -7 -6 -6 3 -8 12 -5 20 4 10 -2 13 -20 11 -14 -2 -26
0 -26 5 0 5 -7 6 -15 3 -18 -7 -19 0 -3 26 9 14 10 25 2 38 -6 11 -7 32 -2 57
16 73 18 113 8 137 -10 22 -10 22 -7 -4 3 -16 1 -28 -4 -28 -12 0 -6 -40 6
-40 5 0 1 -6 -10 -12 -38 -22 -50 -56 -25 -75 17 -13 5 -43 -20 -51 -8 -3 -10
0 -5 7 10 16 -3 63 -15 56 -6 -4 -8 -11 -5 -16 4 -5 0 -9 -8 -9 -10 0 -13 -7
-10 -20 3 -13 0 -20 -8 -20 -11 0 -12 -2 -1 -9 16 -10 1 -77 -16 -74 -16 4
-27 -38 -12 -47 9 -6 9 -9 -1 -13 -11 -3 -11 -7 -2 -17 10 -10 8 -19 -7 -41
-20 -27 -20 -27 0 -22 18 5 20 1 19 -43 -1 -70 4 -98 19 -107 10 -7 10 -12 1
-23 -9 -11 -8 -15 4 -20 16 -6 17 -20 4 -41 -5 -7 -4 -13 2 -13 6 0 8 -15 6
-34 -3 -24 0 -36 10 -40 8 -3 14 -16 13 -28 -1 -13 4 -39 10 -58 6 -19 14 -50
17 -68 3 -18 15 -42 26 -53 14 -14 19 -29 16 -45 -2 -13 -1 -22 3 -19 3 2 4
-9 2 -26 -2 -16 -7 -29 -11 -29 -15 1 -41 29 -52 56 -51 130 -58 158 -46 173
10 12 9 14 -5 8 -13 -4 -18 2 -23 26 -4 18 -16 51 -26 74 -11 23 -19 49 -19
58 0 9 -5 26 -11 37 -11 21 -14 36 -25 126 -5 41 -10 52 -22 47 -12 -4 -14 1
-9 29 4 25 1 36 -9 40 -8 3 -14 15 -14 26 0 11 -4 20 -9 20 -5 0 -8 16 -7 35
1 21 -4 37 -12 40 -8 3 -12 12 -8 20 3 8 1 17 -5 20 -5 4 -6 11 -3 17 4 6 -1
8 -16 3 -19 -6 -22 -4 -16 10 4 11 0 25 -10 36 -10 11 -12 19 -6 19 7 0 12 7
12 16 0 9 -5 12 -12 8 -10 -6 -10 -4 0 7 16 18 15 58 -3 93 -9 16 -13 36 -11
43 3 7 2 13 -3 13 -22 0 -41 87 -46 209 -2 44 -11 92 -23 120 -11 25 -22 62
-25 82 -2 19 -10 51 -17 70 -11 32 -10 44 9 105 12 38 26 110 31 159 5 50 17
126 26 170 11 57 17 149 20 320 3 235 2 243 -24 128 l-9 -38 -13 27 c-11 24
-11 31 2 45 15 18 19 111 5 106 -4 -2 -11 -3 -17 -3 -5 0 -10 -7 -10 -15 0 -8
-5 -15 -10 -15 -6 0 -6 -7 1 -19 8 -11 9 -26 4 -37 -5 -11 -10 -26 -11 -34 -1
-8 -5 -28 -9 -44 -6 -21 -5 -27 4 -22 6 4 11 3 11 -3 0 -5 -5 -11 -11 -13 -6
-2 -12 -26 -14 -53 -2 -31 -9 -53 -19 -61 -9 -6 -14 -18 -10 -27 3 -9 -3 -23
-15 -33 -11 -10 -18 -22 -15 -26 3 -5 -2 -18 -12 -29 -9 -10 -14 -19 -9 -19 4
0 2 -7 -6 -16 -17 -21 -18 -64 -1 -64 10 0 12 -6 7 -22 -13 -38 -8 -119 9
-147 5 -8 3 -16 -5 -21 -10 -7 -10 -12 -1 -23 9 -11 8 -18 -7 -31 -11 -10 -17
-24 -14 -32 3 -8 0 -21 -7 -29 -9 -11 -9 -15 -1 -15 10 0 -11 -43 -29 -60 -12
-11 -8 -63 5 -77 8 -8 15 -21 15 -30 0 -9 6 -13 15 -9 8 3 15 1 15 -4 0 -5 7
-7 16 -3 23 9 74 -45 74 -79 0 -16 -7 -31 -15 -34 -21 -9 -56 -72 -42 -77 8
-2 6 -10 -6 -21 -25 -25 -12 -34 15 -10 l22 19 -18 -28 c-20 -32 -18 -37 12
-40 20 -1 20 -8 -1 -35 -7 -9 -12 -10 -17 -2 -5 8 -9 7 -13 -2 -7 -20 23 -19
46 0 12 10 17 11 17 3 0 -7 4 -9 10 -6 14 9 12 -18 -2 -34 -11 -11 -10 -13 5
-8 23 8 22 -4 -3 -31 -12 -12 -16 -22 -11 -22 5 0 13 5 16 10 3 6 13 10 21 10
24 0 16 -40 -16 -80 -17 -21 -32 -52 -34 -69 -2 -18 -7 -35 -11 -39 -5 -4 -5
1 -2 11 4 9 2 17 -4 17 -6 0 -9 -9 -7 -20 2 -10 -5 -25 -15 -32 -12 -9 -16
-20 -11 -31 6 -16 8 -16 25 4 11 12 19 26 19 31 0 20 25 0 26 -20 2 -39 4 -43
12 -38 22 13 -13 -125 -40 -161 -6 -7 -5 -20 2 -34 7 -12 8 -19 2 -15 -13 8
-36 -49 -26 -65 5 -8 3 -9 -6 -4 -10 6 -12 4 -7 -8 4 -10 2 -16 -6 -14 -7 1
-11 -4 -10 -10 2 -7 -2 -13 -7 -13 -6 0 -10 -7 -10 -15 0 -8 5 -15 10 -15 6 0
10 4 10 9 0 5 6 11 14 14 12 5 13 1 4 -24 -5 -16 -17 -29 -25 -29 -8 0 -12 -4
-9 -9 5 -8 16 -96 19 -148 0 -7 4 -13 9 -13 4 0 8 20 8 45 0 25 4 45 10 45 5
0 9 3 8 8 -3 15 23 92 32 92 13 0 7 -41 -13 -78 -18 -32 -15 -72 4 -72 15 0
10 -37 -7 -44 -8 -3 -13 -10 -9 -15 3 -5 -4 -12 -15 -16 -20 -7 -28 -25 -10
-25 6 0 10 -11 10 -25 0 -14 5 -25 11 -25 6 0 9 7 5 15 -3 8 -1 15 3 15 5 0
11 -6 13 -12 6 -18 2 -108 -6 -115 -10 -10 -7 -25 4 -18 7 4 9 -5 5 -24 -4
-23 -2 -31 10 -31 8 0 15 5 15 11 0 8 4 8 14 0 11 -9 12 -20 4 -49 -18 -72
-21 -88 -9 -72 12 17 12 18 16 -75 2 -40 -1 -75 -7 -83 -8 -9 -7 -11 6 -6 9 3
16 1 16 -6 0 -6 -4 -9 -9 -5 -5 3 -17 -2 -25 -11 -15 -14 -16 -13 -16 8 0 13
-7 37 -16 53 -9 17 -19 62 -24 100 -4 39 -8 64 -9 57 -3 -30 -21 2 -27 48 -4
31 -12 50 -20 50 -9 0 -11 14 -7 58 3 42 2 53 -6 42 -11 -16 -14 -1 -12 85 l0
40 -11 -35 -11 -35 -8 30 c-5 16 -6 39 -3 51 4 14 0 23 -12 28 -14 6 -16 16
-11 76 6 70 6 70 -16 59 -17 -9 -20 -9 -10 1 6 7 9 19 6 26 -3 8 0 14 6 14 6
0 11 5 11 11 0 5 -4 7 -10 4 -5 -3 -11 0 -12 7 -2 19 -5 49 -7 83 -2 28 -3 29
-11 8 -13 -31 -24 -29 -16 2 4 14 3 37 0 52 -7 27 -7 27 -20 -12 l-13 -40 2
57 c1 31 -1 54 -4 52 -3 -2 -4 9 -2 24 l4 27 -14 -24 c-12 -20 -15 -21 -20 -7
-4 9 -1 16 5 16 6 0 8 3 5 7 -4 3 -1 13 6 21 9 13 9 14 0 8 -9 -5 -13 0 -13
15 0 19 -2 20 -17 8 -15 -13 -16 -10 -11 29 4 23 2 42 -3 42 -5 0 -9 12 -9 26
0 14 -4 23 -10 19 -14 -9 -12 8 3 24 7 9 7 11 1 8 -7 -4 -14 4 -18 19 -6 21
-10 24 -21 14 -11 -10 -15 -7 -21 14 -3 15 -4 35 -1 46 3 11 1 20 -4 20 -5 0
-7 19 -4 43 4 33 3 37 -4 20 -6 -13 -15 -23 -21 -23 -6 0 -8 5 -5 10 3 6 1 10
-4 10 -6 0 -11 5 -11 10 0 6 6 10 14 10 7 0 16 11 18 25 3 14 1 25 -4 25 -8 0
-6 21 8 68 10 34 -3 26 -25 -15 -14 -27 -20 -32 -20 -18 0 11 6 29 14 39 8 11
15 26 15 34 0 26 -18 2 -36 -48 -20 -57 -44 -68 -35 -17 1 5 -3 6 -9 2 -6 -3
-10 4 -11 17 0 13 -3 17 -6 11 -2 -7 -9 -13 -15 -13 -6 0 -3 11 5 24 13 20 14
27 3 42 -9 12 -11 27 -6 43 5 15 11 40 14 56 6 27 5 28 -6 10 -7 -11 -13 -25
-14 -32 -1 -6 -7 -19 -13 -30 -10 -17 -10 -17 -11 3 0 12 7 41 15 64 17 49 19
61 5 40 -8 -12 -10 -10 -10 9 0 17 4 22 16 17 10 -4 14 -1 11 6 -2 7 -13 11
-23 9 -18 -3 -18 -2 -3 15 13 16 24 84 13 84 -2 0 -11 -12 -19 -27 -9 -16 -14
-20 -11 -11 3 10 1 20 -5 24 -7 4 -6 10 1 19 6 8 11 29 12 47 0 43 30 141 38
128 9 -15 5 50 -4 75 -5 11 -10 26 -12 33 -2 6 -9 12 -16 11 -10 0 -10 -2 0
-6 6 -2 12 -9 12 -15 0 -6 -7 -8 -15 -5 -15 7 -35 -45 -35 -94 0 -14 -3 -29
-7 -33 -4 -4 -8 -13 -8 -19 -3 -45 -21 -140 -35 -182 -10 -28 -17 -77 -16
-113 1 -34 -3 -62 -8 -62 -4 0 -6 -10 -3 -21 3 -12 1 -30 -6 -40 -9 -14 -9
-21 1 -31 14 -14 16 -32 2 -23 -5 3 -9 -14 -8 -42 0 -26 3 -42 6 -35 2 9 9 3
18 -14 8 -15 13 -32 10 -38 -2 -6 -5 -3 -5 7 -1 19 -9 21 -31 7 -13 -9 -13
-11 0 -20 10 -6 11 -10 3 -10 -7 0 -13 -4 -13 -10 0 -5 6 -10 14 -10 9 0 12
-8 8 -27 l-6 -28 -6 25 c-6 27 -14 20 -24 -23 -4 -18 -2 -35 5 -43 7 -8 9 -17
5 -21 -3 -3 -6 -1 -6 5 0 7 -4 12 -10 12 -5 0 -10 -10 -10 -22 0 -13 0 -41 0
-62 0 -22 5 -43 11 -47 8 -5 8 -8 0 -10 -14 -5 -21 -152 -11 -244 9 -89 45
-235 86 -345 32 -89 87 -229 103 -265 10 -22 25 -56 34 -75 87 -193 115 -253
196 -418 39 -78 79 -156 91 -171 11 -16 20 -31 20 -34 0 -7 75 -134 122 -207
63 -97 206 -267 304 -361 131 -126 444 -344 444 -309 0 5 -7 10 -16 10 -8 0
-12 5 -9 10 4 6 12 7 18 3 7 -4 6 0 -2 10 -14 18 -36 24 -26 7 3 -6 -1 -7 -10
-4 -14 6 -14 8 2 21 16 13 16 14 1 9 -12 -3 -18 3 -23 24 -6 25 -10 29 -34 24
-23 -5 -36 3 -86 50 -32 31 -55 59 -51 63 4 4 18 -5 32 -20 25 -27 41 -36 28
-16 -3 6 0 16 7 21 11 8 10 9 -3 4 -10 -3 -20 -1 -23 5 -4 5 -3 8 2 7 4 -2 9
0 11 5 1 4 0 6 -2 5 -8 -6 -45 35 -40 43 8 14 19 11 45 -12 13 -11 37 -28 52
-36 27 -14 28 -13 18 6 -16 29 -13 35 7 20 15 -13 16 -12 4 3 -8 9 -19 15 -26
12 -12 -5 -49 32 -54 55 -1 8 -14 28 -27 46 -14 17 -25 37 -25 43 0 7 -4 12
-9 12 -5 0 -11 10 -14 23 -6 21 -6 21 13 -3 11 -14 22 -33 26 -42 3 -10 9 -18
14 -18 6 0 5 11 0 26 -13 33 -13 34 4 34 8 0 23 -11 34 -25 101 -128 276 -294
400 -377 65 -44 152 -84 235 -108 41 -13 33 -2 -13 16 -22 9 -40 20 -40 25 0
5 -3 8 -7 7 -13 -5 -193 124 -187 133 3 5 -1 6 -9 3 -21 -8 -31 14 -15 33 12
15 11 15 -8 3 -19 -12 -25 -10 -50 13 -16 15 -23 27 -16 27 6 0 12 -5 12 -12
0 -6 7 -3 15 8 20 26 19 43 -1 18 -14 -17 -15 -17 -10 -1 4 11 2 16 -4 12 -7
-4 -9 3 -6 19 3 15 1 24 -5 21 -5 -4 -9 3 -9 14 0 15 -5 19 -17 15 -15 -5 -16
-4 -3 5 11 8 18 7 26 -4 14 -19 25 -19 18 -1 -8 20 12 29 35 14 30 -18 38 -1
17 35 -11 20 -14 33 -7 35 6 2 11 10 11 17 0 7 6 15 13 18 8 3 0 16 -21 37
-18 18 -30 35 -28 37 7 7 66 -7 66 -16 0 -3 12 -8 27 -9 l27 -2 -24 27 c-14
16 -33 36 -44 46 -17 15 -18 20 -5 27 12 8 11 14 -4 43 -11 19 -31 48 -47 65
-15 17 -25 33 -22 36 3 3 -3 15 -13 26 -10 11 -15 20 -11 20 4 0 0 7 -8 16
-21 20 -22 68 -1 60 11 -4 10 3 -5 32 -11 20 -16 38 -11 40 5 2 7 12 4 22 -3
11 -9 17 -14 14 -5 -3 -6 -11 -3 -17 5 -9 4 -9 -6 0 -7 6 -9 16 -6 22 9 14 36
14 36 1 0 -6 5 -16 10 -23 6 -7 19 -24 31 -39 11 -16 27 -28 34 -28 18 0 79
-90 77 -115 -1 -15 1 -17 8 -6 12 21 37 -1 45 -40 4 -17 9 -28 12 -25 3 3 17
-9 32 -26 14 -18 45 -52 68 -77 36 -39 43 -43 43 -24 0 12 -6 23 -12 26 -10 3
-10 8 -2 17 9 9 17 4 35 -22 34 -48 42 -55 58 -50 10 3 12 0 8 -12 -4 -9 -2
-16 2 -16 5 0 11 6 13 12 3 8 9 4 17 -10 6 -12 18 -22 26 -22 8 0 15 -4 15 -9
0 -5 14 -7 31 -4 31 5 63 -12 53 -28 -3 -5 0 -9 5 -9 6 0 11 -9 11 -20 0 -11
4 -20 10 -20 6 0 6 9 0 26 -13 34 -13 34 10 34 11 0 20 -4 20 -10 0 -5 9 -10
20 -10 14 0 18 5 13 18 -6 15 -5 16 13 2 10 -8 16 -11 12 -6 -3 4 0 15 7 24
37 45 56 66 51 55 -3 -6 -2 -22 3 -35 l9 -23 10 25 c5 14 8 28 5 32 -2 4 3 5
11 2 11 -4 19 3 26 21 9 24 12 26 28 14 9 -8 22 -21 29 -29 29 -35 13 45 -76
381 -17 64 -33 124 -37 133 -3 9 -1 16 5 16 6 0 18 -25 26 -55 9 -30 20 -53
25 -50 4 3 6 -3 3 -13 -2 -10 3 -24 11 -31 9 -8 16 -19 16 -25 0 -7 9 -22 21
-34 11 -12 17 -27 13 -34 -4 -7 -3 -8 4 -4 7 4 12 2 12 -3 0 -18 3 -25 14 -38
28 -31 32 -39 28 -51 -2 -6 3 -12 12 -12 8 0 22 -13 30 -29 17 -33 46 -49 46
-25 0 8 -7 26 -16 39 -10 15 -12 25 -6 25 15 0 32 -33 32 -62 1 -19 2 -20 10
-7 11 18 5 58 -10 73 -5 5 -10 14 -10 20 0 5 6 2 13 -9 13 -17 15 -17 30 6 10
13 17 30 17 37 0 10 8 12 33 7 42 -10 47 -13 41 -29 -3 -7 2 -16 10 -19 9 -4
16 -16 16 -27 0 -11 4 -20 9 -20 16 0 24 -41 11 -54 -10 -8 -11 -8 -7 0 4 7 0
17 -8 24 -8 7 -12 16 -9 21 3 5 1 9 -5 9 -17 0 -25 -42 -10 -51 8 -5 10 -9 5
-9 -6 0 -2 -6 8 -13 21 -16 66 -11 61 7 -14 48 -15 65 -1 60 11 -4 14 1 13 20
-2 26 15 38 21 14 2 -9 0 -8 -7 2 -6 8 -11 10 -11 5 0 -6 9 -18 20 -28 11 -9
20 -12 20 -6 0 6 7 8 16 5 14 -5 15 -4 4 9 -7 9 -10 18 -6 22 3 3 6 1 6 -6 0
-7 6 -11 14 -8 9 4 15 -5 19 -29 3 -19 13 -41 21 -49 13 -13 14 -11 11 25 -2
22 1 43 7 46 6 4 8 3 5 -3 -4 -6 0 -19 8 -29 18 -24 19 -37 3 -29 -7 4 -4 -1
7 -9 11 -9 20 -29 21 -44 1 -36 37 -39 42 -3 3 18 0 22 -12 18 -9 -4 -16 -2
-16 3 0 6 6 10 13 10 8 0 8 3 -2 9 -8 5 -11 16 -8 24 3 8 -1 24 -9 36 -8 11
-13 21 -9 21 3 0 -2 14 -10 30 -17 33 -13 50 13 51 11 0 12 3 5 6 -7 2 -13 16
-13 30 0 25 11 25 16 0 13 -62 14 -71 4 -57 -6 9 -10 10 -10 3 0 -6 4 -14 10
-18 5 -3 6 -13 3 -23 -3 -9 -3 -14 2 -10 4 4 16 -2 26 -14 16 -18 19 -19 19
-4 0 10 -5 26 -10 37 -8 15 -7 19 5 19 8 0 15 4 15 10 0 5 -5 9 -11 7 -6 -1
-14 4 -17 12 -2 8 0 11 6 7 17 -10 25 27 8 40 -18 13 -20 42 -6 64 8 12 10 11
10 -7 0 -13 8 -31 18 -41 12 -12 17 -33 17 -74 0 -31 4 -54 8 -51 5 3 7 -1 6
-8 -3 -20 19 -69 31 -69 5 0 10 -4 10 -10 0 -5 -6 -9 -12 -7 -15 2 -12 -51 3
-69 5 -6 6 -13 3 -17 -3 -3 -6 -33 -6 -66 -1 -60 -1 -61 -26 -54 l-25 6 23
-23 c15 -15 19 -25 12 -28 -7 -2 -12 -11 -12 -20 0 -14 2 -15 10 -2 5 8 12 11
16 7 4 -4 12 0 18 8 6 7 17 15 25 17 8 2 23 12 35 22 14 14 21 16 24 7 7 -22
-8 -61 -24 -61 -9 0 -12 -5 -8 -12 5 -7 2 -9 -9 -5 -11 4 -14 2 -10 -9 3 -7 9
-14 14 -14 5 0 8 -4 6 -9 -3 -12 42 -51 60 -51 7 0 13 -7 13 -15 0 -15 12 -20
22 -9 3 3 2 20 -2 38 -7 30 -5 33 14 29 19 -4 20 -3 4 10 -15 12 -16 16 -3 33
8 10 15 16 16 12 1 -5 2 -11 3 -15 1 -5 5 -13 9 -20 4 -7 -1 -18 -13 -26 -17
-12 -18 -15 -6 -20 9 -4 13 -12 10 -20 -3 -8 3 -20 13 -28 16 -13 17 -12 4 3
-9 12 -10 18 -2 18 6 0 11 7 11 16 0 9 8 23 18 30 16 13 16 14 -3 8 -18 -5
-18 -5 -2 6 9 6 14 17 11 23 -4 7 3 2 15 -10 25 -26 36 -29 28 -9 -3 8 9 27
26 43 18 16 38 39 45 52 13 22 12 23 -3 17 -15 -5 -16 -4 -5 9 7 8 17 12 24 8
6 -4 17 -8 24 -9 18 -3 29 -14 14 -14 -7 0 -12 -5 -12 -12 0 -6 3 -8 7 -5 3 4
12 -1 20 -11 11 -13 13 -13 10 -2 -2 8 0 23 5 34 7 14 7 16 -2 11 -9 -6 -9 -3
-1 13 14 26 14 35 1 27 -5 -3 -10 -1 -10 4 0 6 4 11 9 11 12 0 32 -26 26 -32
-3 -3 6 -3 20 0 17 3 24 9 21 18 -3 8 1 14 10 14 11 0 14 -6 10 -16 -3 -8 -2
-12 4 -9 6 3 10 -1 10 -9 0 -8 -4 -18 -10 -21 -5 -3 -10 -2 -10 3 0 5 -6 9
-13 9 -9 0 -14 -11 -13 -31 1 -17 -6 -36 -14 -43 -13 -10 -12 -11 5 -10 11 1
23 9 27 17 5 11 7 9 7 -7 1 -13 6 -23 11 -23 6 0 10 -7 10 -15 0 -8 5 -15 12
-15 6 0 8 -3 5 -6 -4 -4 -12 -2 -20 4 -10 8 -13 7 -13 -7 0 -12 6 -17 18 -13
12 3 18 -1 18 -11 0 -12 4 -13 24 -4 14 7 21 14 17 17 -5 3 1 14 12 25 11 11
17 15 13 8 -3 -6 -2 -14 3 -17 5 -4 8 6 6 20 -1 15 3 28 11 31 8 3 12 8 9 13
-2 4 2 16 10 26 11 13 15 15 13 4 -2 -8 -7 -18 -13 -22 -6 -5 -5 -8 3 -8 7 0
10 -6 7 -12 -4 -7 3 -2 14 12 11 14 21 31 21 38 0 14 20 17 20 2 0 -5 5 -10
11 -10 5 0 7 4 4 10 -3 5 1 20 10 32 16 23 16 23 12 -10 -6 -36 5 -42 26 -12
8 11 16 17 19 15 3 -3 8 3 11 14 3 15 1 18 -11 14 -10 -4 -13 -2 -8 5 4 7 13
12 21 12 8 0 16 4 19 9 4 5 -3 7 -14 4 -11 -3 -20 0 -20 6 0 6 4 11 9 11 5 0
7 14 5 30 -4 21 -1 32 10 36 9 3 16 11 16 16 0 6 -6 6 -14 -1 -23 -19 -26 9
-4 49 10 19 18 45 18 57 0 12 3 24 8 26 10 7 9 -65 -2 -82 -6 -9 -5 -12 2 -8
6 5 8 -1 5 -14 -5 -17 -2 -20 18 -17 14 2 25 11 27 23 7 33 22 47 38 34 13
-11 18 -6 15 14 0 4 4 7 10 7 6 0 8 7 5 16 -4 11 -2 15 8 11 8 -3 20 1 27 9 6
8 15 12 18 9 3 -4 -5 -15 -19 -27 -14 -11 -20 -17 -13 -14 18 10 21 -15 5 -47
-12 -25 -12 -31 -1 -38 11 -7 10 -9 -5 -9 -15 0 -16 -3 -7 -14 7 -9 8 -17 2
-20 -5 -3 -7 -15 -4 -26 3 -11 10 -17 16 -13 7 4 20 8 30 8 16 2 16 0 -3 -20
-22 -24 -16 -42 7 -20 22 22 34 18 27 -9 -3 -13 -1 -27 5 -30 11 -7 15 5 12
34 -1 11 2 11 13 -3 8 -10 17 -18 20 -18 24 3 27 0 15 -16 -12 -16 -11 -16 8
0 24 20 31 14 29 -24 -1 -21 2 -25 19 -21 19 5 19 5 2 -22 -24 -36 -17 -43 13
-11 27 29 60 33 60 8 0 -22 20 -3 24 23 2 11 8 19 15 19 7 0 18 8 25 17 7 10
15 15 18 12 6 -5 56 37 138 115 18 18 50 54 70 80 46 62 100 124 105 120 4 -5
-62 -115 -97 -160 -30 -38 -34 -49 -18 -49 6 0 10 7 10 16 0 8 5 12 10 9 6 -3
10 2 11 12 0 12 2 13 6 5 3 -7 -4 -23 -15 -35 -15 -16 -18 -27 -12 -37 7 -10
10 -11 10 -2 0 6 5 12 11 12 5 0 7 -4 4 -10 -3 -5 0 -7 9 -4 8 3 19 20 25 37
l11 32 -20 -24 c-11 -13 -20 -19 -20 -13 0 6 7 17 15 24 36 33 50 43 60 44 29
1 55 17 55 34 0 10 7 20 15 24 8 3 15 11 15 18 0 16 39 42 48 33 4 -3 0 -10
-8 -15 -8 -5 -12 -11 -9 -14 9 -9 25 8 81 84 30 42 63 81 72 89 14 12 16 10
14 -14 -2 -17 -13 -36 -30 -48 -15 -11 -30 -27 -33 -35 -5 -13 -3 -13 13 1 10
9 22 14 25 11 4 -4 11 5 16 20 6 14 17 26 25 26 15 0 40 26 42 44 0 6 2 22 2
36 2 19 5 21 14 12 18 -18 33 -14 48 13 7 14 16 23 18 20 8 -8 32 16 27 26 -3
4 4 13 15 19 11 6 18 15 15 21 -4 5 -2 9 3 9 6 0 32 29 58 64 27 35 63 72 79
82 27 16 29 16 16 1 -9 -11 -10 -17 -2 -17 11 0 15 12 12 42 -3 29 25 71 48
73 17 1 21 -3 19 -19 -2 -12 -9 -20 -15 -19 -6 1 -14 -9 -18 -24 -7 -28 -104
-183 -154 -247 -17 -21 -31 -44 -31 -52 0 -8 -5 -23 -12 -34 -7 -10 -10 -22
-7 -25 11 -10 39 7 39 24 0 9 16 26 34 38 19 12 51 47 71 78 20 30 41 55 46
55 5 0 9 6 9 13 0 8 9 22 20 32 11 10 17 21 15 26 -3 4 3 14 14 21 11 8 21 20
23 28 2 8 15 28 31 45 15 16 30 38 33 48 3 9 10 17 15 17 6 0 8 4 5 9 -4 5 -1
11 4 13 6 2 12 11 14 21 1 9 12 26 24 38 12 11 20 24 17 30 -4 5 -1 9 5 9 6 0
8 5 5 10 -3 6 -2 10 3 10 8 0 59 96 105 200 40 88 100 309 102 370 0 8 3 20 6
25 9 13 24 115 21 138 -1 9 2 17 7 17 6 0 10 8 10 18 0 9 10 89 21 177 20 149
21 196 17 680 -4 463 -12 634 -33 735 -10 46 -24 -3 -31 -105 -3 -52 -9 -95
-13 -95 -18 0 -25 230 -10 345 5 39 11 138 15 222 5 128 2 173 -16 280 -21
129 -80 330 -103 348 -6 6 -13 28 -15 50 -6 75 -125 246 -222 318 -37 28 -50
33 -48 20 4 -22 -4 -23 -36 -3 -44 27 -45 15 -2 -21 28 -25 29 -28 12 -29 -12
0 -27 6 -34 13 -10 9 -15 9 -18 0 -2 -7 -12 -9 -21 -6 -12 5 -11 -2 8 -33 20
-33 21 -37 4 -23 -10 9 -28 19 -38 23 -19 6 -19 6 -3 -12 25 -28 21 -34 -13
-17 -45 23 -47 18 -4 -20 24 -21 33 -34 24 -35 -9 0 -22 6 -29 13 -12 10 -13
8 -7 -8 4 -13 -3 -8 -19 13 -15 17 -31 32 -37 32 -6 0 0 -9 13 -21 16 -14 19
-19 7 -15 -9 3 -18 0 -21 -7 -3 -9 -11 -9 -33 1 l-29 14 23 -22 c12 -11 22
-25 22 -30 0 -6 6 -10 13 -10 6 0 25 -14 42 -31 29 -31 29 -32 5 -24 -14 4
-33 14 -42 23 -19 16 -25 3 -8 -14 19 -19 -16 -39 -44 -26 -23 10 -23 9 -16
-16 4 -15 12 -26 19 -25 14 4 14 1 1 -33 -7 -18 -7 -30 0 -39 14 -16 -39 -28
-58 -13 -7 6 -15 8 -19 4 -3 -3 -1 -6 5 -6 7 0 12 -7 12 -15 0 -11 -8 -10 -37
7 -30 17 -35 19 -24 5 7 -9 19 -17 25 -17 21 -1 56 -47 49 -66 -5 -14 -2 -16
15 -12 12 4 20 2 17 -2 -8 -14 -66 -8 -72 6 -3 8 -9 11 -15 8 -5 -3 -4 -11 3
-20 9 -11 8 -14 -2 -14 -8 0 1 -14 19 -31 35 -33 41 -49 17 -49 -8 0 -14 6
-12 12 1 9 -11 12 -35 12 -21 -1 -35 2 -33 6 3 5 -4 6 -15 3 -12 -3 -20 0 -20
6 0 7 -5 9 -10 6 -6 -4 -7 -11 -4 -17 5 -8 1 -9 -11 -4 -16 6 -16 4 -4 -11 8
-10 18 -21 22 -24 5 -3 2 -9 -7 -12 -10 -4 -26 4 -40 18 -26 26 -46 32 -46 14
0 -5 -6 -7 -12 -3 -13 8 10 -26 25 -37 4 -3 10 -19 13 -35 3 -16 13 -37 22
-48 17 -19 17 -19 -15 -1 -35 21 -40 30 -20 39 6 3 0 3 -14 0 -15 -3 -30 -1
-33 5 -8 12 -46 34 -46 27 0 -3 10 -14 22 -26 12 -11 18 -20 13 -20 -5 0 4
-15 21 -32 16 -18 22 -27 14 -20 -8 6 -29 12 -47 12 -35 0 -49 11 -108 85 -16
21 -39 48 -51 59 -11 12 -29 36 -39 54 -11 17 -23 32 -27 32 -5 0 -13 11 -17
23 -5 13 -25 31 -45 41 -19 9 -38 21 -41 26 -4 6 -11 8 -16 5 -9 -6 -34 18
-74 68 -10 14 -23 23 -27 21 -4 -3 -13 4 -20 16 -16 26 -28 26 -21 0 3 -12 0
-20 -6 -20 -7 0 -10 3 -8 8 2 4 -2 21 -9 37 -9 20 -13 24 -14 12 0 -10 -6 -17
-12 -15 -8 3 -12 19 -10 43 3 34 2 37 -17 32 -14 -3 -21 0 -21 9 0 8 -6 14
-14 14 -8 0 -17 14 -21 30 -4 20 -14 32 -30 36 -13 3 -29 18 -35 35 -7 16 -16
29 -21 29 -5 0 -6 8 -2 18 3 9 3 14 -2 10 -10 -10 -47 11 -40 22 7 12 -26 51
-37 44 -5 -3 -34 19 -64 49 -30 31 -54 53 -54 49 0 -15 -29 35 -30 51 0 9 -4
17 -8 17 -9 0 -38 108 -34 124 8 28 -43 47 -66 24z m393 -488 c-3 -5 -3 -16 2
-22 4 -7 8 -16 8 -19 0 -12 33 -38 41 -31 4 4 -2 -6 -15 -22 -20 -28 -50 -43
-52 -28 -6 46 -5 110 3 120 12 14 22 16 13 2z m1070 -50 c3 -6 -1 -7 -9 -4
-18 7 -21 14 -7 14 6 0 13 -4 16 -10z m-945 -114 c0 -3 -4 -8 -10 -11 -5 -3
-10 -1 -10 4 0 6 5 11 10 11 6 0 10 -2 10 -4z m80 -96 c0 -5 -5 -10 -11 -10
-5 0 -7 5 -4 10 3 6 8 10 11 10 2 0 4 -4 4 -10z m750 -51 c0 -6 -4 -7 -10 -4
-5 3 -10 11 -10 16 0 6 5 7 10 4 6 -3 10 -11 10 -16z m-40 -89 c0 -5 -2 -10
-4 -10 -3 0 -8 5 -11 10 -3 6 -1 10 4 10 6 0 11 -4 11 -10z m-1676 -172 c-9
-14 -23 2 -17 18 4 12 8 13 14 3 4 -7 5 -17 3 -21z m-84 -468 c0 -5 -2 -10 -4
-10 -3 0 -8 5 -11 10 -3 6 -1 10 4 10 6 0 11 -4 11 -10z m-89 -119 c-7 -5 -10
-14 -7 -20 8 -12 -4 -14 -29 -5 -14 6 -13 8 5 21 16 11 19 18 11 26 -21 21
-11 27 11 7 18 -17 20 -23 9 -29z m-61 15 c0 -2 -7 -6 -15 -10 -8 -3 -15 -1
-15 4 0 6 7 10 15 10 8 0 15 -2 15 -4z m120 -22 c0 -14 4 -23 9 -20 5 3 11 -1
15 -9 8 -22 -8 -26 -25 -7 -17 21 -23 62 -9 62 6 0 10 -12 10 -26z m-114 -41
c-3 -4 -6 -1 -6 6 0 7 -4 9 -10 6 -6 -4 -7 1 -3 11 6 15 7 15 15 -1 6 -9 7
-19 4 -22z m84 -1 c0 -4 -11 -12 -25 -19 -29 -13 -35 3 -8 23 17 12 33 10 33
-4z m39 -14 c24 -15 16 -52 -10 -45 -19 5 -33 -17 -23 -36 3 -7 -2 -3 -10 7
-12 14 -13 23 -5 33 6 7 8 13 5 13 -4 0 -2 9 4 20 12 23 14 24 39 8z m-2589
-8 c0 -5 -4 -10 -10 -10 -5 0 -10 5 -10 10 0 6 5 10 10 10 6 0 10 -4 10 -10z
m2523 -41 c4 -15 2 -19 -8 -15 -8 3 -17 1 -20 -4 -3 -4 1 -11 7 -13 8 -3 6 -6
-4 -6 -10 -1 -18 4 -18 10 0 8 -5 7 -15 -1 -11 -9 -14 -22 -9 -46 4 -22 2 -34
-5 -34 -11 0 -15 13 -12 37 1 6 -3 14 -9 18 -19 12 -10 33 16 39 15 4 33 14
41 21 20 20 30 19 36 -6z m-2537 -16 c-3 -16 -10 -54 -16 -87 -7 -32 -16 -54
-20 -50 -14 15 21 164 37 164 3 0 2 -12 -1 -27z m2300 -172 c-4 -5 0 -12 6
-14 8 -3 6 -6 -4 -6 -18 -1 -24 10 -11 22 9 10 15 8 9 -2z m-61 -181 c3 -6 -1
-7 -9 -4 -18 7 -21 14 -7 14 6 0 13 -4 16 -10z m-125 -260 c0 -5 -5 -10 -11
-10 -5 0 -7 5 -4 10 3 6 8 10 11 10 2 0 4 -4 4 -10z m42 -32 c-7 -7 -12 -8
-12 -2 0 14 12 26 19 19 2 -3 -1 -11 -7 -17z m-38 -63 c16 -41 16 -46 2 -61
-15 -14 -16 -14 -16 0 0 9 6 16 13 16 7 1 3 8 -9 18 -11 10 -19 23 -16 30 2 6
-1 12 -7 12 -6 0 -8 7 -5 15 10 25 21 17 38 -30z m-2710 -14 c3 -5 -1 -11 -9
-14 -9 -4 -12 -1 -8 9 6 16 10 17 17 5z m-47 -33 c-3 -8 -6 -5 -6 6 -1 11 2
17 5 13 3 -3 4 -12 1 -19z m2803 -44 c0 -2 -9 0 -20 6 -11 6 -20 13 -20 16 0
2 9 0 20 -6 11 -6 20 -13 20 -16z m-66 -19 c-4 -8 -7 -15 -9 -15 -2 0 -5 7 -9
15 -3 9 0 15 9 15 9 0 12 -6 9 -15z m-34 -9 c0 -3 -4 -8 -10 -11 -5 -3 -10 -1
-10 4 0 6 5 11 10 11 6 0 10 -2 10 -4z m-2743 -38 c-3 -8 -6 -5 -6 6 -1 11 2
17 5 13 3 -3 4 -12 1 -19z m2713 -8 c0 -5 -4 -10 -10 -10 -5 0 -10 5 -10 10 0
6 5 10 10 10 6 0 10 -4 10 -10z m-1055 -90 c3 -5 -3 -10 -15 -10 -12 0 -18 5
-15 10 3 6 10 10 15 10 5 0 12 -4 15 -10z m-15 -60 c0 -5 -2 -10 -4 -10 -3 0
-8 5 -11 10 -3 6 -1 10 4 10 6 0 11 -4 11 -10z m1020 -35 c0 -5 -5 -3 -10 5
-5 8 -10 20 -10 25 0 6 5 3 10 -5 5 -8 10 -19 10 -25z m-67 -65 c3 -11 2 -20
-3 -20 -4 0 -10 9 -13 20 -3 11 -2 20 3 20 4 0 10 -9 13 -20z m-1141 -32 c-9
-9 -12 -7 -12 12 0 19 3 21 12 12 9 -9 9 -15 0 -24z m-2 -38 c0 -5 -5 -10 -11
-10 -5 0 -7 5 -4 10 3 6 8 10 11 10 2 0 4 -4 4 -10z m1455 0 c3 -5 1 -10 -4
-10 -6 0 -11 5 -11 10 0 6 2 10 4 10 3 0 8 -4 11 -10z m-381 -26 c18 -17 21
-44 6 -44 -5 0 -10 7 -10 15 0 9 -7 18 -15 21 -16 7 -21 24 -6 24 5 0 17 -7
25 -16z m-1178 -31 c-3 -23 -15 -44 -17 -27 0 5 -2 18 -4 30 -3 13 1 21 9 21
9 0 13 -9 12 -24z m1059 17 c3 -5 1 -10 -4 -10 -6 0 -11 5 -11 10 0 6 2 10 4
10 3 0 8 -4 11 -10z m-1639 -96 c-9 -23 -26 -16 -26 12 0 14 4 23 10 19 6 -3
11 0 11 7 1 7 3 5 6 -5 3 -10 2 -25 -1 -33z m494 5 c0 -5 -7 -9 -15 -9 -15 0
-20 12 -9 23 8 8 24 -1 24 -14z m578 -47 c-14 -36 -33 -45 -22 -10 6 20 26 48
31 44 2 -1 -3 -17 -9 -34z m-533 18 c3 -6 -1 -7 -9 -4 -18 7 -21 14 -7 14 6 0
13 -4 16 -10z m484 -38 c-6 -18 -15 -32 -21 -32 -5 0 -7 4 -4 9 4 5 1 11 -6
13 -13 5 4 43 19 43 4 0 7 5 5 10 -2 6 1 6 7 -1 8 -7 8 -19 0 -42z m-1019 23
c4 3 6 -5 2 -17 -5 -21 -6 -21 -13 -2 -4 10 -8 24 -8 29 1 6 3 4 6 -3 2 -6 8
-10 13 -7z m487 9 c-3 -3 -12 -4 -19 -1 -8 3 -5 6 6 6 11 1 17 -2 13 -5z
m-107 -74 c0 -5 -5 -10 -11 -10 -5 0 -7 5 -4 10 3 6 8 10 11 10 2 0 4 -4 4
-10z m1275 0 c3 -5 1 -10 -4 -10 -6 0 -11 5 -11 10 0 6 2 10 4 10 3 0 8 -4 11
-10z m-1636 -55 c-13 -13 -16 -12 -27 6 -9 13 -9 18 -2 14 7 -4 14 2 17 16 l6
23 10 -22 c8 -17 7 -27 -4 -37z m454 22 c-4 -6 -6 -41 -5 -77 1 -49 -1 -61 -9
-47 -5 9 -8 21 -5 26 3 4 -1 16 -8 26 -11 16 -11 21 0 33 8 7 11 18 8 23 -9
14 4 41 16 34 6 -4 7 -12 3 -18z m39 -89 c-9 -9 -12 -7 -12 12 0 19 3 21 12
12 9 -9 9 -15 0 -24z m448 -3 c0 -14 -4 -25 -9 -25 -4 0 -6 11 -3 25 2 14 6
25 8 25 2 0 4 -11 4 -25z m-950 -175 c0 -5 -4 -10 -10 -10 -5 0 -10 5 -10 10
0 6 5 10 10 10 6 0 10 -4 10 -10z m0 -90 c8 -15 8 -20 -3 -20 -7 0 -13 9 -13
20 0 11 1 20 3 20 1 0 7 -9 13 -20z m-129 -83 c-10 -9 -11 -8 -5 6 3 10 9 15
12 12 3 -3 0 -11 -7 -18z m1539 -47 c0 -5 -4 -10 -10 -10 -5 0 -10 5 -10 10 0
6 5 10 10 10 6 0 10 -4 10 -10z m20 -26 c0 -8 -19 -13 -24 -6 -3 5 1 9 9 9 8
0 15 -2 15 -3z m-25 -122 c-3 -3 -11 0 -18 7 -9 10 -8 11 6 5 10 -3 15 -9 12
-12z m-1985 -152 c0 -5 -5 -10 -11 -10 -5 0 -7 5 -4 10 3 6 8 10 11 10 2 0 4
-4 4 -10z m407 -12 c-3 -8 -6 -5 -6 6 -1 11 2 17 5 13 3 -3 4 -12 1 -19z m583
-59 c11 -20 11 -20 -14 -4 -30 20 -32 25 -11 25 8 0 19 -9 25 -21z m-473 -31
c-3 -8 -6 -5 -6 6 -1 11 2 17 5 13 3 -3 4 -12 1 -19z m503 1 c0 -4 -4 -10 -10
-14 -6 -4 -6 -15 1 -32 5 -14 7 -28 5 -30 -8 -8 -27 8 -21 18 4 5 1 9 -6 9 -6
0 -9 8 -6 20 3 10 0 18 -5 17 -6 -1 -12 3 -15 10 -3 7 7 11 26 11 17 -1 31 -5
31 -9z m4176 -87 c-18 -16 -18 -16 -6 6 6 13 14 21 18 18 3 -4 -2 -14 -12 -24z
m-4654 -32 c0 -20 4 -30 13 -30 11 0 12 -6 5 -25 -6 -16 -6 -26 1 -31 8 -4 7
-9 -2 -15 -10 -6 -10 -9 -2 -9 6 0 10 -9 8 -20 -2 -11 0 -22 6 -25 5 -4 9 -22
9 -41 0 -22 6 -37 15 -40 8 -4 15 -10 15 -16 0 -5 -4 -7 -9 -4 -4 3 -6 -6 -3
-21 3 -16 1 -24 -5 -20 -6 4 -14 27 -17 51 -5 30 -12 45 -25 49 -12 3 -21 19
-26 48 -4 24 -9 47 -10 52 -1 4 -3 21 -4 38 0 16 -5 28 -10 25 -5 -4 -7 3 -4
14 8 30 23 13 23 -25 0 -19 4 -36 8 -39 4 -2 6 26 4 62 -2 37 -1 64 3 60 5 -4
8 -21 7 -38z m538 -15 c0 -3 -5 -3 -11 1 -7 4 -7 -1 1 -16 9 -17 14 -20 20 -9
6 9 11 4 15 -17 4 -16 9 -36 12 -44 3 -8 7 -26 8 -38 2 -23 1 -22 -22 7 -14
17 -28 29 -33 26 -14 -9 -30 19 -20 35 15 23 12 30 -10 30 -11 0 -20 3 -21 8
0 4 -2 15 -4 25 -3 14 1 16 17 11 17 -5 20 -3 14 12 -6 16 -4 15 13 -3 12 -12
21 -25 21 -28z m-570 31 c0 -2 -7 -6 -15 -10 -8 -3 -15 -1 -15 4 0 6 7 10 15
10 8 0 15 -2 15 -4z m1510 -212 c0 -8 -4 -14 -9 -14 -11 0 -22 26 -14 34 9 9
23 -3 23 -20z m84 -170 c7 -19 2 -18 -19 6 -16 17 -16 20 -3 15 9 -4 19 -13
22 -21z m2676 -4 c0 -5 -4 -10 -10 -10 -5 0 -10 5 -10 10 0 6 5 10 10 10 6 0
10 -4 10 -10z m-1956 -117 c-3 -39 -4 -40 -14 -21 -6 9 -7 23 -4 32 10 25 20
19 18 -11z m-284 -14 c0 -6 -4 -7 -10 -4 -5 3 -10 11 -10 16 0 6 5 7 10 4 6
-3 10 -11 10 -16z m1287 2 c0 -11 -5 -18 -9 -15 -4 3 -5 11 -1 19 7 21 12 19
10 -4z m-2677 -7 c0 -8 -5 -12 -10 -9 -6 4 -8 11 -5 16 9 14 15 11 15 -7z
m3484 2 c-5 -13 -34 -31 -34 -21 0 5 30 35 35 35 3 0 2 -6 -1 -14z m-3884 -30
c0 -12 5 -27 12 -34 9 -9 9 -15 1 -23 -10 -10 -12 -4 -29 79 -1 6 2 10 7 6 5
-3 9 -15 9 -28z m1881 4 c5 0 9 -7 9 -15 0 -15 -20 -22 -20 -7 0 4 -2 16 -4
27 -2 11 -1 14 1 8 3 -7 9 -13 14 -13z m206 -42 c-3 -8 -6 -5 -6 6 -1 11 2 17
5 13 3 -3 4 -12 1 -19z m1643 2 c0 -5 -5 -10 -11 -10 -5 0 -7 5 -4 10 3 6 8
10 11 10 2 0 4 -4 4 -10z m-3235 -18 c-3 -3 -11 0 -18 7 -9 10 -8 11 6 5 10
-3 15 -9 12 -12z m3259 -21 c-14 -28 -60 -53 -51 -28 3 7 10 11 16 10 6 -2 11
1 11 6 0 9 27 41 35 41 2 0 -3 -13 -11 -29z m-574 -15 c0 -11 -19 -15 -25 -6
-3 5 1 10 9 10 9 0 16 -2 16 -4z m-997 -61 c-3 -9 -8 -14 -10 -11 -3 3 -2 9 2
15 9 16 15 13 8 -4z m920 0 c-3 -9 -8 -14 -10 -11 -3 3 -2 9 2 15 9 16 15 13
8 -4z m-523 -19 c0 -2 -7 -7 -16 -10 -8 -3 -12 -2 -9 4 6 10 25 14 25 6z m-80
-60 c0 -3 -4 -8 -10 -11 -5 -3 -10 -1 -10 4 0 6 5 11 10 11 6 0 10 -2 10 -4z
m56 -8 c4 -7 3 -8 -4 -4 -7 4 -12 2 -12 -4 0 -6 -5 -8 -10 -5 -11 7 -4 25 10
25 5 0 12 -5 16 -12z m669 2 c-3 -5 -12 -10 -18 -10 -7 0 -6 4 3 10 19 12 23
12 15 0z m-2201 -15 c3 -8 2 -15 -3 -15 -5 0 -14 7 -21 15 -10 12 -10 15 3 15
8 0 17 -7 21 -15z m-859 -5 c3 -5 2 -10 -4 -10 -5 0 -13 5 -16 10 -3 6 -2 10
4 10 5 0 13 -4 16 -10z m2127 -29 c8 12 9 12 6 0 -8 -28 -28 -24 -27 6 2 26 2
26 6 4 4 -19 7 -21 15 -10z m1123 19 c-3 -5 -11 -10 -16 -10 -6 0 -7 5 -4 10
3 6 11 10 16 10 6 0 7 -4 4 -10z m-1244 -33 c-13 -13 -26 -3 -16 12 3 6 11 8
17 5 6 -4 6 -10 -1 -17z m169 13 c0 -5 -5 -10 -11 -10 -5 0 -7 5 -4 10 3 6 8
10 11 10 2 0 4 -4 4 -10z m1007 -25 c-7 -15 -20 -25 -32 -25 -12 0 -27 -6 -34
-12 -10 -11 -11 -10 -6 3 4 11 67 57 82 59 0 0 -4 -11 -10 -25z m-707 2 c0 -8
-7 -14 -15 -14 -11 0 -12 4 -4 14 6 7 13 13 15 13 2 0 4 -6 4 -13z m61 -30
c-6 -8 -9 -16 -6 -19 3 -3 -2 -11 -12 -19 -15 -12 -16 -12 -8 1 10 15 11 20
14 40 0 6 6 10 12 10 8 0 9 -4 0 -13z m-488 -73 c-7 -20 -10 -18 -15 11 -4 20
-2 23 8 14 7 -6 10 -17 7 -25z m-1797 0 c1 -9 0 -13 -4 -10 -3 4 -7 14 -8 22
-1 9 0 13 4 10 3 -4 7 -14 8 -22z m-31 7 c3 -5 2 -12 -3 -15 -5 -3 -9 1 -9 9
0 17 3 19 12 6z m73 -53 c-2 -6 -11 -12 -20 -14 -11 -1 -15 3 -11 12 6 17 36
19 31 2z m37 -40 c1 -10 -5 -18 -12 -18 -8 0 -11 5 -8 10 3 6 2 10 -4 10 -5 0
-8 8 -6 18 2 9 4 22 5 27 1 15 24 -27 25 -47z m-377 -3 c-3 -3 -9 2 -12 12 -6
14 -5 15 5 6 7 -7 10 -15 7 -18z"/>
<path d="M2811 4598 c0 -7 4 -22 9 -33 7 -16 9 -14 7 13 -1 17 -5 32 -9 32 -4
0 -8 -6 -7 -12z"/>
<path d="M3330 4660 c0 -5 5 -10 11 -10 5 0 7 5 4 10 -3 6 -8 10 -11 10 -2 0
-4 -4 -4 -10z"/>
<path d="M5651 8781 c-28 -26 -29 -28 -9 -24 13 2 28 15 35 29 14 30 13 30
-26 -5z"/>
<path d="M5623 8743 c-19 -7 -16 -20 7 -26 13 -3 24 1 30 14 9 15 7 19 -7 18
-10 0 -24 -3 -30 -6z"/>
<path d="M5682 8695 c0 -16 2 -22 5 -12 2 9 2 23 0 30 -3 6 -5 -1 -5 -18z"/>
<path d="M5624 8667 c-8 -21 2 -35 16 -21 5 5 6 15 0 24 -8 12 -10 12 -16 -3z"/>
<path d="M5660 8634 c0 -8 5 -12 10 -9 6 3 10 10 10 16 0 5 -4 9 -10 9 -5 0
-10 -7 -10 -16z"/>
<path d="M3935 8460 c-3 -6 1 -7 9 -4 18 7 21 14 7 14 -6 0 -13 -4 -16 -10z"/>
<path d="M3976 8461 c-4 -5 7 -12 24 -16 29 -6 52 -25 30 -25 -7 0 -6 -5 2
-14 7 -8 16 -12 21 -9 4 2 7 2 7 -1 0 -2 -21 -18 -47 -35 -59 -37 -83 -56 -83
-65 0 -4 21 9 46 29 47 35 74 44 74 25 0 -5 -6 -10 -13 -10 -19 0 -49 -38 -34
-44 8 -3 4 -12 -10 -24 -28 -25 -30 -36 -3 -22 16 9 18 8 14 -5 -4 -8 -10 -15
-15 -15 -5 0 -9 -9 -9 -21 l0 -20 29 20 c51 37 58 18 11 -28 -26 -25 -28 -30
-14 -35 10 -4 21 -1 25 5 4 6 11 9 17 5 6 -3 14 -1 19 6 4 7 17 18 28 25 11 6
19 16 18 22 -2 6 4 8 13 4 13 -5 11 -9 -8 -30 -13 -14 -35 -34 -50 -45 -26
-18 -27 -18 -21 -1 4 12 -8 6 -38 -19 -30 -25 -43 -43 -42 -57 3 -23 -12 -29
-21 -8 -3 6 -4 3 -1 -9 5 -19 -2 -31 -47 -84 -7 -8 -12 -18 -10 -23 1 -5 -2
-6 -7 -2 -6 3 -15 -4 -22 -16 -10 -20 -9 -21 10 -16 19 5 20 3 9 -11 -10 -12
-10 -14 0 -8 7 4 12 2 12 -6 0 -7 6 -2 14 12 8 16 9 29 3 38 -6 8 -6 12 2 12
6 0 11 -5 11 -11 0 -6 7 -8 16 -5 10 4 13 2 8 -7 -5 -8 -2 -7 9 2 9 7 17 21
17 30 0 14 2 14 10 1 5 -9 5 -19 -1 -26 -8 -9 -5 -11 10 -7 12 3 21 12 21 19
0 8 4 14 10 14 5 0 6 7 3 17 -4 11 -3 14 5 9 7 -4 10 -17 6 -32 -4 -14 -2 -24
5 -24 6 0 11 7 11 15 0 24 30 65 49 65 9 0 25 8 36 17 19 15 19 15 1 9 -19 -7
-20 -6 -1 14 10 11 24 19 31 16 8 -3 11 1 7 10 -4 10 1 13 17 12 17 -2 23 3
26 20 5 30 -7 28 -42 -8 -16 -16 -33 -29 -39 -30 -5 0 12 21 39 46 34 33 51
42 56 34 6 -9 9 -8 13 6 5 18 5 18 6 0 1 -14 4 -16 14 -8 10 8 13 6 13 -8 0
-10 -4 -16 -8 -14 -4 3 -8 -1 -8 -10 0 -21 23 -26 36 -8 10 13 11 12 10 -7 0
-12 -8 -26 -16 -31 -9 -6 -10 -10 -3 -10 7 0 10 -7 6 -17 -4 -10 -2 -14 5 -9
6 3 13 -3 17 -15 5 -13 12 -18 22 -14 13 4 14 3 3 -10 -7 -8 -9 -15 -5 -15 4
0 1 -7 -6 -17 -12 -14 -12 -16 1 -11 8 3 14 13 14 22 -1 9 2 16 7 16 35 0 -42
-90 -121 -142 -19 -13 -44 -42 -55 -65 -11 -24 -24 -43 -30 -43 -13 -1 -65
-46 -65 -58 0 -5 7 -9 15 -9 8 0 12 3 10 7 -5 8 26 35 41 35 14 0 74 51 74 64
0 6 7 8 15 5 8 -4 17 1 21 10 3 9 11 16 18 16 14 1 56 35 56 47 0 5 9 9 20 10
12 1 18 -3 14 -9 -6 -9 33 12 64 36 7 5 30 11 50 13 20 2 42 9 49 14 6 6 22 7
34 4 20 -7 20 -8 5 -17 -9 -5 -14 -13 -11 -19 4 -5 -1 -9 -10 -9 -9 0 -13 -5
-9 -11 3 -6 17 -8 31 -4 14 3 22 2 20 -2 -3 -5 3 -9 14 -9 18 0 24 9 20 30 -1
5 4 4 12 -2 8 -7 17 -9 20 -5 4 3 7 1 7 -5 0 -14 -17 -25 -23 -15 -2 5 -2 2
-1 -4 2 -7 -1 -13 -6 -13 -5 0 -8 -9 -7 -20 1 -17 12 -19 12 -2 0 4 16 24 35
45 49 54 90 117 90 138 0 29 -11 48 -25 43 -8 -4 -15 8 -20 32 -14 75 -71 154
-112 154 -7 0 -25 7 -38 16 -22 15 -27 15 -47 1 -13 -8 -34 -37 -48 -63 -14
-27 -26 -51 -28 -53 -7 -12 -55 28 -67 55 -12 30 -154 154 -175 154 -5 0 -11
8 -14 18 -3 9 -23 25 -43 34 -21 8 -63 32 -93 52 -58 38 -66 41 -74 27z m64
-186 c-7 -9 -15 -13 -19 -10 -3 3 1 10 9 15 21 14 24 12 10 -5z m65 -15 c-10
-11 -25 -20 -34 -20 -11 1 -8 8 13 26 32 29 48 24 21 -6z m145 -79 c0 -5 -11
-8 -25 -8 -23 0 -24 1 -8 12 18 13 33 11 33 -4z m-125 -51 c-10 -11 -21 -17
-24 -14 -3 3 3 12 13 20 28 20 32 17 11 -6z m26 -3 c-10 -9 -11 -8 -5 6 3 10
9 15 12 12 3 -3 0 -11 -7 -18z m-121 -31 c0 -3 -4 -8 -10 -11 -5 -3 -10 -1
-10 4 0 6 5 11 10 11 6 0 10 -2 10 -4z m24 -31 c-4 -8 -10 -15 -16 -15 -5 0
-6 -6 -2 -12 6 -10 4 -10 -6 -1 -12 11 -11 15 6 28 24 18 25 18 18 0z m-24
-49 c0 -2 -7 -9 -15 -16 -13 -11 -14 -10 -9 4 5 14 24 23 24 12z m-90 -51 c0
-8 -4 -15 -8 -15 -5 0 -9 7 -9 15 0 8 4 15 9 15 4 0 8 -7 8 -15z m586 -32
c-12 -12 -29 15 -21 34 7 17 8 16 18 -5 5 -12 7 -25 3 -29z m-136 -53 c0 -5
-5 -10 -11 -10 -5 0 -7 5 -4 10 3 6 8 10 11 10 2 0 4 -4 4 -10z"/>
<path d="M3909 8423 c-13 -15 -12 -15 9 -4 23 12 28 21 13 21 -5 0 -15 -7 -22
-17z"/>
<path d="M7220 8369 c0 -5 5 -7 10 -4 6 3 10 8 10 11 0 2 -4 4 -10 4 -5 0 -10
-5 -10 -11z"/>
<path d="M7130 8271 c0 -4 9 -16 20 -26 11 -10 20 -14 20 -9 0 5 -9 17 -20 27
-11 9 -20 13 -20 8z"/>
<path d="M3915 8251 c-3 -5 -2 -12 3 -15 5 -3 9 1 9 9 0 17 -3 19 -12 6z"/>
<path d="M4750 8202 c0 -4 5 -13 12 -20 9 -9 14 -7 24 5 9 13 15 15 26 6 8 -7
19 -8 27 -4 9 6 6 10 -11 14 -33 9 -78 8 -78 -1z"/>
<path d="M4870 8176 c0 -19 37 -27 44 -9 9 22 8 23 -19 23 -15 0 -25 -6 -25
-14z"/>
<path d="M4766 8135 c-9 -26 -7 -32 5 -12 6 10 9 21 6 23 -2 3 -7 -2 -11 -11z"/>
<path d="M2593 8102 c-6 -4 -12 -25 -12 -47 -1 -75 -8 -101 -66 -260 -4 -11 2
-7 14 10 12 17 26 49 32 73 6 23 16 42 21 42 5 0 6 5 2 11 -3 6 5 23 19 37 37
41 74 124 47 107 -5 -3 -10 0 -10 8 0 8 -7 18 -16 21 -19 7 -16 7 -31 -2z"/>
<path d="M2736 8099 c2 -4 0 -10 -6 -14 -16 -10 -1 -25 17 -18 12 5 15 2 10
-10 -5 -13 -1 -17 14 -17 17 0 20 -5 17 -25 -4 -17 -1 -25 8 -25 17 0 18 -24
2 -50 -10 -15 -10 -22 0 -32 18 -18 25 -4 24 57 0 56 -20 113 -44 132 -15 12
-49 13 -42 2z"/>
<path d="M4235 8023 c-11 -7 -27 -12 -35 -10 -9 2 -21 -2 -28 -10 -11 -11 -9
-13 13 -9 26 5 26 4 11 -13 -9 -10 -13 -21 -9 -26 5 -4 3 -5 -4 -1 -7 4 -19
-4 -29 -19 -9 -14 -23 -25 -31 -25 -23 0 -9 -25 15 -26 12 -1 19 2 17 7 -3 4
-1 10 5 14 5 3 10 1 10 -5 0 -6 4 -9 10 -5 5 3 6 13 3 22 -5 13 -2 15 11 10
10 -4 15 -3 11 3 -3 5 3 19 14 31 11 12 18 26 15 31 -3 4 6 12 20 18 29 11 32
16 13 23 -7 3 -22 -2 -32 -10z"/>
<path d="M4259 7983 c-1 -5 -1 -11 0 -15 0 -5 -4 -8 -11 -8 -6 0 -9 -2 -6 -5
9 -9 38 7 38 21 0 14 -19 20 -21 7z"/>
<path d="M4080 7969 c0 -5 5 -7 10 -4 6 3 10 8 10 11 0 2 -4 4 -10 4 -5 0 -10
-5 -10 -11z"/>
<path d="M3950 7890 c-8 -5 -11 -12 -7 -16 4 -4 13 -2 19 4 15 15 7 24 -12 12z"/>
<path d="M4035 7880 c-10 -11 -14 -20 -9 -20 5 0 15 9 22 20 7 11 11 20 9 20
-2 0 -12 -9 -22 -20z"/>
<path d="M4094 7881 c3 -5 -2 -8 -11 -7 -9 0 -18 -5 -20 -12 -3 -8 1 -10 12
-5 15 5 16 3 5 -16 -10 -19 -14 -20 -27 -9 -15 12 -15 11 -4 -10 12 -22 11
-23 -8 -13 -14 8 -22 8 -27 -1 -4 -7 -3 -8 4 -4 16 10 14 -5 -3 -28 -8 -11
-15 -14 -15 -7 0 7 -5 9 -11 6 -6 -4 -8 -13 -5 -20 3 -8 -6 -24 -19 -37 -13
-12 -21 -26 -18 -31 6 -10 99 86 135 139 25 36 42 45 31 17 -6 -16 -4 -16 9
-5 15 12 15 15 0 33 -16 19 -38 27 -28 10z"/>
<path d="M3815 7860 c-3 -5 -1 -10 4 -10 6 0 11 5 11 10 0 6 -2 10 -4 10 -3 0
-8 -4 -11 -10z"/>
<path d="M2795 7825 c2 -19 0 -37 -5 -40 -5 -3 -8 -26 -8 -51 0 -25 -6 -51
-12 -59 -7 -8 -9 -15 -5 -15 4 0 2 -6 -4 -13 -10 -13 -6 -27 9 -27 8 0 24 55
40 142 8 41 8 63 0 78 -15 28 -18 25 -15 -15z"/>
<path d="M3922 7840 c-28 -26 -29 -45 -2 -30 22 12 27 1 8 -18 -7 -7 -9 -12
-6 -12 4 0 17 15 29 33 18 25 19 29 5 17 -18 -14 -18 -13 -12 8 9 27 6 28 -22
2z"/>
<path d="M3837 7812 c-19 -20 -23 -37 -7 -27 10 6 33 45 27 45 -2 0 -11 -8
-20 -18z"/>
<path d="M3661 7783 c-12 -24 -27 -43 -34 -43 -7 -1 -5 -6 6 -14 9 -7 17 -19
17 -27 0 -10 3 -10 12 -1 8 8 8 15 -1 26 -11 13 -9 21 9 46 12 17 20 36 17 43
-2 6 -14 -7 -26 -30z"/>
<path d="M5350 7783 c0 -12 5 -25 10 -28 13 -8 13 15 0 35 -8 12 -10 11 -10
-7z"/>
<path d="M3122 7765 c0 -16 2 -22 5 -12 2 9 2 23 0 30 -3 6 -5 -1 -5 -18z"/>
<path d="M3550 7729 c-18 -34 -20 -43 -9 -50 20 -12 -9 -61 -40 -69 -20 -5
-22 -7 -9 -18 18 -15 35 2 68 65 26 52 50 74 50 48 0 -10 -8 -27 -17 -38 -18
-19 -17 -20 6 -7 20 10 23 17 18 50 -3 21 0 43 6 49 8 8 8 11 0 11 -7 0 -15
-5 -18 -10 -5 -8 -11 -8 -19 -1 -9 8 -19 0 -36 -30z"/>
<path d="M3880 7736 c-9 -11 -9 -19 0 -33 7 -11 10 -12 7 -3 -2 8 0 23 5 33
11 21 5 22 -12 3z"/>
<path d="M3110 7685 c0 -19 5 -35 10 -35 6 0 10 16 10 35 0 19 -4 35 -10 35
-5 0 -10 -16 -10 -35z"/>
<path d="M4060 7695 c-6 -11 -20 -26 -30 -33 -17 -10 -18 -9 -14 6 4 9 -3 4
-14 -12 -12 -17 -19 -33 -16 -38 3 -4 -1 -8 -9 -8 -8 0 -17 -7 -21 -15 -3 -8
-1 -15 4 -15 6 0 10 5 10 10 0 6 5 10 11 10 10 0 89 63 81 64 -10 2 13 36 24
36 8 0 14 4 14 8 0 17 -29 8 -40 -13z"/>
<path d="M3837 7693 c-49 -53 -102 -131 -94 -139 3 -4 91 110 111 144 10 17 2
15 -17 -5z"/>
<path d="M3398 7663 c-10 -20 -16 -39 -14 -40 4 -4 46 61 46 71 0 17 -17 1
-32 -31z"/>
<path d="M3682 7652 c-17 -27 -34 -56 -38 -65 -3 -9 -11 -14 -17 -10 -6 3 -7
1 -3 -5 4 -7 1 -12 -8 -12 -20 0 -20 19 -1 44 21 28 19 38 -5 24 -11 -7 -20
-19 -20 -26 0 -8 -15 -29 -34 -48 -22 -22 -29 -34 -19 -34 11 0 13 -4 6 -12
-5 -7 -14 -25 -20 -39 -11 -25 -10 -26 11 -16 15 7 26 25 32 52 6 26 15 41 27
43 10 2 17 -3 17 -12 0 -9 -5 -16 -12 -16 -6 0 -8 -3 -5 -6 3 -4 2 -16 -4 -27
-6 -10 -7 -17 -2 -14 4 3 17 23 28 44 11 21 22 40 25 43 11 11 83 140 78 140
-3 0 -19 -22 -36 -48z"/>
<path d="M5311 7683 c-1 -16 5 -23 17 -23 10 0 13 3 6 8 -6 4 -14 14 -17 22
-4 10 -6 8 -6 -7z"/>
<path d="M3899 7653 c-8 -9 -14 -27 -14 -40 -1 -20 1 -21 14 -9 12 13 26 66
17 66 -2 0 -10 -7 -17 -17z"/>
<path d="M3100 7626 c0 -8 -3 -23 -6 -33 -6 -16 -5 -16 9 2 19 23 22 45 7 45
-5 0 -10 -6 -10 -14z"/>
<path d="M3439 7618 c-6 -13 -20 -33 -31 -45 -11 -12 -17 -26 -13 -32 3 -6 2
-11 -3 -11 -12 0 -23 -25 -28 -65 l-4 -30 17 32 c27 49 70 136 77 156 8 24 -1
21 -15 -5z"/>
<path d="M3720 7598 c-12 -22 -12 -22 6 -6 10 10 15 20 12 24 -4 3 -12 -5 -18
-18z"/>
<path d="M3325 7600 c3 -5 11 -10 16 -10 6 0 7 5 4 10 -3 6 -11 10 -16 10 -6
0 -7 -4 -4 -10z"/>
<path d="M3360 7591 c0 -18 -4 -22 -20 -18 -11 3 -23 1 -26 -4 -3 -5 -1 -9 4
-9 5 0 9 -7 9 -15 0 -8 -3 -15 -7 -15 -4 0 -12 -11 -18 -25 -9 -20 -9 -23 3
-18 9 3 15 -1 15 -11 0 -9 5 -16 12 -16 6 0 8 3 5 6 -3 4 -1 16 5 27 9 17 8
19 -6 14 -9 -4 -16 -2 -16 3 0 5 9 12 20 15 11 3 23 17 26 31 4 14 11 21 18
17 6 -4 4 2 -4 13 -8 10 -16 21 -17 23 -2 2 -3 -6 -3 -18z"/>
<path d="M5260 7593 c0 -4 5 -15 10 -23 8 -13 10 -13 10 2 0 9 -4 20 -10 23
-5 3 -10 3 -10 -2z"/>
<path d="M3457 7558 c-6 -18 -10 -36 -9 -40 1 -5 -5 -8 -13 -8 -8 0 -15 -5
-15 -11 0 -6 10 -9 23 -7 12 2 21 9 20 16 -2 6 1 12 7 12 5 0 15 10 21 23 12
21 11 21 -6 7 -17 -14 -18 -13 -11 13 9 38 -3 34 -17 -5z"/>
<path d="M3814 7580 c-12 -5 -14 -9 -6 -14 7 -4 17 -4 23 0 8 4 9 -1 4 -17 -8
-27 -6 -25 18 13 16 25 16 27 -2 25 -11 0 -27 -4 -37 -7z"/>
<path d="M3768 7543 c-9 -10 -19 -33 -23 -52 l-7 -34 25 19 c14 11 28 32 31
47 4 18 10 26 17 21 8 -4 9 -3 5 4 -10 17 -31 15 -48 -5z"/>
<path d="M3100 7500 c0 -19 3 -21 12 -12 9 9 9 15 0 24 -9 9 -12 7 -12 -12z"/>
<path d="M3805 7509 c-11 -17 1 -21 15 -4 8 9 8 15 2 15 -6 0 -14 -5 -17 -11z"/>
<path d="M3655 7499 c-4 -6 -5 -12 -2 -15 2 -3 7 2 10 11 7 17 1 20 -8 4z"/>
<path d="M5127 7470 c3 -11 9 -22 13 -25 5 -3 6 4 3 15 -3 11 -9 22 -13 25 -5
3 -6 -4 -3 -15z"/>
<path d="M3410 7466 c0 -8 -6 -17 -12 -19 -8 -3 -6 -6 5 -6 24 -1 21 -25 -8
-57 -26 -28 -34 -64 -14 -64 6 0 9 5 7 12 -5 14 33 54 47 50 6 -2 5 2 -2 9 -9
9 -8 17 4 35 13 21 13 25 0 39 -19 19 -27 19 -27 1z"/>
<path d="M3635 7449 c-4 -6 -5 -12 -2 -15 2 -3 7 2 10 11 7 17 1 20 -8 4z"/>
<path d="M3250 7441 c0 -6 4 -13 10 -16 6 -3 7 1 4 9 -7 18 -14 21 -14 7z"/>
<path d="M3296 7435 c-3 -8 -1 -15 4 -15 6 0 10 7 10 15 0 8 -2 15 -4 15 -2 0
-6 -7 -10 -15z"/>
<path d="M3706 7441 c-2 -3 0 -15 4 -25 6 -19 12 -16 23 15 5 15 -19 24 -27
10z"/>
<path d="M5171 7434 c0 -11 3 -14 6 -6 3 7 2 16 -1 19 -3 4 -6 -2 -5 -13z"/>
<path d="M5215 7441 c-3 -5 -1 -12 5 -16 5 -3 10 1 10 9 0 18 -6 21 -15 7z"/>
<path d="M3490 7417 c0 -7 -9 -19 -19 -26 -11 -8 -17 -20 -14 -27 7 -18 33 -5
33 16 0 11 5 22 10 25 6 3 10 10 10 16 0 5 -4 9 -10 9 -5 0 -10 -6 -10 -13z"/>
<path d="M3605 7383 c-8 -20 -13 -38 -10 -41 4 -4 11 11 30 66 10 28 -6 9 -20
-25z"/>
<path d="M3250 7400 c0 -5 5 -10 10 -10 6 0 10 5 10 10 0 6 -4 10 -10 10 -5 0
-10 -4 -10 -10z"/>
<path d="M3320 7336 c0 -9 5 -16 10 -16 6 0 10 4 10 9 0 6 -4 13 -10 16 -5 3
-10 -1 -10 -9z"/>
<path d="M3091 7324 c0 -11 3 -14 6 -6 3 7 2 16 -1 19 -3 4 -6 -2 -5 -13z"/>
<path d="M3576 7315 c-9 -26 -7 -32 5 -12 6 10 9 21 6 23 -2 3 -7 -2 -11 -11z"/>
<path d="M3313 7303 c-17 -6 -16 -23 1 -23 7 0 16 -8 19 -19 3 -14 11 -17 31
-14 20 4 24 8 16 18 -8 10 -6 16 7 24 10 6 14 11 9 11 -5 0 -18 -7 -28 -16
-14 -14 -20 -14 -33 -4 -8 7 -12 16 -9 21 6 10 5 10 -13 2z"/>
<path d="M3430 7285 c0 -8 6 -15 14 -15 8 0 16 7 20 15 4 10 -1 15 -14 15 -11
0 -20 -7 -20 -15z"/>
<path d="M5050 7276 c0 -2 7 -9 15 -16 13 -11 14 -10 9 4 -5 14 -24 23 -24 12z"/>
<path d="M5035 7210 c3 -5 8 -10 11 -10 2 0 4 5 4 10 0 6 -5 10 -11 10 -5 0
-7 -4 -4 -10z"/>
<path d="M5050 7160 c0 -5 5 -10 10 -10 6 0 10 5 10 10 0 6 -4 10 -10 10 -5 0
-10 -4 -10 -10z"/>
<path d="M3356 7123 c-6 -14 -5 -15 5 -6 7 7 10 15 7 18 -3 3 -9 -2 -12 -12z"/>
<path d="M3290 7079 c0 -5 5 -7 10 -4 6 3 10 8 10 11 0 2 -4 4 -10 4 -5 0 -10
-5 -10 -11z"/>
<path d="M3340 7058 c0 -15 5 -30 10 -33 13 -8 13 25 0 45 -8 12 -10 9 -10
-12z"/>
<path d="M2192 7020 c-7 -11 -12 -30 -12 -42 0 -18 2 -20 9 -8 6 8 7 18 4 22
-2 5 1 16 8 24 6 8 10 16 8 19 -3 2 -10 -5 -17 -15z"/>
<path d="M4946 6977 c3 -10 9 -15 12 -12 3 3 0 11 -7 18 -10 9 -11 8 -5 -6z"/>
<path d="M2203 6950 c-6 -17 -8 -30 -3 -30 8 0 24 50 18 56 -2 2 -9 -10 -15
-26z"/>
<path d="M4831 6914 c0 -11 3 -14 6 -6 3 7 2 16 -1 19 -3 4 -6 -2 -5 -13z"/>
<path d="M4844 6854 c10 -39 27 -56 24 -23 -1 14 -9 32 -17 39 -12 12 -13 10
-7 -16z"/>
<path d="M2644 6415 c-10 -8 -14 -15 -8 -15 6 0 17 7 24 15 16 19 9 19 -16 0z"/>
<path d="M4642 6365 c6 -14 15 -25 20 -25 5 0 1 11 -8 25 -9 14 -18 25 -20 25
-2 0 2 -11 8 -25z"/>
<path d="M4550 6330 c0 -5 5 -10 10 -10 6 0 10 5 10 10 0 6 -4 10 -10 10 -5 0
-10 -4 -10 -10z"/>
<path d="M4590 6325 c0 -8 4 -15 10 -15 5 0 7 7 4 15 -4 8 -8 15 -10 15 -2 0
-4 -7 -4 -15z"/>
<path d="M2600 6310 c0 -5 5 -10 11 -10 5 0 7 5 4 10 -3 6 -8 10 -11 10 -2 0
-4 -4 -4 -10z"/>
<path d="M4665 6310 c-3 -5 -1 -10 4 -10 6 0 11 5 11 10 0 6 -2 10 -4 10 -3 0
-8 -4 -11 -10z"/>
<path d="M3616 6275 c4 -8 8 -15 10 -15 2 0 4 7 4 15 0 8 -4 15 -10 15 -5 0
-7 -7 -4 -15z"/>
<path d="M4614 6256 c0 -13 4 -22 8 -20 4 3 13 -4 19 -14 7 -12 19 -17 30 -15
11 3 16 9 14 14 -3 4 -12 6 -20 2 -9 -3 -15 1 -15 11 0 9 -4 16 -10 16 -5 0
-10 7 -10 15 0 8 -4 15 -9 15 -5 0 -8 -11 -7 -24z"/>
<path d="M4545 6260 c3 -5 8 -10 11 -10 2 0 4 5 4 10 0 6 -5 10 -11 10 -5 0
-7 -4 -4 -10z"/>
<path d="M4500 6250 c0 -4 6 -13 14 -20 12 -9 15 -8 13 8 -1 17 -27 28 -27 12z"/>
<path d="M2325 6219 c-4 -6 -5 -12 -2 -15 2 -3 7 2 10 11 7 17 1 20 -8 4z"/>
<path d="M4570 6220 c0 -5 5 -10 11 -10 5 0 7 5 4 10 -3 6 -8 10 -11 10 -2 0
-4 -4 -4 -10z"/>
<path d="M3429 6213 c-1 -5 -1 -12 0 -17 1 -4 -4 -14 -10 -22 -7 -8 -9 -18 -5
-21 10 -10 26 17 26 45 0 20 -8 32 -11 15z"/>
<path d="M4502 6196 c1 -10 8 -17 13 -17 15 1 12 24 -3 29 -9 3 -13 -2 -10
-12z"/>
<path d="M2331 6154 c0 -11 3 -14 6 -6 3 7 2 16 -1 19 -3 4 -6 -2 -5 -13z"/>
<path d="M4475 6130 c9 -16 18 -30 21 -30 2 0 -2 14 -11 30 -9 17 -18 30 -21
30 -2 0 2 -13 11 -30z"/>
<path d="M4550 6156 c0 -2 8 -10 18 -17 15 -13 16 -12 3 4 -13 16 -21 21 -21
13z"/>
<path d="M3900 6109 c0 -5 5 -7 10 -4 6 3 10 8 10 11 0 2 -4 4 -10 4 -5 0 -10
-5 -10 -11z"/>
<path d="M3856 6095 c-9 -26 -7 -32 5 -12 6 10 9 21 6 23 -2 3 -7 -2 -11 -11z"/>
<path d="M3777 6073 c-4 -3 -7 -11 -7 -17 0 -6 5 -5 12 2 6 6 9 14 7 17 -3 3
-9 2 -12 -2z"/>
<path d="M3981 6054 c0 -11 3 -14 6 -6 3 7 2 16 -1 19 -3 4 -6 -2 -5 -13z"/>
<path d="M3842 6048 c-14 -14 -16 -28 -3 -28 5 0 11 9 14 20 6 23 5 24 -11 8z"/>
<path d="M3287 6011 c-4 -17 -3 -21 5 -13 5 5 8 16 6 23 -3 8 -7 3 -11 -10z"/>
<path d="M3801 6004 c0 -11 3 -14 6 -6 3 7 2 16 -1 19 -3 4 -6 -2 -5 -13z"/>
<path d="M3240 5989 c0 -5 5 -7 10 -4 6 3 10 8 10 11 0 2 -4 4 -10 4 -5 0 -10
-5 -10 -11z"/>
<path d="M4360 5988 c0 -16 23 -68 30 -68 5 0 1 15 -7 33 -17 34 -23 43 -23
35z"/>
<path d="M3987 5963 c-3 -5 -8 -24 -11 -43 -5 -25 -4 -31 3 -19 5 8 12 27 15
42 5 26 2 35 -7 20z"/>
<path d="M3870 5939 c0 -5 5 -7 10 -4 6 3 10 8 10 11 0 2 -4 4 -10 4 -5 0 -10
-5 -10 -11z"/>
<path d="M2690 5915 c-8 -15 -20 -23 -27 -20 -8 3 -11 0 -7 -6 3 -6 2 -21 -4
-32 -34 -76 -38 -108 -4 -39 10 20 29 54 41 76 12 21 20 40 18 42 -2 2 -10 -7
-17 -21z"/>
<path d="M3222 5888 c7 -19 38 -22 38 -4 0 10 -9 16 -21 16 -12 0 -19 -5 -17
-12z"/>
<path d="M2676 5846 c-3 -13 -9 -32 -12 -43 -6 -16 -5 -15 8 2 21 28 29 53 19
60 -5 2 -12 -6 -15 -19z"/>
<path d="M2678 5785 c-10 -19 -14 -35 -9 -35 7 0 15 14 39 63 2 4 0 7 -5 7 -4
0 -16 -16 -25 -35z"/>
<path d="M4260 5691 c0 -6 4 -13 10 -16 6 -3 7 1 4 9 -7 18 -14 21 -14 7z"/>
<path d="M4220 5523 c0 -6 9 -21 21 -34 l20 -24 -17 30 c-24 39 -24 40 -24 28z"/>
<path d="M2685 5220 c-3 -5 -8 -36 -11 -67 -6 -72 11 -51 19 25 6 51 4 61 -8
42z"/>
<path d="M2700 5024 c0 -8 5 -12 10 -9 6 3 10 10 10 16 0 5 -4 9 -10 9 -5 0
-10 -7 -10 -16z"/>
<path d="M2737 4870 c3 -11 7 -20 9 -20 2 0 4 9 4 20 0 11 -4 20 -9 20 -5 0
-7 -9 -4 -20z"/>
<path d="M4250 4833 c0 -13 5 -23 10 -23 13 0 13 11 0 30 -8 12 -10 11 -10 -7z"/>
<path d="M3566 4311 c-3 -5 1 -11 9 -15 8 -3 15 -1 15 4 0 13 -18 22 -24 11z"/>
<path d="M3546 4195 c4 -8 8 -15 10 -15 2 0 4 7 4 15 0 8 -4 15 -10 15 -5 0
-7 -7 -4 -15z"/>
<path d="M6930 4199 c0 -5 5 -7 10 -4 6 3 10 8 10 11 0 2 -4 4 -10 4 -5 0 -10
-5 -10 -11z"/>
<path d="M4595 4139 c-4 -6 -5 -12 -2 -15 2 -3 7 2 10 11 7 17 1 20 -8 4z"/>
<path d="M5009 4133 c-13 -16 -12 -17 4 -4 16 13 21 21 13 21 -2 0 -10 -8 -17
-17z"/>
<path d="M4770 4094 c0 -10 28 -33 33 -27 3 3 0 12 -8 19 -14 15 -25 18 -25 8z"/>
<path d="M4866 4065 c-3 -8 -1 -15 4 -15 6 0 10 7 10 15 0 8 -2 15 -4 15 -2 0
-6 -7 -10 -15z"/>
<path d="M4909 4063 c-13 -16 -12 -17 4 -4 9 7 17 15 17 17 0 8 -8 3 -21 -13z"/>
<path d="M4730 4051 c0 -6 -7 -11 -16 -11 -8 0 -12 -5 -9 -11 4 -6 13 -8 21
-5 8 3 14 1 14 -4 0 -6 5 -10 10 -10 15 0 12 26 -5 40 -10 9 -15 9 -15 1z"/>
<path d="M5042 4027 c-7 -8 -7 -18 -2 -27 6 -9 5 -17 -3 -22 -8 -5 -8 -13 3
-32 7 -14 17 -26 21 -26 10 0 -2 84 -13 88 -5 2 -4 10 3 18 6 8 9 14 6 14 -2
0 -9 -6 -15 -13z"/>
<path d="M6592 3979 c-8 -12 -11 -24 -8 -27 3 -3 6 1 6 9 0 12 2 12 10 -1 8
-12 10 -12 16 3 10 28 -9 40 -24 16z"/>
<path d="M6035 3947 c-23 -26 -22 -32 4 -32 15 0 28 5 28 12 0 7 -4 10 -8 7
-4 -2 -9 2 -11 10 -2 10 -6 11 -13 3z"/>
<path d="M3588 3943 c7 -3 16 -2 19 1 4 3 -2 6 -13 5 -11 0 -14 -3 -6 -6z"/>
<path d="M5477 3883 c-4 -3 -7 -15 -7 -25 0 -11 -4 -16 -10 -13 -6 3 -7 -1 -4
-9 3 -9 11 -13 18 -9 6 4 4 -2 -4 -12 -13 -16 -13 -18 0 -13 10 3 15 18 15 46
1 23 0 42 0 42 -1 0 -5 -3 -8 -7z"/>
<path d="M6225 3850 c-3 -5 -1 -10 4 -10 6 0 11 5 11 10 0 6 -2 10 -4 10 -3 0
-8 -4 -11 -10z"/>
<path d="M5407 3801 c-24 -41 -21 -47 8 -15 13 14 22 30 19 35 -7 13 -8 12
-27 -20z"/>
<path d="M6195 3809 c-4 -6 -5 -12 -2 -15 2 -3 7 2 10 11 7 17 1 20 -8 4z"/>
<path d="M5760 3771 c0 -7 -4 -9 -10 -6 -5 3 -10 -1 -10 -9 0 -9 4 -16 9 -16
11 0 24 31 16 38 -3 3 -5 0 -5 -7z"/>
<path d="M5326 3722 c-3 -5 1 -15 8 -21 11 -10 14 -9 12 3 -3 21 -13 29 -20
18z"/>
<path d="M5173 3685 c0 -8 4 -12 9 -9 5 3 6 10 3 15 -9 13 -12 11 -12 -6z"/>
<path d="M3559 3673 c-13 -16 -12 -17 4 -4 16 13 21 21 13 21 -2 0 -10 -8 -17
-17z"/>
<path d="M3569 3653 c-13 -16 -12 -17 4 -4 16 13 21 21 13 21 -2 0 -10 -8 -17
-17z"/>
<path d="M3267 3619 c12 -12 25 -20 28 -17 3 3 -7 13 -22 23 l-28 17 22 -23z"/>
<path d="M4842 3204 c-7 -8 -10 -20 -6 -27 5 -8 2 -7 -9 2 -15 12 -17 11 -17
-2 0 -10 -6 -14 -14 -11 -8 3 -17 0 -22 -7 -5 -8 -3 -10 6 -4 8 5 11 4 6 -3
-7 -12 -42 -8 -61 8 -16 13 -85 24 -85 13 0 -3 8 -15 17 -25 9 -10 18 -37 21
-60 2 -25 16 -60 33 -86 16 -23 35 -55 43 -70 15 -29 56 -219 56 -258 0 -13 5
-24 11 -24 5 0 7 5 3 12 -4 7 -3 8 4 4 6 -4 9 -13 5 -21 -3 -8 0 -15 7 -15 6
0 8 -5 4 -12 -4 -7 -3 -8 4 -4 7 4 12 2 12 -5 0 -7 8 -9 21 -6 17 5 18 3 8 -9
-9 -11 -9 -18 -1 -26 7 -7 12 -8 12 -2 0 5 9 10 20 11 11 1 20 -3 20 -8 0 -6
-4 -7 -10 -4 -5 3 -10 1 -10 -5 0 -7 6 -10 14 -7 23 9 27 -5 6 -20 -11 -8 -18
-19 -15 -24 4 -5 1 -9 -6 -9 -7 0 -9 -3 -5 -7 4 -5 14 1 22 11 8 11 14 16 14
10 0 -5 4 -3 9 4 6 11 10 10 15 -4 4 -10 4 -15 0 -11 -4 4 -13 2 -20 -4 -10
-8 -11 -15 -1 -30 9 -14 9 -23 0 -37 -10 -17 -8 -18 15 -15 15 2 21 0 15 -3
-7 -3 -13 -15 -13 -25 0 -11 4 -18 9 -15 5 3 12 -1 15 -10 3 -8 2 -12 -4 -9
-5 3 -8 -3 -7 -14 0 -11 6 -17 14 -14 15 6 18 -13 3 -22 -5 -3 -10 -16 -9 -28
0 -21 1 -21 9 -2 7 16 9 13 9 -17 1 -20 4 -44 8 -54 5 -13 3 -15 -7 -9 -10 6
-11 4 -4 -6 12 -20 13 -72 0 -88 -9 -12 -8 -13 6 -8 12 4 15 2 11 -8 -3 -8
-10 -12 -17 -8 -8 5 -8 3 0 -8 6 -8 14 -33 18 -56 5 -37 4 -43 -11 -43 -12 0
-14 -3 -6 -8 6 -4 11 -16 10 -26 -1 -10 4 -21 12 -24 9 -3 11 0 6 8 -6 9 -4
11 4 6 9 -6 8 -13 -5 -27 -11 -12 -13 -19 -5 -19 7 0 9 -4 6 -10 -3 -5 -1 -10
5 -10 6 0 4 -12 -6 -31 -10 -19 -11 -28 -3 -24 9 6 10 -4 5 -40 -4 -26 -10
-55 -13 -64 -4 -13 -3 -13 5 -2 10 14 19 5 17 -19 0 -8 -7 -14 -14 -12 -7 1
-9 -2 -6 -8 4 -6 14 -9 23 -5 14 5 14 4 0 -12 -13 -14 -14 -23 -6 -37 8 -14 7
-17 -1 -12 -6 4 -11 2 -11 -3 0 -6 5 -11 10 -11 7 0 7 -6 0 -20 -9 -17 -8 -19
7 -13 15 5 16 3 6 -7 -10 -11 -9 -16 5 -26 11 -9 12 -13 4 -14 -9 0 -11 -15
-7 -56 3 -31 8 -60 10 -65 3 -4 -3 -12 -12 -18 -10 -6 -12 -11 -5 -11 6 0 12
-9 12 -21 0 -11 -4 -17 -10 -14 -15 9 -12 -2 5 -19 13 -13 14 -19 3 -36 -9
-15 -10 -23 -2 -28 13 -8 25 -52 15 -52 -4 0 -8 -25 -8 -55 0 -30 3 -52 8 -49
5 3 9 -2 9 -10 0 -9 -5 -16 -11 -16 -8 0 -10 -12 -6 -35 3 -19 3 -35 -1 -35
-4 0 -7 -13 -7 -30 0 -18 5 -30 13 -30 10 0 9 -4 -3 -16 -13 -13 -14 -19 -4
-25 10 -6 10 -11 0 -22 -8 -11 -9 -17 -1 -22 8 -5 8 -11 -1 -21 -10 -13 -6
-18 14 -15 4 0 7 -3 7 -9 0 -5 -3 -10 -7 -10 -5 0 -9 -16 -10 -35 -2 -20 2
-35 8 -35 6 0 8 7 4 18 -4 12 -3 14 5 6 7 -7 8 -19 2 -35 -16 -43 -24 -86 -12
-69 8 13 10 13 10 -2 0 -10 -4 -18 -10 -18 -5 0 -10 -9 -10 -20 0 -14 4 -18
17 -13 17 7 17 6 0 -20 -21 -33 -23 -55 -3 -38 11 9 15 8 20 -5 9 -23 7 -31
-4 -14 -6 9 -10 10 -10 3 0 -7 8 -17 18 -22 16 -10 15 -10 -3 -11 l-20 -1 20
-9 c18 -8 18 -9 -5 -10 -20 -2 -21 -3 -6 -7 13 -4 15 -7 7 -13 -10 -5 -9 -11
3 -23 9 -9 12 -18 7 -21 -5 -4 -11 0 -14 6 -4 10 -7 11 -18 0 -11 -10 -10 -12
4 -12 9 0 17 -5 17 -11 0 -5 4 -7 10 -4 7 4 7 -3 0 -19 -6 -17 -6 -26 0 -26 6
0 10 -9 10 -20 0 -22 -16 -27 -23 -7 -2 6 -4 -14 -3 -45 0 -35 4 -55 11 -51 5
2 2 -2 -8 -10 -16 -14 -16 -16 -2 -31 11 -10 12 -16 4 -16 -8 0 -9 -10 -5 -31
3 -17 1 -39 -4 -50 -9 -15 -8 -18 7 -12 15 5 16 3 6 -8 -33 -35 -18 -39 148
-39 l162 0 -7 233 c-3 127 -11 399 -16 602 -10 392 -13 477 -31 835 -6 124
-12 439 -13 700 -1 424 1 485 17 563 14 67 16 92 7 102 -7 8 -8 20 -4 27 4 7
4 10 -1 6 -4 -4 -14 0 -20 9 -11 15 -13 15 -24 -5 -15 -27 -26 -28 -48 -2 -10
11 -23 20 -30 20 -7 0 -13 5 -13 10 0 6 -4 10 -9 10 -6 0 -22 11 -36 24 -26
24 -40 25 -88 10 -39 -13 -167 -11 -167 2 0 14 -48 74 -58 74 -4 -1 -13 -7
-20 -16z m40 -550 c-4 -24 -3 -25 29 -20 28 4 31 3 18 -7 -9 -7 -14 -19 -11
-27 3 -10 0 -9 -10 3 -7 10 -22 19 -33 21 -20 3 -34 26 -15 26 6 0 9 4 6 9 -4
5 0 12 6 14 7 3 14 6 14 6 1 1 -1 -11 -4 -25z"/>
<path d="M4900 2470 c0 -5 5 -10 11 -10 5 0 7 5 4 10 -3 6 -8 10 -11 10 -2 0
-4 -4 -4 -10z"/>
</g>
</svg>
