<?xml version="1.0" standalone="no"?>
<!DOCTYPE svg PUBLIC "-//W3C//DTD SVG 20010904//EN"
 "http://www.w3.org/TR/2001/REC-SVG-20010904/DTD/svg10.dtd">
<svg version="1.0" xmlns="http://www.w3.org/2000/svg"
 width="1000.000000pt" height="1000.000000pt" viewBox="0 0 1000.000000 1000.000000"
 preserveAspectRatio="xMidYMid meet">
<metadata>
Created by potrace 1.14, written by Peter Selinger 2001-2017
</metadata>
<g transform="translate(0.000000,1000.000000) scale(0.100000,-0.100000)"
fill="#000000" stroke="none">
<path d="M6483 8163 c-5 -1 -81 -9 -171 -18 -184 -17 -221 -28 -348 -96 -50
-27 -97 -49 -104 -49 -6 0 -25 -14 -41 -31 -32 -35 -53 -30 -44 10 5 23 1 29
-30 44 -19 9 -74 20 -120 23 -78 6 -86 5 -102 -14 -19 -23 -69 -35 -66 -16 1
7 -9 9 -29 5 -24 -5 -34 -14 -39 -36 -11 -38 5 -59 33 -44 16 9 25 6 44 -12
23 -22 24 -22 44 -4 25 22 29 18 37 -31 6 -36 5 -38 -10 -25 -11 8 -17 9 -17
3 0 -6 -7 -9 -15 -6 -21 9 -19 -26 2 -41 11 -8 18 -27 18 -51 0 -36 2 -39 25
-36 34 5 35 7 10 39 -17 24 -19 34 -11 56 6 15 15 27 21 27 5 0 10 7 10 15 0
8 5 15 10 15 6 0 10 -6 10 -13 0 -19 37 -51 44 -38 4 5 2 13 -4 16 -7 4 -1 16
16 32 l26 24 -22 24 c-23 24 -24 55 -3 62 7 3 27 -9 44 -26 17 -17 34 -29 39
-26 12 8 70 -54 70 -74 0 -23 -36 -56 -45 -42 -3 6 -21 11 -38 11 -22 0 -28
-3 -18 -9 8 -5 11 -16 7 -26 -7 -20 30 -65 54 -65 23 0 55 32 70 68 7 18 24
41 37 52 25 19 25 19 66 -1 42 -21 97 -66 97 -80 0 -12 -50 -20 -67 -10 -11 5
-25 5 -40 -2 -29 -13 -30 -27 0 -28 12 -1 39 -2 60 -3 21 -2 40 1 43 6 6 10
64 -19 64 -33 0 -5 -7 -20 -15 -33 -14 -22 -14 -24 2 -30 17 -7 17 -8 1 -17
-10 -6 -18 -15 -18 -20 0 -6 9 -4 21 4 18 13 23 13 46 -9 41 -38 59 -31 88 35
34 74 66 107 92 93 10 -6 27 -19 37 -31 18 -20 18 -21 -10 -45 -16 -14 -32
-26 -35 -26 -3 0 -20 -20 -38 -45 -30 -41 -61 -59 -61 -35 0 22 -20 8 -52 -36
-18 -25 -33 -53 -33 -62 0 -8 -6 -17 -12 -19 -7 -3 -13 2 -13 11 0 8 -9 21
-21 29 -12 9 -16 18 -10 21 5 4 24 27 40 51 l30 45 -50 -2 c-28 -1 -46 -4 -40
-6 17 -6 13 -27 -9 -52 -11 -13 -17 -26 -13 -29 12 -9 15 -89 3 -96 -5 -3 -10
-15 -10 -26 0 -18 4 -19 38 -13 20 4 43 11 50 17 20 16 15 -17 -7 -44 -19 -23
-20 -24 -63 -9 -31 11 -42 20 -40 33 2 11 -2 15 -12 11 -9 -3 -22 1 -31 9 -13
14 -12 20 12 64 14 26 34 57 44 68 19 22 20 63 4 148 -10 52 -22 46 -29 -17
-4 -30 -13 -60 -20 -66 -11 -8 -13 -2 -9 35 7 56 -7 75 -57 75 -48 0 -54 -7
-29 -39 15 -18 17 -27 8 -30 -14 -4 -34 18 -62 70 -18 32 -19 33 -33 14 -20
-26 -17 -45 5 -45 13 0 26 -14 38 -39 11 -23 29 -42 46 -49 28 -11 34 -36 18
-92 l-7 -25 -19 23 c-36 42 -61 28 -92 -51 l-19 -47 -11 32 c-7 18 -17 52 -23
76 -8 32 -15 42 -28 40 -12 -3 -16 -12 -14 -35 3 -33 -8 -41 -66 -49 -19 -2
-52 -14 -73 -25 -39 -19 -42 -19 -90 -4 -27 9 -51 20 -54 25 -8 12 -105 11
-105 -2 0 -6 -17 -33 -37 -62 l-36 -51 40 39 c26 24 46 35 54 31 7 -5 17 -1
26 10 21 29 15 9 -12 -46 l-26 -50 -112 5 c-62 2 -120 5 -129 5 -11 1 -15 6
-12 16 9 24 -4 18 -49 -21 -29 -24 -48 -33 -62 -29 -69 20 -77 19 -75 -6 5
-56 -1 -77 -25 -93 -22 -15 -28 -15 -61 -1 -48 20 -57 19 -49 -5 9 -28 -11
-25 -31 5 -21 33 -32 32 -48 -5 -9 -23 -15 -27 -24 -18 -7 7 -12 18 -12 25 0
17 -3 17 -58 -7 -26 -11 -66 -24 -89 -29 -68 -14 -81 20 -25 64 18 14 5 45
-19 45 -12 0 -19 7 -19 19 0 10 -7 24 -15 31 -19 16 -19 44 0 60 19 15 45 6
45 -16 0 -16 1 -16 18 -1 10 10 24 17 30 17 7 0 12 9 12 21 0 18 4 20 33 13
32 -7 97 -8 103 -1 2 2 -6 42 -18 88 -26 100 -20 154 17 171 21 9 22 14 13 37
-6 14 -13 62 -17 106 -6 74 -8 80 -29 83 -23 3 -23 4 -6 23 13 15 25 18 49 13
24 -4 34 -2 38 10 8 20 37 21 37 2 0 -8 -7 -16 -15 -20 -16 -6 -22 -66 -7 -66
8 0 62 -111 62 -126 0 -3 7 -12 15 -20 31 -31 7 -61 -24 -31 -11 10 -12 7 -6
-13 4 -14 8 -64 9 -111 1 -97 12 -119 57 -119 22 0 29 -5 29 -20 0 -20 14 -27
24 -11 5 7 -26 129 -60 242 -2 9 3 25 12 34 19 19 9 50 -17 50 -16 0 -65 103
-72 152 -4 27 -2 32 16 35 25 4 76 -12 78 -24 1 -4 2 -12 3 -16 0 -5 9 -16 19
-26 9 -10 17 -28 17 -42 0 -13 5 -24 10 -24 6 0 10 -6 10 -14 0 -20 31 -49 41
-39 5 5 4 25 -2 46 -5 20 -8 41 -5 45 5 9 -13 67 -27 90 -9 13 11 17 29 4 6
-4 35 -42 64 -85 56 -81 91 -118 51 -54 -12 20 -20 41 -17 45 8 13 -28 102
-45 112 -20 13 -8 19 43 25 30 3 52 -1 64 -10 18 -13 17 -14 -6 -9 l-25 6 24
-21 c25 -23 41 -27 41 -11 0 5 30 -6 66 -25 37 -19 71 -32 77 -28 5 3 7 1 3
-5 -3 -6 -1 -14 5 -18 17 -10 29 17 17 39 -6 11 -17 17 -28 14 -21 -5 -45 7
-45 24 0 7 -12 19 -26 28 -15 9 -35 24 -46 35 -62 56 -76 66 -96 67 -22 0 -22
0 -1 9 27 11 37 37 18 44 -17 7 -54 -10 -54 -23 0 -5 -18 -12 -41 -16 -33 -6
-45 -3 -62 13 -21 20 -23 20 -45 3 -27 -20 -99 -14 -94 7 1 7 -3 12 -9 12 -7
0 -9 -10 -5 -25 7 -29 3 -31 -18 -9 -17 17 -36 11 -36 -11 0 -14 -35 -31 -56
-27 -7 1 -14 -4 -17 -12 -5 -12 -11 -13 -35 -4 -16 6 -37 8 -48 3 -24 -10 -48
-15 -104 -21 -35 -4 -50 -1 -67 14 -13 10 -19 23 -15 27 6 7 -1 6 -58 -11 -11
-3 -19 -2 -18 3 7 20 -15 10 -53 -24 -79 -73 -199 -191 -199 -197 0 -3 20 8
44 24 24 17 49 30 54 30 15 0 26 -21 15 -29 -5 -3 -16 -25 -25 -48 -15 -39
-15 -41 3 -46 15 -4 24 5 40 36 22 43 61 85 121 130 41 31 44 32 52 11 5 -12
1 -14 -15 -9 -14 5 -19 3 -15 -4 4 -6 0 -24 -9 -41 -9 -17 -14 -34 -11 -38 3
-4 1 -14 -4 -22 -5 -9 -3 -18 5 -24 11 -8 12 -20 6 -49 -6 -23 -5 -39 1 -43
14 -9 17 -3 26 47 12 58 45 125 61 121 9 -2 10 4 5 20 -6 20 -5 21 10 9 9 -8
19 -11 22 -8 4 3 13 0 20 -8 16 -16 19 -65 4 -65 -5 0 -10 -5 -10 -11 0 -8 4
-8 13 -1 18 15 57 3 58 -17 0 -9 12 9 27 38 15 30 32 57 38 58 15 5 37 -137
31 -197 -6 -56 -34 -177 -47 -199 -8 -13 -9 -11 -10 12 0 15 -5 27 -11 27 -7
0 -9 10 -7 25 3 13 1 22 -3 19 -5 -3 -9 -12 -9 -20 0 -22 -28 -16 -45 10 -18
27 -65 41 -65 20 0 -7 7 -29 17 -48 15 -32 15 -36 -1 -60 -9 -14 -22 -26 -30
-26 -7 0 -34 -16 -60 -36 -55 -42 -76 -39 -76 11 0 30 -3 35 -22 35 -13 0 -33
3 -45 6 -21 6 -23 3 -23 -27 -1 -43 -15 -21 -24 36 -7 38 -4 43 28 72 25 23
33 38 29 53 -3 11 -9 20 -12 20 -13 0 -48 -44 -56 -68 -3 -12 -16 -27 -27 -33
-21 -11 -21 -12 -3 -25 14 -10 17 -26 16 -69 l-1 -55 33 0 c31 0 35 -4 45 -39
7 -21 12 -45 12 -54 0 -8 6 -18 13 -20 9 -4 8 -8 -3 -16 -12 -8 -16 -5 -18 19
-5 43 -26 37 -53 -14 -24 -47 -25 -47 -145 -74 l-42 -9 -12 41 c-7 22 -14 47
-16 54 -3 11 -12 9 -41 -8 -32 -18 -38 -19 -51 -7 -12 13 -8 23 36 79 27 35
57 79 66 97 21 40 38 36 49 -12 9 -36 33 -50 42 -24 3 6 6 62 8 124 2 91 0
109 -11 100 -18 -14 -32 7 -32 50 0 32 -9 38 -88 64 l-22 7 19 -27 c11 -15 23
-39 26 -53 4 -15 13 -29 21 -32 10 -4 14 -24 14 -71 0 -62 -1 -66 -20 -60 -15
5 -29 -2 -50 -25 -17 -18 -30 -37 -30 -42 0 -6 -11 -7 -25 -4 -14 4 -25 3 -25
-2 0 -8 -121 -72 -135 -72 -4 0 -26 -13 -49 -28 -22 -15 -49 -31 -58 -35 -11
-4 -18 -17 -18 -31 0 -15 -8 -30 -20 -36 -17 -9 -20 -8 -20 12 0 21 -1 21 -15
-6 -8 -15 -15 -36 -15 -45 0 -10 -6 -25 -13 -35 -11 -15 -15 -13 -42 23 -34
46 -52 56 -71 40 -9 -7 -18 -7 -33 0 -27 15 -31 14 -31 -9 0 -27 -16 -25 -36
5 -15 23 -17 23 -39 9 -28 -18 -61 -11 -75 17 -8 13 -17 18 -33 14 -35 -9 -72
39 -72 95 -1 25 -5 53 -9 63 -14 30 17 19 39 -15 22 -34 26 -37 98 -68 36 -16
51 -29 59 -52 10 -29 12 -30 25 -12 13 17 15 17 42 1 28 -16 28 -16 24 6 -4
26 19 73 35 70 6 -2 23 2 38 7 22 9 27 7 31 -10 7 -26 19 -26 26 0 3 11 12 20
19 20 17 0 41 -67 27 -76 -5 -3 -9 -11 -8 -17 0 -9 2 -9 6 1 2 6 10 12 16 12
14 0 41 39 33 48 -3 3 -6 1 -6 -5 0 -6 -6 -13 -14 -16 -9 -4 -15 4 -18 23 -2
16 0 27 4 24 5 -3 15 0 23 6 8 7 21 10 30 6 19 -7 35 22 39 74 2 22 11 49 20
59 18 20 22 51 5 51 -6 0 -19 -5 -30 -11 -19 -10 -19 -11 -4 -23 15 -11 16
-16 4 -37 l-14 -24 -3 25 c-2 14 -8 29 -12 34 -12 12 -42 -14 -36 -31 3 -7 -5
-29 -19 -48 -13 -20 -25 -40 -27 -44 -2 -5 -16 -12 -33 -15 -16 -3 -48 -8 -69
-12 -31 -6 -42 -4 -52 10 -11 16 -14 15 -28 -11 l-15 -28 -1 50 c0 29 6 60 15
72 13 18 13 22 0 33 -19 16 -31 6 -45 -36 -10 -30 -14 -34 -26 -23 -7 8 -18
34 -25 59 -10 38 -9 51 4 83 19 44 30 45 93 12 26 -14 54 -25 62 -25 9 0 26
-10 39 -22 20 -19 26 -20 48 -8 26 14 33 34 15 45 -5 3 -11 21 -11 38 -1 24
-3 26 -6 10 -4 -19 -11 -23 -41 -23 -25 0 -32 3 -23 9 9 6 11 18 6 40 -7 35
10 90 29 92 6 1 0 4 -14 8 -35 10 -80 1 -80 -15 0 -24 -38 -37 -62 -20 l-21
15 27 11 c15 5 33 10 39 10 34 1 -34 30 -118 50 -85 21 -102 22 -165 11 -39
-6 -121 -31 -184 -56 -62 -25 -122 -45 -133 -45 -11 0 -46 -9 -78 -20 -32 -11
-67 -20 -78 -20 -11 0 -34 -11 -52 -24 -17 -13 -50 -29 -73 -35 -23 -7 -61
-27 -85 -45 -75 -57 -80 -58 -139 -37 -72 27 -86 28 -138 9 -25 -9 -79 -20
-120 -23 -41 -4 -95 -13 -120 -22 -72 -24 -194 -83 -187 -90 4 -3 28 -14 54
-24 171 -62 371 -155 360 -165 -2 -2 -42 6 -88 17 -64 17 -112 22 -199 21
-141 -1 -194 -11 -337 -63 -171 -62 -245 -118 -170 -127 31 -4 37 -32 7 -32
-11 0 -34 -9 -52 -20 -18 -11 -28 -20 -23 -20 6 0 88 5 183 10 136 8 205 6
319 -5 80 -8 148 -17 150 -19 2 -2 -58 -5 -134 -8 l-139 -3 -99 -48 c-55 -27
-122 -67 -150 -91 -27 -23 -75 -59 -105 -78 -57 -36 -97 -74 -88 -83 3 -3 43
2 89 10 46 8 167 26 269 40 102 14 237 36 300 51 156 35 282 54 277 40 -4 -13
-138 -44 -244 -55 -44 -5 -120 -23 -168 -40 -159 -55 -202 -86 -408 -294 -119
-119 -186 -194 -183 -203 3 -8 -1 -14 -10 -14 -11 0 -13 -6 -9 -21 5 -15 4
-19 -4 -15 -7 5 -11 -2 -11 -17 0 -40 41 -32 97 19 48 44 81 61 48 24 -10 -11
-16 -23 -12 -26 8 -8 37 9 86 50 23 20 60 41 81 47 22 7 37 16 34 20 -3 5 1 6
9 3 7 -2 51 7 96 21 81 26 223 57 229 50 2 -2 -20 -21 -50 -43 -79 -58 -179
-170 -214 -237 -45 -89 -69 -194 -69 -305 0 -84 3 -102 28 -152 27 -55 54 -79
62 -55 2 6 6 32 9 57 3 25 11 61 19 80 8 19 20 51 27 70 7 19 40 87 73 150
l59 115 -46 -45 c-25 -24 -46 -40 -46 -34 0 5 5 15 12 22 6 6 9 14 6 18 -3 3
-21 -22 -38 -55 -18 -33 -41 -68 -52 -77 -19 -18 -19 -17 -8 11 6 17 13 37 17
45 3 8 5 23 4 34 -2 12 2 16 9 11 7 -5 29 12 57 44 24 28 49 49 54 45 5 -3 9
2 9 11 0 10 6 15 13 12 7 -3 18 3 24 13 7 9 21 20 34 23 20 5 19 3 -7 -25 -32
-34 -18 -29 36 13 62 47 170 103 170 86 0 -8 -19 -27 -42 -42 -139 -92 -199
-168 -253 -320 -3 -11 8 7 27 40 32 58 110 131 128 120 5 -3 11 -1 14 4 3 5
21 5 41 1 20 -4 35 -4 35 1 0 5 9 9 19 9 10 0 22 7 25 16 3 8 10 13 15 10 8
-5 85 14 138 35 19 7 112 20 236 33 43 5 43 5 -28 -74 -108 -119 -200 -285
-231 -416 -22 -91 -21 -282 2 -362 31 -106 51 -129 123 -141 30 -5 39 -15 69
-69 44 -81 99 -120 143 -102 16 7 43 10 61 6 56 -10 124 30 205 120 105 117
319 407 339 459 5 11 -9 8 -55 -10 -33 -14 -69 -25 -79 -25 -10 0 -41 -6 -69
-13 -104 -27 -110 23 -14 126 40 42 43 43 67 20 15 -16 16 -15 10 14 -5 19 -3
34 4 38 16 10 42 -15 35 -33 -3 -9 -8 -30 -11 -48 -5 -29 -2 -33 26 -39 35 -8
128 12 150 32 12 11 11 13 -7 13 -22 0 -40 31 -28 50 3 6 -4 10 -17 11 -15 0
-18 3 -8 6 8 3 18 11 22 17 5 8 8 7 8 -1 0 -7 6 -13 13 -13 16 0 49 -33 46
-46 -3 -20 3 -21 42 -13 45 11 163 79 197 116 12 13 22 21 22 18 0 -3 9 -1 20
5 11 6 20 17 20 25 0 8 7 15 16 15 17 0 77 43 134 96 19 18 46 38 60 44 14 6
39 21 57 34 20 15 48 24 80 25 26 2 62 4 78 5 l30 1 1 -90 c1 -49 8 -116 17
-148 23 -87 98 -206 176 -279 80 -76 224 -155 298 -164 26 -3 70 -13 97 -21
37 -12 54 -13 72 -4 14 6 40 11 58 11 24 0 51 13 98 48 35 26 63 53 60 60 -2
6 3 18 11 26 8 9 12 26 9 45 -4 31 -15 40 -27 21 -3 -5 -16 -10 -29 -10 -16 0
-27 -10 -39 -38 -9 -21 -17 -44 -17 -50 0 -7 -8 -12 -19 -12 -21 0 -51 54 -51
93 0 18 -9 29 -32 40 -18 9 -35 14 -39 11 -4 -2 -15 -29 -25 -60 -15 -49 -20
-55 -40 -50 -14 4 -24 1 -28 -9 -3 -8 -12 -12 -21 -9 -11 5 -15 -1 -15 -20 0
-14 5 -26 10 -26 6 0 10 -6 10 -12 -1 -18 -94 90 -101 116 -3 12 -12 20 -21
18 -9 -1 -19 2 -23 8 -9 14 -21 12 -41 -7 -24 -25 -39 -24 -63 3 -11 13 -28
24 -37 24 -8 0 -22 6 -30 14 -7 8 -19 16 -26 18 -13 5 -13 70 1 96 6 11 32 24
66 32 34 8 54 18 51 25 -6 16 27 35 50 29 11 -2 26 0 34 6 13 9 13 11 0 21
-12 8 -9 10 14 6 39 -6 84 10 91 34 4 10 16 20 28 20 15 1 17 3 6 6 -11 3 -15
11 -12 24 7 27 15 24 63 -21 23 -22 45 -38 49 -36 3 2 12 -2 19 -10 7 -8 9
-14 5 -14 -4 0 0 -5 11 -11 14 -9 20 -8 27 2 4 7 5 17 2 21 -2 5 7 25 22 44
19 25 25 42 21 59 -4 15 -1 27 8 32 15 9 25 77 13 89 -19 19 7 103 27 89 3 -3
2 0 -3 7 -12 14 5 51 20 43 5 -4 9 -17 9 -30 0 -13 5 -36 12 -50 9 -21 9 -31
-1 -47 -9 -14 -10 -28 -3 -47 11 -28 24 -141 24 -202 l0 -37 23 20 c19 16 22
25 15 48 -6 21 -4 32 6 41 8 6 14 16 14 21 0 5 14 24 31 41 28 27 29 32 13 37
-15 5 -15 7 -2 12 20 8 42 -7 33 -22 -6 -9 -4 -11 5 -5 7 4 15 3 19 -4 4 -6
45 -23 91 -38 71 -23 86 -32 88 -51 2 -13 -21 -72 -55 -139 -46 -92 -73 -133
-131 -195 l-74 -78 11 -82 c17 -130 30 -276 46 -503 8 -115 17 -232 20 -260 3
-27 10 -124 15 -215 9 -147 34 -485 44 -580 2 -19 7 -80 10 -135 4 -55 8 -116
11 -135 5 -53 18 -218 21 -280 2 -30 5 -212 7 -403 3 -192 7 -351 10 -354 4
-3 -1 -16 -10 -29 -14 -23 -14 -24 2 -18 15 6 16 4 7 -12 -6 -11 -10 -30 -11
-44 0 -30 -8 -156 -16 -260 -3 -41 -9 -142 -15 -225 -5 -82 -12 -177 -15 -210
-2 -33 -9 -127 -15 -210 -14 -182 -18 -230 -19 -230 -1 0 -4 -58 -6 -130 -3
-71 -10 -179 -15 -240 -5 -60 -13 -145 -16 -188 -3 -43 -9 -77 -14 -75 -12 5
-115 139 -133 173 -24 48 -39 150 -38 260 2 155 2 160 18 335 18 196 13 287
-22 394 -58 178 -203 407 -334 528 -121 113 -292 205 -459 248 -96 25 -429 42
-817 42 -213 0 -225 -1 -390 -36 -93 -19 -222 -50 -285 -69 -114 -34 -116 -34
-305 -33 -217 2 -213 1 -415 98 -148 71 -273 118 -407 153 -106 27 -133 30
-133 15 0 -5 5 -10 10 -10 6 0 10 -4 10 -10 0 -5 -7 -10 -15 -10 -13 0 -11 -8
9 -42 13 -24 33 -59 43 -78 37 -69 150 -236 201 -297 38 -45 76 -77 139 -114
48 -28 97 -52 108 -54 12 -1 30 -7 41 -14 19 -13 13 -12 -33 5 -16 6 -16 5 -3
-8 35 -36 274 -172 521 -298 146 -74 312 -160 370 -192 318 -172 584 -308 661
-339 37 -14 53 -17 58 -8 5 7 12 4 22 -10 8 -11 17 -18 21 -15 3 3 16 -1 29
-10 12 -9 30 -16 40 -16 10 0 18 -6 18 -13 0 -14 185 -107 290 -147 30 -11 89
-38 130 -60 41 -22 107 -54 145 -72 288 -132 534 -278 630 -373 63 -63 149
-177 175 -232 10 -23 24 -44 30 -48 5 -3 10 -17 10 -30 0 -13 5 -27 10 -30 6
-3 10 -19 10 -35 0 -16 4 -40 10 -54 l10 -26 307 0 308 0 30 51 c67 114 196
206 367 263 127 43 379 114 478 136 52 11 116 25 142 31 44 10 56 7 250 -59
337 -115 612 -183 1053 -262 61 -11 182 -22 270 -25 88 -3 176 -7 195 -9 51
-4 251 -25 351 -36 48 -6 106 -10 130 -10 24 0 76 -6 114 -14 39 -8 137 -20
219 -26 129 -9 152 -8 173 5 22 15 32 45 14 45 -10 0 -21 23 -27 60 -3 14 -17
45 -31 70 -32 54 -212 242 -225 234 -4 -3 -7 -1 -6 5 2 5 -53 74 -122 152 -69
78 -132 152 -140 165 -24 35 -157 210 -221 292 -33 40 -59 79 -59 86 0 7 -25
37 -55 68 -30 30 -55 60 -55 65 0 9 -116 181 -130 193 -3 3 -44 57 -92 120
-133 178 -297 338 -468 460 -170 120 -300 198 -402 241 -121 52 -325 99 -478
110 -189 14 -276 2 -480 -62 -69 -22 -129 -42 -135 -43 -6 -2 -10 32 -11 88
-2 151 -45 294 -110 360 -37 37 -113 86 -187 119 -77 35 -218 120 -287 173
-30 23 -71 50 -90 59 -19 10 -36 19 -38 20 -4 3 -23 230 -47 560 -8 116 -22
291 -30 390 -8 99 -19 266 -25 370 -15 255 -48 686 -60 777 -13 107 -34 532
-27 552 9 22 65 21 152 -4 39 -11 82 -18 96 -15 23 5 36 -5 110 -92 128 -150
186 -203 284 -262 90 -53 90 -53 184 -56 81 -2 95 0 109 16 19 22 35 24 62 7
15 -10 23 -9 39 7 32 28 73 121 75 165 0 27 6 40 17 43 8 2 16 11 16 19 0 10
-7 14 -18 11 -13 -4 -17 1 -15 21 1 30 11 34 21 9 7 -17 8 -16 15 2 13 32 11
133 -5 223 -17 96 -79 227 -162 337 -29 38 -53 75 -53 82 0 7 -26 20 -57 29
-58 16 -90 34 -63 34 27 0 153 -48 161 -62 15 -23 194 -15 254 11 29 13 45 25
39 29 -7 4 -11 18 -10 32 1 19 7 26 29 28 31 4 34 -4 10 -30 -9 -10 -14 -19
-12 -21 23 -17 362 -153 494 -198 177 -60 266 -83 473 -119 67 -12 124 -26
127 -30 6 -9 61 6 81 22 7 5 14 22 18 39 5 28 8 30 38 24 29 -5 39 0 75 35 24
23 46 53 49 66 12 48 -3 110 -40 167 -20 32 -36 60 -36 63 0 3 -14 25 -31 48
l-31 41 41 -44 c23 -25 54 -65 68 -91 24 -42 35 -51 119 -90 52 -23 128 -64
171 -91 114 -72 161 -64 228 37 67 100 58 163 -39 298 -19 28 -34 51 -33 52 2
3 63 -9 167 -31 36 -8 88 -16 117 -20 44 -5 53 -3 62 13 29 55 -46 156 -184
248 -74 49 -109 67 -185 96 l-25 10 34 14 c18 8 37 11 42 8 5 -3 9 -2 9 3 0 4
24 8 53 8 60 0 234 52 242 73 5 14 -91 117 -137 147 -39 24 -35 32 15 31 37
-1 42 2 45 23 5 32 -39 76 -97 98 -25 9 -65 36 -87 59 -79 80 -103 87 -324 92
-172 3 -397 -7 -500 -23 -29 -5 -32 -4 -17 5 11 7 47 14 80 17 34 2 71 9 82
14 11 5 87 29 170 55 82 25 190 61 240 81 92 36 223 73 257 73 30 0 18 31 -20
53 -59 35 -165 67 -222 67 -75 0 -222 -25 -360 -61 -63 -16 -137 -32 -165 -35
l-50 -5 33 21 c18 11 87 47 152 80 94 47 223 124 305 182 20 15 -17 33 -73 36
-130 7 -149 5 -257 -31 -113 -36 -203 -55 -175 -37 24 17 -20 46 -113 75 -45
15 -91 35 -102 45 -54 50 -124 60 -366 48 l-76 -4 -20 36 -21 35 -91 0 c-50 0
-94 -1 -98 -2z m-1832 -216 c-1 -12 -15 -9 -19 4 -3 6 1 10 8 8 6 -3 11 -8 11
-12z m136 -2 c8 -22 -6 -33 -17 -15 -13 20 -12 30 0 30 6 0 13 -7 17 -15z
m-314 -25 c-10 -11 -19 -20 -21 -20 -1 0 2 9 8 20 6 11 15 20 20 20 6 0 2 -9
-7 -20z m-273 -21 c0 -6 -7 -8 -15 -5 -9 3 -18 -1 -21 -9 -4 -8 -14 -15 -23
-15 -12 0 -10 5 9 20 28 22 50 26 50 9z m1948 -171 c3 -14 0 -15 -22 -5 -13 6
-22 15 -19 20 8 14 38 3 41 -15z m346 -203 c3 -8 1 -15 -5 -15 -5 0 -16 -14
-23 -31 -10 -25 -14 -28 -20 -14 -9 26 -7 50 6 63 16 16 35 15 42 -3z m-3667
-17 c22 -8 32 -17 28 -26 -3 -7 -5 -17 -5 -22 0 -16 -28 -18 -58 -3 -34 16
-40 31 -20 51 15 15 14 15 55 0z m181 -48 c51 -31 39 -46 -34 -41 -12 1 -24
-5 -27 -13 -4 -9 -13 -16 -22 -16 -21 0 -19 20 3 21 9 0 2 6 -17 13 -43 15
-50 33 -19 45 38 16 81 12 116 -9z m1362 -60 c0 -5 -2 -10 -4 -10 -3 0 -8 5
-11 10 -3 6 -1 10 4 10 6 0 11 -4 11 -10z m-1517 -18 c20 -22 13 -32 -19 -32
-26 0 -38 14 -30 35 7 20 30 19 49 -3z m3212 8 c3 -5 -1 -10 -9 -10 -9 0 -16
5 -16 10 0 6 4 10 9 10 6 0 13 -4 16 -10z m-625 -65 c0 -16 -27 -28 -35 -15
-4 6 1 10 10 10 11 0 15 5 11 16 -3 8 -2 12 4 9 6 -3 10 -12 10 -20z m-2220
-32 c0 -13 -3 -13 -15 -3 -8 7 -15 19 -15 27 0 13 3 13 15 3 8 -7 15 -19 15
-27z m1137 15 c-3 -8 -6 -5 -6 6 -1 11 2 17 5 13 3 -3 4 -12 1 -19z m1835 1
c13 -3 15 -8 8 -19 -9 -13 -12 -13 -25 4 -7 10 -18 15 -24 11 -6 -3 -11 -2
-11 3 0 15 13 22 24 13 6 -5 19 -10 28 -12z m765 15 c-3 -3 -12 -4 -19 -1 -8
3 -5 6 6 6 11 1 17 -2 13 -5z m-2577 -83 c10 -34 6 -38 -16 -17 -15 15 -18 38
-7 49 9 9 12 5 23 -32z m572 -18 c-10 -4 -10 -8 -1 -19 9 -11 8 -14 -8 -14
-11 0 -23 3 -26 7 -8 7 23 33 38 32 6 0 4 -3 -3 -6z m782 -10 c4 -4 26 -8 49
-8 50 0 60 -15 24 -33 -20 -10 -36 -10 -67 -2 -43 12 -43 11 -34 34 7 17 16
20 28 9z m337 -31 c-5 -10 -18 -25 -27 -33 -16 -13 -16 -12 -4 11 11 22 28 39
38 40 1 0 -2 -8 -7 -18z m-451 -6 c-23 -21 -112 -68 -118 -61 -7 7 -3 11 59
45 58 32 82 39 59 16z m570 4 c0 -5 -7 -10 -16 -10 -8 0 -12 5 -9 10 3 6 10
10 16 10 5 0 9 -4 9 -10z m-3060 -23 c0 -1 -4 -18 -10 -37 -7 -24 -6 -36 1
-41 7 -4 7 -9 2 -12 -6 -4 -19 0 -29 8 -16 12 -17 17 -7 34 7 11 10 27 7 36
-4 10 0 15 15 15 12 0 21 -1 21 -3z m1160 -27 c16 -22 27 -29 41 -25 20 7 23
-2 13 -30 -5 -13 -72 -55 -88 -55 -9 0 -54 65 -61 88 -5 17 -2 22 13 22 11 0
25 7 32 15 18 21 26 19 50 -15z m1567 13 c2 -6 -8 -24 -22 -39 -23 -25 -24
-25 -11 -4 18 28 21 44 6 35 -6 -3 -7 1 -4 10 7 17 25 16 31 -2z m-2631 -38
c44 -45 54 -65 33 -65 -5 0 -8 4 -5 9 3 5 -1 14 -8 21 -15 12 -52 0 -69 -24
-5 -6 -5 0 -1 14 4 14 11 27 15 28 17 7 9 22 -10 22 -25 0 -38 20 -20 31 19
12 16 14 65 -36z m434 26 c0 -19 25 -35 40 -26 5 3 11 1 15 -5 3 -5 -1 -10 -9
-10 -9 0 -16 -4 -16 -10 0 -5 -6 -10 -13 -10 -8 0 -21 -8 -30 -18 -9 -10 -31
-19 -49 -20 -18 -2 -37 -8 -43 -14 -7 -7 6 -9 46 -5 40 4 65 1 85 -10 17 -9
44 -13 65 -10 46 6 74 -8 33 -17 -16 -3 -50 -7 -76 -8 -27 -1 -48 -5 -48 -10
0 -4 15 -5 33 -3 23 4 27 3 12 -3 -19 -9 -19 -9 0 -21 18 -10 16 -11 -11 -6
-21 4 -35 1 -44 -10 -17 -21 -47 -19 -53 4 -3 11 -20 26 -38 34 -19 8 -43 22
-53 30 -18 13 -18 16 -5 29 8 8 37 20 64 27 28 7 61 20 74 30 22 17 23 19 7
49 -15 28 -15 32 -1 32 8 0 15 -9 15 -19z m1292 -3 c-15 -15 -89 -38 -97 -30
-16 17 -1 27 34 24 21 -2 42 1 45 7 4 6 12 11 19 11 8 0 7 -4 -1 -12z m1278 3
c0 -5 -7 -12 -16 -15 -22 -9 -24 -8 -24 9 0 8 9 15 20 15 11 0 20 -4 20 -9z
m-2086 -34 c29 -71 29 -75 -4 -92 -18 -9 -33 -15 -34 -13 -2 2 -15 19 -29 39
-15 20 -27 39 -27 42 0 4 16 13 35 21 19 8 35 20 35 25 0 20 10 11 24 -22z
m442 6 c-10 -10 -19 5 -10 18 6 11 8 11 12 0 2 -7 1 -15 -2 -18z m-1218 -2 c3
-8 -1 -12 -9 -9 -7 2 -15 10 -17 17 -3 8 1 12 9 9 7 -2 15 -10 17 -17z m1653
-32 c5 -3 51 -6 101 -8 51 -1 111 -7 133 -13 l40 -11 -54 -13 c-45 -10 -181
-19 -242 -15 -9 1 -28 12 -43 26 -30 28 -46 31 -64 13 -9 -9 -15 -9 -24 0 -16
16 -14 16 67 45 l70 24 4 -21 c1 -12 7 -24 12 -27z m459 31 c-11 -20 -30 -28
-30 -12 0 11 22 32 32 32 5 0 4 -9 -2 -20z m-1699 -18 c-7 -2 -19 -1 -29 3
-14 5 -14 7 -2 15 9 5 20 4 28 -3 10 -8 11 -12 3 -15z m1043 12 c3 -8 2 -12
-4 -9 -6 3 -10 10 -10 16 0 14 7 11 14 -7z m-854 -32 c0 -8 14 -27 31 -44 21
-21 29 -39 27 -57 -1 -14 1 -32 5 -39 11 -17 -3 -15 -23 3 -15 13 -24 12 -88
-9 -63 -22 -72 -23 -84 -9 -10 13 -8 19 17 40 36 29 68 43 101 43 27 0 30 14
9 50 -17 29 -21 75 -5 50 5 -8 10 -21 10 -28z m-570 8 c8 -5 11 -10 5 -10 -5
0 -17 5 -25 10 -8 5 -10 10 -5 10 6 0 17 -5 25 -10z m474 -5 c3 -8 1 -15 -4
-15 -6 0 -10 7 -10 15 0 8 2 15 4 15 2 0 6 -7 10 -15z m1566 -4 c0 -5 -7 -11
-15 -15 -15 -5 -20 5 -8 17 9 10 23 9 23 -2z m-45 -21 c-3 -5 -18 -10 -33 -9
-24 0 -25 1 -7 9 28 12 47 12 40 0z m1878 -27 c-13 -2 -35 -2 -50 0 -16 2 -5
4 22 4 28 0 40 -2 28 -4z m75 -10 c-10 -2 -26 -2 -35 0 -10 3 -2 5 17 5 19 0
27 -2 18 -5z m-3963 -29 c17 -14 25 -23 18 -20 -6 4 -14 2 -17 -3 -3 -5 7 -14
23 -19 30 -10 56 -44 44 -56 -3 -3 -14 -6 -24 -6 -10 0 -23 -8 -28 -17 -9 -16
-15 -13 -51 25 -23 23 -46 42 -52 42 -11 0 -37 29 -38 42 0 4 19 1 42 -8 47
-16 56 -14 33 10 -17 17 -12 36 8 36 7 0 26 -12 42 -26z m3444 -4 c58 -21 73
-30 49 -30 -17 0 -108 38 -108 45 0 7 0 7 59 -15z m-3349 -24 c22 -27 -5 -17
-31 10 -21 24 -22 26 -3 16 11 -6 26 -18 34 -26z m2340 24 c0 -5 -5 -10 -11
-10 -5 0 -7 5 -4 10 3 6 8 10 11 10 2 0 4 -4 4 -10z m950 -19 c0 -12 -48 -23
-63 -14 -8 5 -3 10 13 14 36 10 50 10 50 0z m1198 -35 c3 -16 -1 -17 -40 -11
-57 9 -78 15 -78 23 0 4 11 7 25 7 14 0 25 -3 25 -7 0 -5 10 -7 23 -7 16 1 18
2 5 6 -10 2 -18 8 -18 13 0 16 55 -7 58 -24z m-6018 -5 c0 -12 -56 -25 -70
-16 -22 13 -8 25 30 25 22 0 40 -4 40 -9z m83 2 c-7 -2 -19 -2 -25 0 -7 3 -2
5 12 5 14 0 19 -2 13 -5z m2382 -12 c-12 -20 -66 -42 -86 -36 -23 8 -16 25 10
25 10 0 31 7 47 15 30 15 40 14 29 -4z m1462 13 c-3 -3 -12 -4 -19 -1 -8 3 -5
6 6 6 11 1 17 -2 13 -5z m793 2 c0 -3 -4 -8 -10 -11 -5 -3 -10 -1 -10 4 0 6 5
11 10 11 6 0 10 -2 10 -4z m-2904 -25 c-3 -5 6 -12 22 -16 25 -7 25 -8 7 -15
-11 -5 -33 -9 -49 -9 -22 -1 -27 2 -22 16 4 9 1 20 -6 25 -8 5 -1 8 20 8 18 0
31 -4 28 -9z m2817 -8 c-7 -2 -19 -2 -25 0 -7 3 -2 5 12 5 14 0 19 -2 13 -5z
m-3946 -29 c-3 -3 -12 -4 -19 -1 -8 3 -5 6 6 6 11 1 17 -2 13 -5z m40 -10 c-3
-3 -12 -4 -19 -1 -8 3 -5 6 6 6 11 1 17 -2 13 -5z m313 -20 c63 -8 158 -22
210 -31 60 -10 124 -14 176 -10 81 5 83 4 89 -20 3 -13 3 -28 0 -33 -7 -12
-66 -4 -75 10 -8 12 -117 2 -126 -11 -3 -5 -10 -9 -15 -9 -6 0 -8 4 -5 8 8 14
-92 44 -129 40 -19 -2 -35 0 -35 4 0 4 -9 8 -20 8 -13 0 -18 -5 -14 -15 4 -10
0 -15 -15 -15 -12 0 -21 6 -21 14 0 19 -9 22 -167 48 -132 22 -136 23 -83 28
63 6 72 5 230 -16z m890 11 c0 -2 -13 -17 -30 -35 -33 -35 -38 -29 -15 18 10
20 21 29 30 25 8 -3 15 -6 15 -8z m838 -54 c-3 -12 -14 -16 -46 -15 -50 2 -63
11 -40 28 24 18 90 8 86 -13z m601 -41 c10 -5 22 -17 25 -27 5 -13 0 -11 -21
7 -15 14 -30 26 -32 28 -13 7 13 0 28 -8z m-1764 -25 c-16 -14 -36 -25 -44
-25 -18 0 -11 7 31 30 45 24 48 23 13 -5z m-1291 -72 c-13 -27 -21 -56 -18
-65 3 -11 0 -18 -7 -18 -19 0 -3 79 22 106 12 13 24 24 25 24 1 0 -9 -21 -22
-47z m1212 22 c-11 -8 -22 -12 -25 -9 -6 6 19 24 34 24 6 -1 1 -7 -9 -15z
m-376 -25 c0 -13 -108 -11 -116 2 -3 4 22 8 55 8 35 0 61 -4 61 -10z m-665
-61 c8 -12 5 -11 -34 2 -17 6 -31 17 -31 24 0 11 6 11 30 -1 16 -9 32 -19 35
-25z m3934 7 c44 -23 91 -83 91 -115 0 -32 -34 -81 -46 -68 -5 4 -2 17 5 29 8
14 9 24 3 30 -6 6 -8 17 -5 24 12 32 -8 64 -55 88 -26 14 -41 25 -34 26 7 0
26 -7 41 -14z m-2089 -16 c0 -15 -40 -32 -58 -25 -13 5 -9 10 18 20 19 7 36
13 38 14 1 0 2 -3 2 -9z m3710 -20 c0 -4 -7 -11 -16 -14 -19 -7 -44 10 -44 30
0 10 6 11 30 3 17 -6 30 -15 30 -19z m-546 -17 c14 -16 20 -30 14 -32 -6 -2
-15 4 -20 13 -5 9 -18 16 -29 16 -12 0 -17 4 -13 11 5 8 1 8 -14 0 -27 -15
-29 -14 -35 9 -5 19 -2 20 34 16 27 -3 47 -14 63 -33z m-4946 20 c-10 -2 -26
-2 -35 0 -10 3 -2 5 17 5 19 0 27 -2 18 -5z m2992 -27 c0 -32 72 -95 140 -123
70 -28 94 -49 43 -37 -71 16 -135 60 -184 128 -32 44 -36 58 -14 50 8 -4 15
-12 15 -18z m2410 3 c0 -18 -29 -21 -45 -6 -11 12 -12 16 -2 20 17 5 47 -3 47
-14z m-243 -5 c-3 -3 -12 -4 -19 -1 -8 3 -5 6 6 6 11 1 17 -2 13 -5z m291 -21
c-14 -18 -48 -16 -48 2 0 10 9 14 29 12 22 -1 27 -5 19 -14z m-577 -53 c1 -8
1 -19 0 -23 -1 -5 3 -6 9 -2 6 3 17 -1 26 -9 8 -9 19 -16 24 -16 14 0 1 28
-16 34 -8 3 -14 10 -14 16 0 18 29 11 52 -14 66 -69 70 -76 55 -76 -9 0 -19 5
-22 10 -3 6 -10 10 -16 10 -14 0 -11 -26 5 -39 18 -15 26 -71 14 -94 -6 -12
-6 -23 1 -31 6 -8 9 -21 5 -29 -5 -14 -11 -12 -40 11 -19 15 -34 32 -34 39 0
6 -9 15 -20 18 -29 9 -60 45 -53 61 3 9 -2 14 -15 14 -12 0 -24 5 -27 10 -4 6
-10 8 -15 5 -5 -3 -11 -1 -15 5 -3 5 -3 10 2 10 4 0 8 16 9 35 1 38 -19 53
-43 33 -12 -10 -18 -9 -28 5 -7 9 -17 17 -24 17 -6 0 -11 4 -11 9 0 5 11 8 24
5 14 -2 31 3 41 12 11 11 25 14 45 10 25 -4 28 -3 23 12 -5 13 1 11 24 -8 18
-14 33 -32 34 -40z m-4986 40 c-3 -5 -11 -10 -16 -10 -6 0 -7 5 -4 10 3 6 11
10 16 10 6 0 7 -4 4 -10z m5125 -15 c0 -8 -7 -15 -15 -15 -26 0 -18 20 13 29
1 1 2 -6 2 -14z m460 0 c7 -9 8 -15 2 -15 -5 0 -12 7 -16 15 -3 8 -4 15 -2 15
2 0 9 -7 16 -15z m-2866 -11 c5 -14 4 -15 -9 -4 -17 14 -19 20 -6 20 5 0 12
-7 15 -16z m-2894 -13 c0 -5 -7 -14 -15 -21 -9 -7 -14 -19 -11 -27 4 -8 -2
-13 -17 -13 -14 0 -18 3 -10 8 7 4 9 13 4 21 -5 8 -14 10 -21 6 -8 -5 -11 -3
-8 6 3 8 12 13 21 13 9 -1 14 2 11 7 -3 5 6 9 20 9 14 0 26 -4 26 -9z m-140
-26 c0 -2 -13 -11 -30 -20 -38 -19 -40 -11 -2 9 31 17 32 18 32 11z m-281 -46
c-14 -8 -29 -3 -29 11 0 4 9 6 21 3 15 -4 17 -8 8 -14z m-59 1 c0 -5 -7 -10
-16 -10 -8 0 -12 5 -9 10 3 6 10 10 16 10 5 0 9 -4 9 -10z m261 -3 c-6 -8 -8
-17 -4 -20 3 -4 -1 -7 -9 -7 -9 0 -18 -3 -20 -7 -2 -5 -19 -21 -37 -38 -32
-27 -31 -26 8 22 38 45 53 59 70 62 2 1 -2 -5 -8 -12z m3416 -58 c1 -13 0 -19
-3 -12 -3 7 -11 10 -19 7 -18 -7 -31 16 -14 27 21 13 34 5 36 -22z m1688 22
c11 -5 38 -16 60 -25 22 -10 51 -24 65 -32 14 -8 42 -22 63 -30 20 -9 37 -20
37 -25 0 -5 6 -9 13 -9 23 0 60 -52 62 -88 2 -29 0 -32 -9 -20 -10 13 -15 14
-29 3 -18 -13 -7 -32 12 -21 5 3 14 -1 21 -9 10 -12 9 -16 -3 -21 -9 -3 -24
-1 -34 4 -10 5 -27 6 -38 1 -11 -4 -23 -8 -26 -8 -7 -1 -22 38 -20 52 1 4 -6
7 -14 7 -17 0 -20 -16 -5 -25 6 -4 8 -10 5 -15 -7 -11 -76 5 -85 20 -4 6 -27
10 -51 9 -60 -3 -199 37 -214 60 -3 7 2 11 14 11 13 0 21 7 22 18 0 9 2 24 4
33 2 12 -4 15 -22 13 -20 -2 -24 2 -21 19 2 12 13 26 24 32 31 15 54 36 50 44
-6 10 97 12 119 2z m-4837 -48 c-2 -13 -13 -18 -36 -18 -17 -1 -32 3 -32 7 0
4 10 8 23 8 18 0 19 2 7 10 -12 8 -9 10 13 10 22 0 28 -4 25 -17z m3182 -13
c0 -5 -8 -10 -17 -10 -15 0 -16 2 -3 10 19 12 20 12 20 0z m-3210 -30 c12 -8
11 -10 -7 -10 -13 0 -23 5 -23 10 0 13 11 13 30 0z m-1105 -34 c-16 -24 -35
-35 -35 -19 0 10 43 54 48 49 2 -2 -4 -16 -13 -30z m2112 2 c-3 -7 -5 -2 -5
12 0 14 2 19 5 13 2 -7 2 -19 0 -25z m773 22 c0 -5 -4 -10 -10 -10 -5 0 -10 5
-10 10 0 6 5 10 10 10 6 0 10 -4 10 -10z m-2700 -4 c0 -7 -133 -76 -137 -72
-2 2 18 16 44 30 26 15 55 31 63 36 17 10 30 12 30 6z m1295 -5 c-15 -13 -75
-31 -75 -22 0 4 17 12 38 18 20 6 39 11 42 12 2 0 0 -3 -5 -8z m1210 -11 c3
-5 1 -10 -4 -10 -6 0 -11 5 -11 10 0 6 2 10 4 10 3 0 8 -4 11 -10z m-1673 -30
c5 0 8 7 5 14 -4 10 -1 13 9 9 30 -11 9 -54 -29 -58 -14 -2 -36 -11 -49 -20
l-23 -17 25 6 c14 3 52 8 84 12 45 6 57 4 52 -5 -11 -18 -46 -29 -102 -32 -28
-2 -60 -11 -75 -22 -35 -25 -65 -19 -61 13 3 30 42 72 59 65 8 -2 16 2 19 10
3 8 12 11 21 8 11 -4 14 -3 9 6 -5 8 -1 14 13 18 12 3 22 10 22 17 1 6 3 3 6
-6 2 -10 9 -18 15 -18z m508 12 c0 -8 -117 -37 -132 -34 -5 1 -8 -2 -8 -8 0
-5 -11 -10 -24 -10 -13 0 -27 -7 -30 -16 -5 -12 -13 -14 -33 -9 -15 3 -29 2
-33 -5 -4 -6 -27 -16 -51 -21 -24 -5 -53 -13 -64 -18 -41 -17 -109 -29 -129
-22 -19 8 -19 9 6 25 15 10 40 18 58 18 17 1 33 5 36 10 3 4 16 8 28 8 13 0
40 16 60 35 21 19 46 35 56 35 10 0 26 3 36 7 13 5 15 3 9 -7 -6 -9 -4 -12 6
-8 45 17 61 20 55 9 -9 -15 28 -13 79 4 47 15 75 18 75 7z m-795 -22 c3 -5 1
-10 -4 -10 -6 0 -11 5 -11 10 0 6 2 10 4 10 3 0 8 -4 11 -10z m1378 -10 c3
-11 1 -23 -4 -26 -5 -3 -9 6 -9 20 0 31 6 34 13 6z m-2159 -42 c-39 -40 -49
-35 -22 11 17 31 26 37 36 29 10 -9 7 -17 -14 -40z m3512 25 c-7 -7 -26 7 -26
19 0 6 6 6 15 -2 9 -7 13 -15 11 -17z m-791 -3 c3 -5 -3 -10 -14 -10 -12 0
-21 5 -21 10 0 6 6 10 14 10 8 0 18 -4 21 -10z m1385 -31 c0 -5 6 -7 13 -3 9
5 9 3 -1 -7 -11 -12 -14 -12 -21 0 -5 8 -14 10 -21 6 -9 -5 -11 -4 -6 3 9 15
36 16 36 1z m-1930 -34 c0 -5 -5 -3 -10 5 -5 8 -10 20 -10 25 0 6 5 3 10 -5 5
-8 10 -19 10 -25z m2230 14 c0 -6 -13 -24 -29 -40 -31 -31 -64 -40 -55 -14 4
8 12 15 20 15 8 0 14 9 14 21 0 15 5 19 16 15 8 -3 12 -2 9 4 -3 6 1 10 9 10
9 0 16 -5 16 -11z m-610 -14 c0 -8 -7 -15 -15 -15 -16 0 -20 12 -8 23 11 12
23 8 23 -8z m-1490 -26 c0 -28 -15 -23 -18 7 -1 14 2 23 8 19 6 -3 10 -15 10
-26z m1363 19 c12 -7 30 -19 40 -27 9 -8 20 -11 24 -8 3 4 17 0 29 -8 13 -8
38 -17 56 -20 100 -15 161 -35 107 -35 -86 0 -231 45 -277 86 -29 25 -16 32
21 12z m554 -15 c3 -10 15 -28 26 -40 17 -19 18 -23 4 -28 -8 -4 -30 -5 -48
-3 -26 2 -34 9 -40 31 -4 15 -3 25 1 22 5 -3 14 4 20 15 13 25 29 26 37 3z
m-3361 -14 c6 -5 15 -5 19 -1 5 4 5 2 2 -5 -4 -6 -1 -14 5 -17 7 -4 3 -4 -9
-2 -13 2 -26 0 -29 -5 -3 -5 -14 -9 -24 -9 -14 0 -18 7 -18 29 1 24 4 28 22
23 12 -3 26 -9 32 -13z m1994 11 c0 -5 -4 -10 -10 -10 -5 0 -10 5 -10 10 0 6
5 10 10 10 6 0 10 -4 10 -10z m-655 -20 c3 -5 1 -10 -4 -10 -6 0 -11 5 -11 10
0 6 2 10 4 10 3 0 8 -4 11 -10z m1245 -24 c0 -3 -4 -8 -10 -11 -5 -3 -10 -1
-10 4 0 6 5 11 10 11 6 0 10 -2 10 -4z m-1163 -36 c10 -15 9 -17 -10 -12 -28
6 -48 22 -42 32 8 13 40 1 52 -20z m1776 3 c-7 -2 -21 -2 -30 0 -10 3 -4 5 12
5 17 0 24 -2 18 -5z m-1640 -33 c10 0 16 -4 13 -8 -7 -11 -76 -2 -76 10 0 6
10 8 23 4 12 -3 30 -6 40 -6z m-223 -66 c12 -12 11 -14 -15 -15 -17 0 -24 -3
-17 -6 24 -10 12 -25 -16 -18 -30 6 -91 -18 -73 -29 15 -10 -8 -56 -28 -56
-11 0 -12 -3 -4 -11 8 -8 18 -6 37 7 14 11 26 24 26 30 0 13 43 34 70 34 11 0
20 6 20 14 0 10 7 12 22 8 l21 -5 -23 -19 c-12 -10 -20 -21 -17 -25 4 -3 1
-15 -5 -27 -12 -21 -14 -27 -17 -46 0 -5 -14 -7 -30 -4 -23 5 -29 2 -34 -15
-8 -31 -61 -29 -82 3 -9 13 -29 26 -45 30 -23 4 -28 9 -23 23 9 25 43 56 62
58 23 1 81 46 75 57 -3 4 -10 6 -15 3 -5 -4 -9 -1 -9 5 0 7 6 10 14 7 8 -3 20
1 27 9 14 17 55 11 79 -12z m1150 5 c0 -6 -4 -7 -10 -4 -5 3 -10 11 -10 16 0
6 5 7 10 4 6 -3 10 -11 10 -16z m-35 1 c-3 -5 -13 -10 -21 -10 -8 0 -14 -4
-14 -10 0 -5 -6 -10 -14 -10 -8 0 -16 -6 -19 -12 -2 -7 -4 -1 -4 14 -1 27 10
35 55 37 13 0 20 -3 17 -9z m1635 -48 c0 -5 12 -22 26 -38 29 -33 47 -72 39
-85 -4 -5 2 -25 11 -44 12 -26 14 -39 6 -47 -6 -6 -8 -18 -5 -27 3 -10 -3 -7
-16 8 -12 13 -21 31 -21 40 0 9 -7 29 -16 46 -8 16 -17 43 -19 60 -1 16 -8 43
-14 58 -13 35 -14 37 -1 37 6 0 10 -4 10 -8z m-3460 -6 c0 -2 -8 -10 -17 -17
-16 -13 -17 -12 -4 4 13 16 21 21 21 13z m-5 -62 c13 -9 29 -13 34 -10 5 4 13
1 16 -5 4 -5 13 -8 21 -5 8 3 14 1 14 -4 0 -9 -15 -14 -33 -11 -5 1 0 -12 10
-29 l18 -31 22 28 c13 15 23 31 23 34 0 4 9 9 20 12 11 3 20 2 20 -3 0 -13
-26 -30 -35 -22 -5 4 -5 -1 -2 -11 4 -10 7 -23 7 -28 0 -4 8 -6 18 -3 9 3 1
-5 -18 -17 -26 -18 -30 -25 -17 -27 21 -4 22 -16 2 -32 -9 -7 -14 -18 -12 -24
6 -17 -52 -96 -66 -91 -19 7 -41 -11 -34 -29 4 -9 13 -13 21 -10 9 3 17 -3 21
-15 15 -49 -207 -272 -334 -336 -34 -17 -35 -17 -52 6 -24 33 -43 103 -36 138
8 36 0 44 -26 26 -11 -8 -31 -12 -47 -8 -23 4 -29 1 -35 -16 -5 -18 -9 -20
-21 -10 -8 7 -14 24 -12 38 2 20 -1 26 -16 26 -11 0 -21 -6 -24 -14 -3 -8 0
-11 6 -7 14 9 27 -13 15 -25 -6 -6 -15 -4 -23 6 -11 13 -11 20 0 40 7 14 19
25 27 25 7 0 13 5 13 10 0 6 -4 10 -9 10 -8 0 -8 8 -2 39 1 2 8 -3 17 -10 15
-13 17 -11 12 20 -4 27 -1 35 14 39 10 2 18 9 18 14 0 5 7 2 16 -6 21 -21 32
-13 26 20 -4 24 -3 25 17 12 18 -11 23 -11 30 0 5 8 17 12 29 10 12 -2 32 8
47 22 l27 25 -4 -25 c-2 -14 2 -26 7 -27 6 0 9 3 7 9 -1 5 3 8 9 6 14 -5 89
60 89 78 0 11 21 24 42 24 5 0 0 -15 -11 -33 -19 -31 -19 -35 -5 -56 l16 -23
29 28 c23 22 32 25 41 16 9 -9 8 -12 -4 -12 -9 0 -19 -4 -22 -8 -3 -5 5 -8 17
-7 21 2 23 9 13 54 -1 8 -8 17 -14 19 -7 2 -9 9 -5 15 4 7 8 35 9 62 2 50 20
135 30 135 2 0 16 -7 29 -16z m485 -73 c0 -6 -4 -11 -10 -11 -5 0 -10 4 -10 9
0 5 -3 18 -7 28 -6 17 -6 17 10 1 9 -9 17 -21 17 -27z m205 -20 c-3 -6 -11
-11 -17 -11 -6 0 -6 6 2 15 14 17 26 13 15 -4z m-151 3 c18 -7 22 -54 5 -54
-5 0 -8 -4 -4 -9 3 -5 1 -12 -5 -16 -6 -3 -10 3 -10 15 0 17 -4 20 -20 15 -23
-7 -24 -6 -10 29 10 27 17 30 44 20z m75 -43 c-16 -25 -49 -45 -49 -29 0 16
31 48 47 48 10 0 11 -4 2 -19z m3018 -53 c-3 -8 -6 -5 -6 6 -1 11 2 17 5 13 3
-3 4 -12 1 -19z m-3337 -23 c0 -8 -2 -15 -4 -15 -2 0 -6 7 -10 15 -3 8 -1 15
4 15 6 0 10 -7 10 -15z m90 -35 c0 -5 -4 -10 -10 -10 -5 0 -10 5 -10 10 0 6 5
10 10 10 6 0 10 -4 10 -10z m-40 -20 c0 -5 -5 -10 -11 -10 -5 0 -7 5 -4 10 3
6 8 10 11 10 2 0 4 -4 4 -10z m-900 -165 c0 -8 -2 -15 -4 -15 -2 0 -6 7 -10
15 -3 8 -1 15 4 15 6 0 10 -7 10 -15z m40 -136 c0 -6 -4 -7 -10 -4 -5 3 -10
11 -10 16 0 6 5 7 10 4 6 -3 10 -11 10 -16z m2950 -2313 c0 -3 -4 -8 -10 -11
-5 -3 -10 -1 -10 4 0 6 5 11 10 11 6 0 10 -2 10 -4z m12 -38 c-7 -7 -12 -8
-12 -2 0 6 3 14 7 17 3 4 9 5 12 2 2 -3 -1 -11 -7 -17z m45 -10 c-3 -7 -5 -2
-5 12 0 14 2 19 5 13 2 -7 2 -19 0 -25z m-50 -30 c-3 -8 -6 -5 -6 6 -1 11 2
17 5 13 3 -3 4 -12 1 -19z m50 -20 c-3 -8 -6 -5 -6 6 -1 11 2 17 5 13 3 -3 4
-12 1 -19z m273 -20 c0 -5 -4 -8 -10 -8 -5 0 -10 10 -10 23 0 18 2 19 10 7 5
-8 10 -18 10 -22z m-335 -29 c-8 -12 -35 -12 -35 0 0 11 22 20 33 14 4 -2 5
-9 2 -14z m70 1 c3 -5 1 -10 -4 -10 -6 0 -11 5 -11 10 0 6 2 10 4 10 3 0 8 -4
11 -10z m259 -23 c-9 -24 -23 -11 -17 14 3 12 9 17 15 11 5 -5 6 -16 2 -25z
m-299 13 c-4 -6 -1 -17 5 -25 13 -16 6 -35 -14 -35 -8 0 -11 12 -8 35 2 19 8
35 14 35 5 0 6 -5 3 -10z m45 -68 c0 -7 -4 -10 -10 -7 -5 3 -10 16 -10 28 0
18 2 19 10 7 5 -8 10 -21 10 -28z m-38 -84 c-5 -5 -5 -32 -1 -61 3 -28 5 -72
3 -97 -2 -25 -5 -119 -7 -209 -2 -120 -6 -166 -15 -169 -6 -2 -12 -8 -12 -13
0 -6 5 -7 12 -3 6 4 8 3 5 -3 -3 -5 -8 -30 -11 -56 -4 -34 -3 -47 6 -47 9 0
10 -3 2 -8 -14 -9 -25 -52 -13 -52 5 0 8 -3 7 -7 -3 -16 15 -43 27 -43 8 0 17
-5 21 -12 5 -8 0 -9 -14 -6 -20 6 -27 -2 -23 -25 1 -4 -6 -10 -14 -13 -8 -4
-15 -11 -15 -16 0 -6 6 -8 14 -5 21 8 56 -21 56 -46 -1 -22 -1 -22 -23 3 -24
28 -66 28 -75 1 -3 -8 0 -11 7 -7 6 4 11 1 11 -8 0 -8 -5 -16 -12 -18 -7 -3
-6 -7 5 -11 11 -4 17 -1 17 8 0 26 18 16 24 -12 8 -39 4 -103 -6 -103 -5 0 -6
18 -3 39 3 22 1 42 -4 45 -12 8 -41 -3 -41 -16 0 -5 5 -6 10 -3 16 10 12 -17
-6 -36 -11 -12 -13 -25 -8 -41 4 -13 7 -26 6 -30 -1 -5 3 -8 8 -8 6 0 10 -4
10 -9 0 -4 -12 -6 -27 -4 -22 4 -25 2 -13 -6 14 -10 8 -15 -15 -12 -5 1 -3 -5
7 -12 12 -9 14 -17 6 -31 -5 -9 -7 -23 -4 -31 3 -8 0 -16 -7 -18 -9 -3 -9 -7
0 -18 21 -26 20 -79 -1 -79 -8 0 -18 -5 -22 -12 -4 -7 -3 -8 4 -4 12 7 38 -42
27 -52 -3 -3 -5 0 -5 6 0 7 -9 12 -19 12 -18 0 -18 -2 -5 -29 11 -22 12 -35 3
-61 -9 -25 -9 -41 0 -67 7 -19 10 -37 7 -40 -8 -8 -36 23 -36 41 0 19 -17 30
-25 16 -3 -5 -2 -10 3 -10 5 0 12 -11 15 -25 2 -14 2 -23 -1 -20 -3 2 -10 1
-16 -4 -8 -7 -12 8 -13 50 -1 32 1 59 6 59 5 0 7 9 4 20 -3 11 1 27 8 36 10
13 10 17 -1 24 -12 7 -11 10 3 16 12 4 16 13 12 25 -4 13 -1 19 9 19 10 0 13
6 9 17 -4 10 -2 14 4 10 6 -4 13 3 16 14 3 12 3 18 0 15 -4 -3 -12 -1 -20 5
-17 15 -17 58 0 65 17 6 15 37 -2 58 -9 11 -10 16 -2 16 6 0 11 7 11 15 0 8
-6 12 -14 9 -8 -3 -16 4 -19 17 -8 32 2 44 19 22 10 -13 14 -14 12 -3 -2 8 -9
21 -16 29 -10 10 -10 16 -2 21 6 4 8 14 4 23 -3 10 -1 24 5 31 8 9 8 16 2 20
-5 4 -8 19 -6 34 2 15 4 33 4 41 1 10 4 11 15 2 11 -9 15 -6 18 14 5 21 2 25
-13 20 -14 -5 -18 -2 -16 12 1 10 7 25 12 33 5 8 10 26 10 40 0 16 6 24 15 22
11 -3 11 0 0 13 -8 9 -10 28 -7 51 5 29 3 35 -8 30 -20 -7 -19 3 3 27 9 11 11
17 5 13 -7 -4 -13 -5 -13 -2 0 2 -3 11 -6 20 -4 11 0 16 12 17 18 0 17 1 -1 9
-11 5 -14 9 -6 9 9 1 12 10 9 31 -3 19 0 31 10 35 9 3 13 15 10 35 -2 16 -1
27 4 24 4 -3 8 0 8 6 0 6 5 8 10 5 6 -4 5 5 -2 20 -10 22 -9 28 6 43 18 16 18
16 12 -13 -6 -23 -5 -27 5 -18 17 17 19 70 3 84 -10 8 -14 8 -14 0 0 -6 5 -11
10 -11 18 0 11 -17 -9 -23 -22 -5 -31 21 -23 71 3 23 9 30 23 29 19 -1 28 -17
10 -17 -5 0 -11 -7 -15 -15 -4 -13 -2 -14 14 -5 22 12 26 35 9 46 -6 4 -8 17
-3 33 4 14 6 36 6 48 -1 12 2 25 8 28 5 3 5 17 -2 36 -9 26 -12 28 -27 17 -14
-12 -14 -11 -3 4 8 9 11 22 8 27 -4 5 -2 12 4 16 5 3 10 18 10 32 0 18 4 24
15 19 8 -3 15 0 16 7 1 7 5 -6 10 -27 5 -22 6 -43 1 -48z m36 -11 c-1 -23 -4
-33 -9 -25 -10 18 -7 91 3 75 4 -6 7 -29 6 -50z m-88 -64 c0 -7 -9 -2 -24 13
-9 8 -16 20 -16 26 0 6 9 1 20 -12 11 -13 20 -25 20 -27z m-4 -40 c7 -28 -4
-54 -26 -61 -9 -3 -11 1 -7 12 4 10 7 31 7 47 0 36 17 38 26 2z m94 -53 c0 -5
-4 -10 -10 -10 -5 0 -10 5 -10 10 0 6 5 10 10 10 6 0 10 -4 10 -10z m-13 -142
c-3 -7 -5 -2 -5 12 0 14 2 19 5 13 2 -7 2 -19 0 -25z m20 -105 c-3 -3 -11 -2
-17 2 -8 5 -7 11 2 22 12 15 13 14 16 -1 2 -10 1 -20 -1 -23z m443 22 c-7 -9
-15 -13 -17 -11 -7 7 7 26 19 26 6 0 6 -6 -2 -15z m-139 -27 c11 -7 11 -11 2
-15 -7 -2 -13 -17 -13 -32 0 -25 -3 -28 -25 -23 -20 3 -25 0 -25 -16 0 -11 -6
-24 -12 -30 -10 -8 -13 5 -15 58 l-1 69 38 -1 c21 0 44 -5 51 -10z m567 -6 c2
-7 -5 -15 -15 -19 -10 -3 -22 -12 -26 -20 -4 -7 -17 -13 -29 -13 -16 0 -19 -5
-16 -25 6 -26 -14 -51 -32 -40 -30 18 16 105 55 105 7 0 18 7 25 15 14 17 31
16 38 -3z m-435 -15 c-4 -7 -8 -23 -8 -37 0 -14 -4 -26 -10 -26 -5 -1 -9 2 -7
7 1 5 -5 23 -13 39 -13 24 -13 29 -1 24 8 -3 17 0 21 5 3 6 11 9 16 5 5 -3 6
-11 2 -17z m-436 -3 c2 -5 -3 -19 -12 -29 -14 -19 -14 -18 -15 13 0 31 18 42
27 16z m-24 -79 c-3 -9 -8 -14 -10 -11 -3 3 -2 9 2 15 9 16 15 13 8 -4z m417
5 c0 -5 -9 -14 -21 -20 -19 -11 -20 -10 -9 9 11 22 30 29 30 11z m344 -43 c-2
-7 -26 -22 -52 -34 -37 -17 -51 -31 -62 -58 -7 -19 -18 -35 -22 -35 -5 0 -7
-4 -3 -9 3 -5 1 -12 -5 -16 -13 -8 -13 11 -1 34 5 9 6 23 1 31 -6 9 9 26 51
57 32 25 61 49 65 54 8 14 34 -9 28 -24z m-517 -19 c-3 -8 -6 -5 -6 6 -1 11 2
17 5 13 3 -3 4 -12 1 -19z m143 12 c0 -10 -40 -21 -52 -14 -17 11 -7 21 22 22
17 0 30 -3 30 -8z m-383 -70 c0 -32 -14 -40 -23 -15 -7 18 2 45 14 45 5 0 9
-13 9 -30z m323 -30 c0 -8 14 -21 30 -28 17 -8 30 -18 30 -23 0 -5 -13 -9 -30
-9 -16 0 -30 -4 -30 -9 0 -6 -15 -4 -34 4 -18 8 -36 12 -38 9 -9 -8 -26 20
-28 46 -3 36 -1 47 8 33 6 -9 13 -9 32 1 28 14 60 2 60 -24z m251 -41 c-12
-12 -20 -27 -17 -35 3 -8 1 -14 -4 -14 -12 0 -13 40 -2 56 8 12 35 23 41 18 3
-3 -6 -14 -18 -25z m386 -51 c-3 -8 -6 -5 -6 6 -1 11 2 17 5 13 3 -3 4 -12 1
-19z m-529 -26 c-2 -9 -10 -18 -19 -20 -12 -2 -16 5 -15 27 1 25 4 28 19 19
10 -5 17 -17 15 -26z m-178 4 c0 -3 -4 -8 -10 -11 -5 -3 -10 -1 -10 4 0 6 5
11 10 11 6 0 10 -2 10 -4z m1191 -26 c5 0 9 5 9 12 0 6 3 8 7 5 3 -4 2 -17 -4
-30 -6 -12 -14 -30 -17 -40 -3 -10 -12 -17 -19 -15 -18 6 -21 47 -4 54 8 3 14
13 12 22 -1 9 0 11 2 5 3 -7 9 -13 14 -13z m-531 7 c-9 -7 -33 -37 -54 -67
-47 -66 -156 -202 -170 -212 -19 -13 -18 1 2 37 19 30 19 35 5 35 -18 0 -8 15
10 15 7 1 11 7 9 14 -1 7 7 15 18 18 12 3 19 11 16 19 -3 7 2 18 10 24 8 7 14
10 14 7 0 -3 30 24 66 59 37 35 72 64 78 64 6 0 4 -6 -4 -13z m-920 -6 c0 -6
-4 -13 -10 -16 -5 -3 -10 1 -10 9 0 9 5 16 10 16 6 0 10 -4 10 -9z m-2773 -7
c-3 -3 -12 -4 -19 -1 -8 3 -5 6 6 6 11 1 17 -2 13 -5z m38 -14 c3 -5 2 -10 -4
-10 -5 0 -13 5 -16 10 -3 6 -2 10 4 10 5 0 13 -4 16 -10z m99 -36 c17 -7 24
-13 16 -13 -8 0 -33 8 -55 19 -43 21 -12 16 39 -6z m2931 6 c-3 -5 1 -10 9
-10 19 0 21 -16 3 -27 -6 -4 -18 -20 -26 -35 -24 -46 -61 -32 -61 22 0 17 33
37 53 32 4 -1 7 5 7 13 0 8 5 15 11 15 5 0 7 -4 4 -10z m122 -11 c4 -20 -24
-52 -37 -44 -8 5 -8 10 0 20 6 7 10 17 9 21 -3 18 1 26 14 22 6 -3 13 -11 14
-19z m1312 11 c-6 -5 -18 -6 -26 -3 -19 8 -16 11 13 11 17 0 22 -3 13 -8z
m-4254 -40 c8 -13 -5 -13 -25 0 -13 8 -13 10 2 10 9 0 20 -4 23 -10z m3569
-15 c-4 -8 -10 -12 -15 -9 -14 8 -10 24 6 24 9 0 12 -6 9 -15z m-3494 -10 c19
-7 28 -13 20 -13 -8 0 -31 6 -50 13 -19 7 -28 13 -20 13 8 0 31 -6 50 -13z
m3840 -16 c0 -5 -4 -9 -10 -9 -5 0 -10 7 -10 16 0 8 5 12 10 9 6 -3 10 -10 10
-16z m-394 0 c4 -8 9 -7 15 2 7 11 9 11 9 -2 0 -9 -3 -18 -6 -22 -7 -7 -44 14
-44 25 0 12 18 9 26 -3z m194 7 c0 -11 -19 -15 -25 -6 -3 5 1 10 9 10 9 0 16
-2 16 -4z m120 -16 c0 -5 -2 -10 -4 -10 -3 0 -8 5 -11 10 -3 6 -1 10 4 10 6 0
11 -4 11 -10z m31 -43 c-16 -16 -25 -1 -10 16 8 8 16 11 18 5 2 -5 -2 -15 -8
-21z m-171 4 c0 -18 -18 -21 -30 -6 -10 13 -9 15 9 15 11 0 21 -4 21 -9z m-46
-17 c3 -8 2 -12 -4 -9 -6 3 -10 10 -10 16 0 14 7 11 14 -7z m-749 -41 c1 -16
3 -35 3 -44 1 -9 18 -24 38 -34 52 -24 34 -30 -23 -7 -26 11 -81 26 -121 33
-72 12 -92 22 -72 34 5 3 10 0 10 -7 0 -9 3 -9 8 -2 13 21 59 25 77 8 15 -15
17 -15 31 5 9 12 20 18 26 15 7 -4 8 -2 4 4 -8 13 2 37 11 28 4 -3 7 -18 8
-33z m695 7 c0 -5 -2 -10 -4 -10 -3 0 -8 5 -11 10 -3 6 -1 10 4 10 6 0 11 -4
11 -10z m645 -10 c3 -6 -4 -10 -17 -10 -18 0 -20 2 -8 10 19 12 18 12 25 0z
m-615 -20 c0 -5 -4 -10 -10 -10 -5 0 -10 5 -10 10 0 6 5 10 10 10 6 0 10 -4
10 -10z m265 -20 c-60 -8 -116 -19 -123 -24 -8 -5 -55 -15 -105 -23 -51 -7
-113 -17 -139 -22 -26 -4 -45 -4 -42 1 3 4 13 8 23 8 9 0 21 4 27 10 5 5 41
14 80 19 38 6 86 17 105 24 18 8 61 15 94 16 33 1 85 5 115 9 30 5 60 6 65 3
6 -3 -39 -12 -100 -21z m142 24 c-3 -3 -12 -4 -19 -1 -8 3 -5 6 6 6 11 1 17
-2 13 -5z m330 0 c-3 -3 -12 -4 -19 -1 -8 3 -5 6 6 6 11 1 17 -2 13 -5z
m-2807 -41 c0 -13 -3 -13 -15 -3 -8 7 -15 19 -15 27 0 13 3 13 15 3 8 -7 15
-19 15 -27z m1020 29 c0 -4 -16 -14 -35 -21 -38 -13 -52 -42 -40 -83 l6 -23
-20 23 c-11 12 -26 21 -33 20 -7 -2 -13 4 -13 12 0 8 8 14 18 14 10 -1 16 0
13 3 -6 6 42 47 64 56 23 8 40 8 40 -1z m35 -2 c3 -5 -1 -10 -9 -10 -9 0 -16
5 -16 10 0 6 4 10 9 10 6 0 13 -4 16 -10z m-130 -20 c3 -5 1 -10 -4 -10 -6 0
-11 5 -11 10 0 6 2 10 4 10 3 0 8 -4 11 -10z m715 -10 c0 -5 -5 -10 -11 -10
-5 0 -7 5 -4 10 3 6 8 10 11 10 2 0 4 -4 4 -10z m-1612 -59 c-1 -9 1 -22 6
-29 4 -7 5 -16 2 -19 -11 -12 -27 13 -33 53 -6 36 -5 38 11 25 9 -8 16 -21 14
-30z m-773 -1 c3 -5 2 -10 -4 -10 -5 0 -13 5 -16 10 -3 6 -2 10 4 10 5 0 13
-4 16 -10z m80 -40 c8 -13 -5 -13 -25 0 -13 8 -13 10 2 10 9 0 20 -4 23 -10z
m2290 -9 c28 -10 86 -35 130 -56 107 -49 350 -145 369 -145 8 0 18 -4 21 -10
3 -5 16 -10 28 -10 12 0 29 -4 37 -10 27 -17 3 -20 -45 -5 -27 8 -51 12 -54
10 -2 -3 -10 0 -18 7 -8 6 -35 15 -61 20 -90 17 -102 20 -102 29 0 5 -6 6 -14
3 -8 -3 -17 -1 -20 5 -4 5 -30 21 -59 36 -28 14 -65 34 -82 43 -16 10 -60 30
-97 46 -108 45 -135 76 -33 37z m-650 -21 c9 -16 13 -30 11 -30 -3 0 -12 14
-21 30 -9 17 -13 30 -11 30 3 0 12 -13 21 -30z m-1600 10 c3 -5 2 -10 -4 -10
-5 0 -13 5 -16 10 -3 6 -2 10 4 10 5 0 13 -4 16 -10z m691 -80 c10 -30 19 -59
19 -65 1 -18 16 -35 26 -30 5 4 9 2 9 -4 0 -5 -6 -12 -12 -14 -10 -4 -10 -8 1
-15 9 -7 12 -20 8 -41 -4 -20 -1 -35 8 -45 8 -8 15 -30 16 -48 1 -59 23 -93
104 -165 76 -66 166 -162 216 -228 20 -26 20 -28 3 -13 -11 10 -26 18 -32 18
-7 0 -12 6 -12 13 0 20 -184 202 -269 266 -50 38 -69 57 -58 59 17 4 15 35 -4
74 -5 9 -9 34 -9 54 0 21 -4 51 -9 68 -5 17 -16 54 -24 81 -9 28 -19 66 -22
85 -6 31 -5 33 8 20 8 -8 23 -40 33 -70z m854 5 c0 -12 -29 -3 -34 10 -4 13
-2 14 14 5 11 -6 20 -13 20 -15z m2268 4 c17 -27 5 -40 -14 -15 -8 11 -14 23
-14 28 0 15 15 8 28 -13z m-3634 -18 c4 -5 -3 -7 -14 -4 -23 6 -26 13 -6 13 8
0 17 -4 20 -9z m1496 -41 c0 -5 -2 -10 -4 -10 -3 0 -8 5 -11 10 -3 6 -1 10 4
10 6 0 11 -4 11 -10z m-150 -9 c0 -6 -4 -13 -10 -16 -5 -3 -10 1 -10 9 0 9 5
16 10 16 6 0 10 -4 10 -9z m1890 -34 c0 -15 -22 -46 -59 -84 -66 -69 -84 -103
-53 -103 10 0 22 -3 25 -7 4 -4 28 -14 54 -23 26 -9 48 -21 51 -28 2 -8 -17
-4 -54 10 -42 16 -59 19 -62 10 -5 -17 -22 -15 -22 3 0 8 -6 12 -14 9 -7 -3
-20 2 -29 10 -8 8 -25 17 -38 20 -13 2 -33 8 -43 12 -16 6 -18 4 -13 -11 6
-13 4 -15 -5 -8 -27 22 -128 73 -142 73 -9 0 -16 5 -16 11 0 11 21 7 79 -17
18 -8 38 -11 44 -7 6 4 7 1 2 -7 -6 -10 -4 -12 8 -7 9 3 29 0 44 -8 15 -8 37
-15 48 -15 26 0 164 134 178 173 9 24 17 21 17 -6z m-400 -22 c-7 -9 -15 -13
-17 -11 -7 7 7 26 19 26 6 0 6 -6 -2 -15z m-95 -45 c15 -7 10 -9 -22 -9 -24
-1 -43 4 -43 9 0 12 37 12 65 0z m-2388 -32 c79 -37 78 -36 70 -44 -5 -5 -132
58 -146 72 -11 10 13 2 76 -28z m2443 12 c13 -8 13 -10 -2 -10 -9 0 -20 5 -23
10 -8 13 5 13 25 0z m100 6 c0 -3 -4 -8 -10 -11 -5 -3 -10 -1 -10 4 0 6 5 11
10 11 6 0 10 -2 10 -4z m-1139 -108 c79 -55 195 -134 256 -175 103 -68 158
-113 104 -83 -20 10 -27 6 -69 -42 -58 -65 -97 -102 -142 -136 -69 -51 -180
-166 -168 -173 8 -5 3 -12 -15 -20 -15 -7 -29 -20 -32 -30 -3 -9 -16 -28 -29
-40 -12 -13 -42 -50 -65 -82 -23 -32 -47 -55 -52 -51 -7 4 -8 49 -4 128 3 66
8 172 10 235 6 170 25 480 31 529 4 23 12 42 18 42 7 0 77 -46 157 -102z
m1189 81 c0 -6 -4 -7 -10 -4 -5 3 -10 11 -10 16 0 6 5 7 10 4 6 -3 10 -11 10
-16z m-30 1 c0 -5 -4 -10 -10 -10 -5 0 -10 5 -10 10 0 6 5 10 10 10 6 0 10 -4
10 -10z m1048 -34 c9 2 7 -1 -6 -8 -28 -14 -43 1 -34 35 5 20 6 20 14 -5 7
-19 15 -25 26 -22z m12 -38 c0 -16 -3 -19 -11 -11 -6 6 -8 16 -5 22 11 17 16
13 16 -11z m-2684 -12 c-1 -18 -4 -22 -13 -14 -10 8 -13 4 -13 -17 0 -23 -2
-26 -15 -15 -8 7 -15 9 -15 4 0 -5 -7 -1 -15 9 -7 11 -11 25 -8 33 4 12 8 11
19 -3 14 -17 15 -17 30 5 21 29 32 28 30 -2z m2734 -2 c0 -2 -7 -4 -15 -4 -8
0 -15 4 -15 10 0 5 7 7 15 4 8 -4 15 -8 15 -10z m-691 -84 c11 0 23 -4 26 -10
8 -13 7 -13 -48 6 -26 9 -47 19 -47 23 0 18 13 18 31 0 10 -10 28 -19 38 -19z
m-2096 16 c22 -17 22 -33 -2 -45 -14 -8 -20 -7 -25 5 -3 8 -2 12 4 9 6 -3 10
-2 10 4 0 5 -4 13 -10 16 -12 7 -13 25 -2 25 4 0 15 -7 25 -14z m2947 0 c0 -3
-4 -8 -10 -11 -5 -3 -10 -1 -10 4 0 6 5 11 10 11 6 0 10 -2 10 -4z m-706 -53
c39 -9 75 -23 79 -30 9 -15 37 -18 37 -4 0 11 50 24 59 16 3 -4 -3 -13 -13
-21 -18 -13 -17 -15 25 -32 24 -11 53 -22 63 -26 10 -4 16 -9 13 -12 -7 -7
-94 21 -167 54 -30 14 -86 35 -125 48 -84 27 -70 30 29 7z m-2220 -35 c20 -28
20 -39 2 -32 -9 3 -17 -3 -21 -15 -3 -12 -11 -21 -16 -21 -12 0 -12 37 1 45 6
4 8 15 5 26 -9 26 10 24 29 -3z m76 -22 c0 -3 -4 -8 -10 -11 -5 -3 -10 -1 -10
4 0 6 5 11 10 11 6 0 10 -2 10 -4z m-85 -66 c-3 -5 -10 -10 -16 -10 -5 0 -9 5
-9 10 0 6 7 10 16 10 8 0 12 -4 9 -10z m2570 -1 c11 -17 -1 -21 -15 -4 -8 9
-8 15 -2 15 6 0 14 -5 17 -11z m-2525 -8 c0 -5 -7 -11 -15 -15 -15 -5 -20 5
-8 17 9 10 23 9 23 -2z m3017 -8 c-2 -10 -8 -27 -12 -38 -6 -18 -5 -18 5 -2
12 18 30 23 30 8 0 -5 -7 -16 -15 -24 -8 -8 -12 -17 -9 -20 4 -3 3 -11 -1 -18
-6 -8 -11 -6 -18 6 -14 25 -19 98 -7 90 6 -3 10 -1 10 4 0 6 5 11 11 11 6 0 9
-8 6 -17z m-331 -61 c-12 -11 -18 7 -10 30 l8 23 4 -23 c2 -13 1 -26 -2 -30z
m-2691 18 c-3 -10 -1 -29 5 -40 9 -17 8 -27 -7 -48 -9 -15 -18 -30 -18 -34 0
-3 -3 -10 -7 -14 -5 -4 -8 7 -8 24 0 17 -4 34 -10 37 -5 3 -10 15 -10 25 0 10
-5 20 -12 22 -6 2 -8 10 -4 17 5 7 14 10 21 7 8 -3 19 2 25 10 18 20 32 17 25
-6z m990 -28 c-6 -6 -65 21 -65 30 0 4 16 0 35 -9 19 -9 33 -19 30 -21z
m-1055 -22 c0 -5 -5 -10 -11 -10 -5 0 -7 5 -4 10 3 6 8 10 11 10 2 0 4 -4 4
-10z m3102 -12 c-7 -7 -12 -8 -12 -2 0 14 12 26 19 19 2 -3 -1 -11 -7 -17z
m-1912 -18 c19 -11 30 -19 24 -20 -12 0 -74 29 -74 36 0 8 15 3 50 -16z
m-1200 -26 c0 -8 -4 -14 -10 -14 -5 0 -10 9 -10 21 0 11 5 17 10 14 6 -3 10
-13 10 -21z m1135 -43 c-3 -6 -13 -10 -23 -10 -38 0 -238 -56 -258 -72 -11 -9
-74 -20 -74 -13 0 10 88 46 166 68 119 33 200 45 189 27z m-471 -34 c-6 -16
-44 -40 -44 -28 0 5 10 16 23 24 27 20 27 20 21 4z m-654 -52 c0 -14 -4 -25
-9 -25 -5 0 -11 11 -13 25 -4 17 -1 25 8 25 8 0 14 -11 14 -25z m62 5 l-22
-19 22 -3 c19 -3 20 -5 7 -18 -9 -8 -15 -17 -15 -20 0 -3 -3 -16 -7 -30 -5
-19 -9 -22 -18 -13 -8 8 -9 17 -2 25 5 7 8 24 7 38 -2 33 13 60 34 60 14 -1
13 -4 -6 -20z m693 -28 c-6 -5 -42 -30 -82 -56 -39 -25 -95 -69 -125 -96 -75
-69 -73 -53 3 23 70 69 104 94 164 118 49 20 52 21 40 11z m-751 -83 c-3 -5
-10 -7 -15 -3 -5 3 -7 10 -3 15 3 5 10 7 15 3 5 -3 7 -10 3 -15z m66 -36 c0
-5 -5 -15 -10 -23 -7 -11 -12 -12 -21 -3 -6 6 -8 16 -5 22 8 12 36 15 36 4z
m-75 -12 c3 -5 1 -12 -5 -16 -5 -3 -10 1 -10 9 0 18 6 21 15 7z m49 -40 c7
-11 -3 -41 -14 -41 -4 0 -7 11 -6 25 1 25 10 32 20 16z m417 -74 c-13 -12 -20
-15 -16 -7 14 26 28 41 33 35 3 -3 -5 -16 -17 -28z m-30 -45 c-5 -9 -19 -26
-32 -37 -22 -20 -20 -14 11 33 17 26 35 30 21 4z m-344 -108 c-3 -3 -12 -4
-19 -1 -8 3 -5 6 6 6 11 1 17 -2 13 -5z"/>
<path d="M4247 7133 c-4 -3 -7 -11 -7 -17 0 -6 5 -5 12 2 6 6 9 14 7 17 -3 3
-9 2 -12 -2z"/>
<path d="M3545 6990 c3 -5 11 -10 17 -10 6 0 20 -7 30 -17 21 -19 39 -9 17 11
-18 17 -73 31 -64 16z"/>
<path d="M3350 6921 c0 -6 5 -11 12 -11 6 0 20 -8 30 -17 14 -13 21 -14 30 -5
16 16 2 28 -39 37 -21 4 -33 3 -33 -4z"/>
<path d="M7410 6266 c0 -2 7 -7 16 -10 8 -3 12 -2 9 4 -6 10 -25 14 -25 6z"/>
<path d="M2550 5749 c0 -5 5 -7 10 -4 6 3 10 8 10 11 0 2 -4 4 -10 4 -5 0 -10
-5 -10 -11z"/>
<path d="M2545 5610 c-3 -5 3 -10 15 -10 12 0 18 5 15 10 -3 6 -10 10 -15 10
-5 0 -12 -4 -15 -10z"/>
<path d="M2540 5561 c0 -10 19 -25 25 -20 1 2 -3 10 -11 17 -8 7 -14 8 -14 3z"/>
<path d="M2545 5520 c3 -5 8 -10 11 -10 2 0 4 5 4 10 0 6 -5 10 -11 10 -5 0
-7 -4 -4 -10z"/>
<path d="M4975 2130 c-3 -5 -1 -10 4 -10 6 0 11 5 11 10 0 6 -2 10 -4 10 -3 0
-8 -4 -11 -10z"/>
<path d="M4935 2109 c-4 -6 -5 -12 -2 -15 2 -3 7 2 10 11 7 17 1 20 -8 4z"/>
<path d="M4930 2041 c0 -11 5 -23 10 -26 6 -3 10 3 10 14 0 11 -4 23 -10 26
-5 3 -10 -3 -10 -14z"/>
<path d="M4925 1860 c-3 -5 1 -10 10 -10 9 0 13 5 10 10 -3 6 -8 10 -10 10 -2
0 -7 -4 -10 -10z"/>
<path d="M4976 1823 c-11 -11 -6 -23 9 -23 8 0 15 4 15 9 0 13 -16 22 -24 14z"/>
<path d="M6465 1750 c-3 -5 -1 -10 4 -10 6 0 11 5 11 10 0 6 -2 10 -4 10 -3 0
-8 -4 -11 -10z"/>
<path d="M4885 650 c-3 -5 -1 -10 4 -10 6 0 11 5 11 10 0 6 -2 10 -4 10 -3 0
-8 -4 -11 -10z"/>
<path d="M5318 8069 c-19 -11 -24 -44 -9 -53 5 -3 20 3 32 13 21 18 22 21 9
35 -11 11 -20 12 -32 5z"/>
<path d="M5160 8019 c0 -4 10 -11 23 -15 12 -3 30 -13 40 -22 24 -21 33 -8 11
16 -19 20 -74 36 -74 21z"/>
<path d="M3813 7920 c-23 -17 -43 -26 -45 -20 -4 12 -143 -18 -226 -50 -29
-11 -61 -20 -71 -20 -33 0 -44 -25 -26 -59 13 -25 22 -31 49 -31 42 0 69 -27
43 -42 -11 -6 -16 -16 -12 -28 3 -10 1 -21 -5 -25 -16 -10 -12 -25 9 -25 36 0
91 30 91 49 0 11 9 23 21 26 16 5 19 12 15 30 -7 26 7 40 47 50 36 10 43 27
22 59 -18 27 -15 40 16 56 16 9 21 7 31 -15 13 -30 24 -32 33 -6 4 12 12 17
24 14 14 -4 20 3 25 28 3 18 5 34 3 35 -2 2 -22 -10 -44 -26z"/>
<path d="M3930 7931 c-7 -14 -7 -21 0 -21 5 0 10 -8 10 -18 0 -14 -13 -22 -47
-31 -27 -6 -61 -15 -78 -20 -22 -5 -29 -12 -27 -27 7 -40 72 -86 72 -50 0 7
30 40 68 72 111 97 107 93 91 98 -8 2 -21 4 -29 4 -8 0 -23 3 -32 7 -11 4 -20
0 -28 -14z"/>
<path d="M5250 7942 c0 -15 86 -51 101 -42 11 7 9 10 -6 15 -11 4 -35 13 -53
21 -38 16 -42 17 -42 6z"/>
<path d="M5700 7915 c0 -15 18 -40 24 -34 3 3 -1 14 -9 25 -8 10 -14 15 -15 9z"/>
<path d="M5388 7844 c-10 -9 4 -44 21 -53 18 -9 81 5 81 18 0 16 -90 47 -102
35z"/>
<path d="M5344 7807 c7 -36 6 -38 -13 -32 -20 6 -20 3 -14 -42 3 -26 7 -50 9
-52 5 -5 74 -11 74 -6 0 2 -5 16 -12 30 -8 19 -8 31 1 51 10 23 8 29 -20 57
l-31 32 6 -38z"/>
<path d="M3980 7765 c-7 -9 -11 -18 -8 -20 3 -3 11 1 18 10 7 9 11 18 8 20 -3
3 -11 -1 -18 -10z"/>
<path d="M5182 7748 c-17 -17 -15 -63 3 -78 11 -9 13 -16 6 -23 -7 -7 -26 2
-57 26 -64 50 -99 50 -53 1 16 -17 18 -27 11 -41 -5 -10 -12 -30 -15 -44 -6
-23 -3 -27 32 -39 51 -16 62 -8 56 41 -3 27 -1 38 6 34 6 -4 8 -13 5 -21 -3
-8 7 -23 23 -35 16 -12 32 -30 34 -41 5 -17 8 -18 29 -7 20 12 21 14 5 17 -19
4 -19 19 -1 115 6 27 -10 39 -19 15 -4 -14 -37 55 -37 78 0 17 -12 18 -28 2z
m48 -172 c0 -15 -3 -16 -15 -6 -8 7 -15 24 -15 38 0 25 1 25 15 6 8 -10 15
-27 15 -38z"/>
<path d="M3416 7712 c-3 -6 -1 -14 5 -17 15 -10 25 3 12 16 -7 7 -13 7 -17 1z"/>
<path d="M5688 7704 c-27 -14 -33 -28 -30 -66 2 -22 -33 -24 -45 -3 -5 8 -29
21 -53 30 l-45 15 24 -20 c13 -11 29 -20 37 -20 16 0 44 -39 44 -62 0 -17 -1
-18 -26 -2 -24 16 -25 16 -31 -4 -3 -12 -9 -19 -14 -16 -5 3 -6 -2 -3 -10 13
-35 89 -6 109 40 17 41 31 44 30 7 0 -22 6 -29 33 -36 40 -12 46 -7 31 25 -8
19 -8 31 1 48 11 20 10 25 -5 36 -11 8 -16 21 -12 34 6 24 -7 25 -45 4z"/>
<path d="M4418 7683 c-21 -5 -24 -23 -4 -23 8 0 17 -6 19 -12 4 -10 8 -9 16 2
19 27 4 42 -31 33z"/>
<path d="M4831 7681 c-1 -7 12 -37 29 -66 16 -28 37 -85 45 -126 9 -40 20 -78
24 -82 13 -13 51 2 51 20 0 14 2 14 19 -1 17 -16 19 -15 35 8 20 31 20 47 1
93 -14 33 -17 35 -28 19 -12 -17 -15 -16 -43 7 -16 13 -33 24 -39 24 -9 -1
-52 51 -82 99 -8 13 -12 14 -12 5z"/>
<path d="M3785 7657 c-4 -10 -5 -21 -1 -24 10 -10 18 4 13 24 -4 17 -4 17 -12
0z"/>
<path d="M4216 7622 c-17 -58 -17 -91 0 -117 16 -24 22 -26 57 -22 21 3 41 8
44 11 3 2 -10 18 -29 35 -27 24 -34 36 -31 58 3 20 -1 31 -16 40 -17 10 -21
10 -25 -5z"/>
<path d="M5296 7624 c-10 -25 -7 -86 4 -79 5 3 26 -3 47 -13 38 -19 69 -19 57
0 -12 20 41 -4 75 -34 40 -35 63 -25 36 16 -10 14 -15 32 -12 40 3 8 -3 25
-13 38 -19 22 -20 22 -34 4 -11 -13 -25 -17 -53 -15 -38 4 -39 3 -35 -26 l4
-30 -17 23 c-12 16 -16 34 -12 58 5 31 3 34 -18 34 -12 0 -26 -7 -29 -16z"/>
<path d="M3772 7611 c-11 -6 -10 -10 4 -15 20 -8 32 0 18 14 -5 5 -15 5 -22 1z"/>
<path d="M4650 7583 c0 -48 14 -122 21 -117 17 10 6 134 -12 134 -5 0 -9 -8
-9 -17z"/>
<path d="M3560 7551 c-10 -19 -8 -21 15 -21 19 0 26 5 23 17 -5 25 -25 27 -38
4z"/>
<path d="M6146 7555 c-3 -8 -1 -15 3 -15 5 0 11 7 15 15 3 8 1 15 -3 15 -5 0
-11 -7 -15 -15z"/>
<path d="M3797 7542 c-22 -24 -21 -29 3 -35 22 -6 46 25 35 43 -9 15 -20 12
-38 -8z"/>
<path d="M3865 7520 c-3 -5 -1 -10 4 -10 6 0 11 5 11 10 0 6 -2 10 -4 10 -3 0
-8 -4 -11 -10z"/>
<path d="M3660 7472 c6 -2 10 -10 10 -18 0 -15 42 -10 91 10 23 10 17 11 -42
11 -38 0 -64 -1 -59 -3z"/>
<path d="M5180 7468 c0 -7 4 -19 9 -26 6 -11 10 -10 19 0 8 11 6 17 -9 26 -15
10 -19 10 -19 0z"/>
<path d="M5146 7433 c-4 -13 -3 -30 2 -39 13 -24 22 -2 13 32 -7 28 -8 28 -15
7z"/>
<path d="M3780 7431 c0 -5 7 -14 15 -21 13 -10 15 -9 15 9 0 12 -6 21 -15 21
-8 0 -15 -4 -15 -9z"/>
<path d="M3407 7363 c-4 -3 -7 -11 -7 -17 0 -6 5 -5 12 2 6 6 9 14 7 17 -3 3
-9 2 -12 -2z"/>
<path d="M3315 7350 c-3 -5 -2 -10 4 -10 5 0 13 5 16 10 3 6 2 10 -4 10 -5 0
-13 -4 -16 -10z"/>
<path d="M5100 7351 c0 -6 4 -13 10 -16 6 -3 7 1 4 9 -7 18 -14 21 -14 7z"/>
<path d="M4580 7321 c0 -11 4 -21 9 -21 18 0 21 18 6 30 -13 10 -15 9 -15 -9z"/>
<path d="M4748 7310 c2 -16 7 -30 11 -30 23 1 50 50 27 50 -8 0 -21 2 -29 5
-10 5 -13 -1 -9 -25z"/>
<path d="M4645 7319 c-4 -5 -4 -22 0 -36 l6 -26 21 21 c18 17 19 23 8 36 -15
19 -26 20 -35 5z"/>
<path d="M4010 7310 c0 -5 5 -10 10 -10 6 0 10 5 10 10 0 6 -4 10 -10 10 -5 0
-10 -4 -10 -10z"/>
<path d="M4530 7255 c-11 -13 -8 -15 20 -15 28 0 31 2 20 15 -7 8 -16 15 -20
15 -4 0 -13 -7 -20 -15z"/>
<path d="M3940 7201 c0 -6 4 -12 8 -15 5 -3 9 1 9 9 0 8 -4 15 -9 15 -4 0 -8
-4 -8 -9z"/>
<path d="M1979 5976 c14 -16 43 -15 49 2 2 8 -8 12 -28 12 -27 0 -30 -2 -21
-14z"/>
<path d="M1745 5920 c-3 -5 -2 -10 4 -10 5 0 13 5 16 10 3 6 2 10 -4 10 -5 0
-13 -4 -16 -10z"/>
<path d="M1725 5880 c-3 -5 -1 -10 4 -10 6 0 11 5 11 10 0 6 -2 10 -4 10 -3 0
-8 -4 -11 -10z"/>
<path d="M1849 5793 l-24 -28 28 24 c25 23 32 31 24 31 -2 0 -14 -12 -28 -27z"/>
<path d="M1720 5750 c0 -5 5 -10 10 -10 6 0 10 5 10 10 0 6 -4 10 -10 10 -5 0
-10 -4 -10 -10z"/>
<path d="M1789 5733 l-24 -28 28 24 c25 23 32 31 24 31 -2 0 -14 -12 -28 -27z"/>
<path d="M1653 5671 c-18 -15 -33 -35 -33 -43 0 -19 -27 -32 -32 -16 -3 7 -10
4 -20 -5 -14 -14 -18 -15 -28 -2 -10 12 -9 15 4 15 11 0 14 4 9 13 -4 6 -6 23
-4 37 2 16 -1 21 -7 15 -32 -35 -50 -246 -23 -278 13 -17 60 -24 62 -9 0 4 1
21 2 37 1 19 25 63 65 118 56 79 79 129 51 112 -6 -4 -8 -14 -5 -22 3 -8 1
-11 -5 -8 -5 4 -17 1 -25 -6 -8 -6 -17 -9 -21 -6 -3 4 11 23 31 42 44 41 26
47 -21 6z"/>
<path d="M4382 5673 c-10 -4 -10 -8 -1 -19 16 -20 29 -17 29 6 0 20 -5 23 -28
13z"/>
<path d="M4470 5670 c-13 -8 -12 -10 3 -10 9 0 17 5 17 10 0 12 -1 12 -20 0z"/>
<path d="M4436 5616 c3 -8 12 -12 21 -9 12 5 12 7 1 14 -20 13 -28 11 -22 -5z"/>
</g>
</svg>
